<!-- icon666.com - MILLIONS vector ICONS FREE --><svg version="1.1" id="Layer_1" xmlns="http://www.w3.org/2000/svg" xmlns:xlink="http://www.w3.org/1999/xlink" x="0px" y="0px" viewBox="0 0 512 512" style="enable-background:new 0 0 512 512;" xml:space="preserve"><path style="fill:#D7DEED;" d="M208,504c26.51,0,48-21.49,48-48c0,26.51,21.49,48,48,48h24H184"></path><path style="fill:#E4EAF6;" d="M157.706,7c-3.916,0-7.432,2.57-8.675,6.283c-29.585,88.416-38.341,143.228-38.341,186.189 c0,79.725,65.212,144.355,145.655,144.355S402,279.196,402,199.472c0-42.962-8.756-97.773-38.341-186.189 C362.416,9.57,358.9,7,354.984,7H157.706z"></path><path style="fill:#D7DEED;" d="M201.724,199.473c0-42.963,8.756-97.773,38.341-186.189C241.308,9.569,244.824,7,248.74,7h-91.034 c-3.916,0-7.432,2.569-8.675,6.283c-29.585,88.416-38.341,143.227-38.341,186.189c0,79.725,65.212,144.355,145.655,144.355 c15.911,0,31.185-2.616,45.518-7.29C243.732,317.583,201.724,263.428,201.724,199.473z"></path><path style="fill:#FFFFFF;" d="M371.175,197.689c-0.175,0-0.337,0.043-0.511,0.046c-2.356-10.409-12.708-18.253-25.132-18.253 c-10.274,0-19.071,5.397-23.164,13.141c-3.508-2.488-7.897-4.037-12.737-4.037s-9.229,1.549-12.737,4.037 c-4.092-7.743-12.889-13.141-23.163-13.141c-8.646,0-16.254,3.825-20.899,9.642c-1.53-0.322-3.104-0.538-4.744-0.538 c-3.845,0-7.401,0.998-10.476,2.631c-1.116-11.654-12.004-20.838-25.425-20.838c-12.423,0-22.775,7.844-25.132,18.253 c-0.174-0.003-0.336-0.046-0.511-0.046c-1.641,0-3.215,0.216-4.744,0.538c-4.646-5.816-12.254-9.642-20.899-9.642 c-13.335,0-24.165,9.068-25.399,20.615c-6.239,3.123-10.501,8.989-10.501,15.799V225H391.69v-9.104 C391.689,205.841,382.505,197.689,371.175,197.689z"></path><path style="fill:#E4EAF6;" d="M187.055,188.632c-0.174-0.003-0.336-0.046-0.511-0.046c-1.641,0-3.215,0.216-4.744,0.538 c-4.646-5.816-12.254-9.642-20.899-9.642c-13.335,0-24.165,9.068-25.399,20.615c-6.239,3.123-10.501,8.989-10.501,15.799V225h72.016 c0.574-15.766,2.488-33.195,6.338-53.234C195.088,174.46,188.823,180.824,187.055,188.632z"></path><path style="fill:#FFE6AF;" d="M113,224c0,0,1.093,7.732,2,11c16.336,58.854,70.575,108.828,141.345,108.828 S381.716,295.368,397,235c0.833-3.288,3-11,3-11H113z"></path><path style="fill:#FFDC96;" d="M113,224c0,0,1.393,7.036,3,13c16.465,61.086,69.517,103.697,136,107 c-32.495-26.415-53.891-66.719-53.891-109.597c0-3.38,0.083-6.865,0.207-10.403H113z"></path><g><circle style="fill:#FFFFFF;" cx="320" cy="272" r="15"></circle><circle style="fill:#FFFFFF;" cx="232" cy="288" r="15"></circle></g><g><path style="fill:#2D2B29;" d="M408,200c0-51.51-12.465-111.513-40.418-194.553C366.486,2.192,363.435,0,360,0H152 c-3.435,0-6.486,2.192-7.582,5.447C116.465,88.487,104,148.49,104,200c0,81.13,63.891,147.615,144,151.79V456 c0,22.056-17.944,40-40,40h-24c-4.418,0-8,3.582-8,8s3.582,8,8,8h144c4.418,0,8-3.582,8-8s-3.582-8-8-8h-24 c-22.056,0-40-17.944-40-40V351.79C344.109,347.615,408,281.13,408,200z M123.813,232H328c4.418,0,8-3.582,8-8s-3.582-8-8-8 H120.946c-0.618-5.25-0.946-10.587-0.946-16c0-48.581,11.665-105.503,37.759-184H354.24C380.335,94.497,392,151.419,392,200 c0,5.413-0.328,10.75-0.946,16H360c-4.418,0-8,3.582-8,8s3.582,8,8,8h28.188C373.758,291.6,319.971,336,256,336 S138.242,291.6,123.813,232z M264.861,496h-17.723c3.404-3.332,6.39-7.088,8.861-11.19 C258.472,488.912,261.457,492.668,264.861,496z"></path><path style="fill:#2D2B29;" d="M248,280c-4.418,0-8,3.582-8,8c0,4.411-3.589,8-8,8s-8-3.589-8-8s3.589-8,8-8c4.418,0,8-3.582,8-8 s-3.582-8-8-8c-13.234,0-24,10.767-24,24s10.766,24,24,24s24-10.767,24-24C256,283.582,252.418,280,248,280z"></path><path style="fill:#2D2B29;" d="M320,296c13.234,0,24-10.767,24-24c0-4.418-3.582-8-8-8s-8,3.582-8,8c0,4.411-3.589,8-8,8 s-8-3.589-8-8s3.589-8,8-8c4.418,0,8-3.582,8-8s-3.582-8-8-8c-13.234,0-24,10.767-24,24S306.766,296,320,296z"></path><path style="fill:#2D2B29;" d="M184,256c-2.1,0-4.17,0.85-5.66,2.34S176,261.9,176,264s0.85,4.17,2.34,5.66 c1.49,1.489,3.56,2.34,5.66,2.34s4.17-0.851,5.66-2.34c1.49-1.49,2.34-3.561,2.34-5.66c0-2.101-0.85-4.17-2.34-5.66 C188.17,256.85,186.1,256,184,256z"></path><path style="fill:#2D2B29;" d="M288,312c2.1,0,4.16-0.851,5.66-2.34c1.49-1.49,2.34-3.551,2.34-5.66c0-2.11-0.85-4.17-2.34-5.66 c-1.5-1.49-3.56-2.34-5.66-2.34s-4.17,0.85-5.66,2.34S280,301.89,280,304c0,2.109,0.85,4.17,2.34,5.66 C283.83,311.149,285.9,312,288,312z"></path><path style="fill:#2D2B29;" d="M264,256c2.11,0,4.17-0.851,5.66-2.34c1.49-1.49,2.34-3.551,2.34-5.66c0-2.11-0.85-4.17-2.34-5.66 S266.1,240,264,240s-4.17,0.85-5.66,2.34c-1.49,1.49-2.34,3.55-2.34,5.66c0,2.109,0.85,4.17,2.34,5.66 C259.83,255.149,261.89,256,264,256z"></path><path style="fill:#2D2B29;" d="M312,128c-2.11,0-4.17,0.85-5.66,2.34c-1.49,1.49-2.34,3.55-2.34,5.66c0,2.109,0.85,4.17,2.34,5.66 c1.49,1.489,3.55,2.34,5.66,2.34c2.11,0,4.17-0.851,5.66-2.34c1.49-1.5,2.34-3.561,2.34-5.66c0-2.101-0.85-4.17-2.34-5.66 C316.17,128.85,314.11,128,312,128z"></path><path style="fill:#2D2B29;" d="M256,144c-2.11,0-4.17,0.85-5.66,2.34c-1.48,1.49-2.34,3.55-2.34,5.66c0,2.109,0.86,4.17,2.34,5.66 c1.49,1.489,3.55,2.34,5.66,2.34c2.11,0,4.17-0.851,5.66-2.34c1.49-1.5,2.34-3.561,2.34-5.66c0-2.11-0.85-4.17-2.34-5.66 C260.17,144.85,258.11,144,256,144z"></path><path style="fill:#2D2B29;" d="M216,72c-2.11,0-4.17,0.85-5.66,2.34S208,77.9,208,80c0,2.1,0.85,4.17,2.34,5.66 c1.49,1.489,3.55,2.34,5.66,2.34s4.17-0.851,5.66-2.34c1.49-1.49,2.34-3.551,2.34-5.66c0-2.11-0.85-4.17-2.34-5.66 C220.17,72.85,218.11,72,216,72z"></path><path style="fill:#2D2B29;" d="M192,176c-2.11,0-4.17,0.85-5.66,2.34c-1.49,1.49-2.34,3.55-2.34,5.66c0,2.109,0.85,4.17,2.34,5.66 c1.49,1.489,3.55,2.34,5.66,2.34s4.17-0.851,5.66-2.34c1.49-1.49,2.34-3.551,2.34-5.66c0-2.11-0.85-4.17-2.34-5.66 C196.17,176.85,194.11,176,192,176z"></path></g></svg>