<!-- icon666.com - MILLIONS vector ICONS FREE --><svg id="Capa_1" enable-background="new 0 0 512 512" viewBox="0 0 512 512" xmlns="http://www.w3.org/2000/svg"><g><g><path d="m64.19 424.085c-4.444 4.935-8.5 9.495-12.058 13.638-13.993 16.293-12.675 40.708 2.98 55.412 16.132 15.152 41.265 15.152 57.397 0 16.132-15.152 41.265-15.152 57.397 0 16.132 15.152 41.265 15.152 57.397 0 16.132-15.152 41.265-15.152 57.397 0 16.132 15.152 41.265 15.152 57.397 0 16.132-15.152 41.265-15.152 57.397 0 16.132 15.152 41.265 15.152 57.397 0 15.655-14.704 16.973-39.119 2.98-55.412-3.558-4.143-7.614-8.703-12.058-13.638l-190.373-75.684z" fill="#32c291"></path><path d="m191.952 374.049-127.762 50.037c-4.445 4.935-8.5 9.495-12.058 13.638-13.993 16.293-12.675 40.708 2.98 55.412 16.132 15.152 41.265 15.152 57.397 0 16.132-15.152 41.265-15.152 57.397 0 16.132 15.152 41.265 15.152 57.397 0 1.618-1.52 3.33-2.88 5.111-4.095-20.692-33.275-34.471-72.419-40.462-114.992z" fill="#22b382"></path><path d="m207.786 151.277c-40.161 91.648-121.074 170.644-155.655 210.911-13.993 16.293-12.675 40.708 2.98 55.412 16.132 15.152 41.265 15.152 57.397 0 16.132-15.152 41.265-15.152 57.397 0 16.132 15.152 41.265 15.152 57.397 0 16.132-15.152 41.265-15.152 57.397 0 16.132 15.152 41.265 15.152 57.397 0 16.132-15.152 41.265-15.152 57.397 0 16.132 15.152 41.265 15.152 57.397 0 15.655-14.704 16.973-39.119 2.98-55.412-34.581-40.267-115.494-119.262-155.654-210.911z" fill="#71d1b0"></path><path d="m188.538 324.648c0-65.776 23.179-126.134 61.801-173.372h-42.554c-40.16 91.649-121.073 170.645-155.654 210.912-13.993 16.293-12.675 40.708 2.98 55.412 16.132 15.152 41.265 15.152 57.397 0 16.132-15.152 41.265-15.152 57.397 0 9.603 9.02 22.395 12.668 34.579 10.95-10.457-32.046-15.946-67.123-15.946-103.902z" fill="#32c291"></path><path d="m331.44 60.596-27.835-4.045c-8.142-1.183-15.18-6.297-18.821-13.675l-12.448-25.223c-6.682-13.539-25.987-13.539-32.669 0l-12.448 25.223c-3.641 7.378-10.68 12.491-18.821 13.675l-27.835 4.045c-14.941 2.171-20.907 20.532-10.095 31.07l20.142 19.633c5.892 5.743 8.58 14.017 7.189 22.126l-4.755 27.723c-2.552 14.88 13.066 26.228 26.43 19.202l24.897-13.089c7.282-3.829 15.982-3.829 23.265 0l24.897 13.089c13.363 7.026 28.982-4.322 26.43-19.202l-4.755-27.723c-1.391-8.109 1.298-16.383 7.189-22.126l20.142-19.633c10.807-10.538 4.841-28.899-10.099-31.07z" fill="#f2d895"></path><g fill="#5877cd"><path d="m205.954 275.484h-25.487c-10.708 0-18.689 9.874-16.444 20.343l1.411 6.583c2.372 11.064 12.151 18.968 23.467 18.968h8.618c11.316 0 21.094-7.904 23.467-18.968l1.412-6.583c2.244-10.47-5.737-20.343-16.444-20.343z"></path><path d="m308.926 275.484h25.487c10.708 0 18.688 9.874 16.444 20.343l-1.411 6.583c-2.372 11.064-12.151 18.968-23.467 18.968h-8.618c-11.316 0-21.094-7.904-23.467-18.968l-1.411-6.583c-2.246-10.47 5.735-20.343 16.443-20.343z"></path></g><circle cx="99.793" cy="333.971" fill="#f2d895" r="34.281"></circle><circle cx="412.207" cy="333.971" fill="#f2d895" r="34.281"></circle><circle cx="256" cy="410.949" fill="#fd869c" r="34.281"></circle><path d="m318.705 159.671c-38.128-9.844-66.293-44.468-66.293-85.671 0-21.29 7.522-40.821 20.05-56.087l-.128-.259c-6.682-13.539-25.987-13.539-32.669 0l-12.448 25.223c-3.641 7.378-10.68 12.492-18.821 13.675l-27.835 4.044c-14.941 2.171-20.907 20.532-10.095 31.07l20.142 19.633c5.892 5.743 8.58 14.017 7.189 22.126l-4.755 27.723c-2.552 14.88 13.066 26.228 26.43 19.203l24.897-13.089c7.282-3.829 15.982-3.829 23.265 0l24.897 13.089c13.363 7.025 28.982-4.322 26.43-19.203z" fill="#f5c372"></path><path d="m127.181 352.544c-21.806 0-39.484-17.678-39.484-39.484 0-4.107.628-8.067 1.792-11.791-13.897 4.375-23.976 17.36-23.976 32.702 0 18.933 15.348 34.281 34.281 34.281 12.101 0 22.729-6.276 28.83-15.745-.48.017-.959.037-1.443.037z" fill="#f5c372"></path><path d="m283.388 429.521c-21.806 0-39.484-17.678-39.484-39.484 0-4.107.628-8.067 1.792-11.791-13.897 4.375-23.976 17.36-23.976 32.702 0 18.933 15.348 34.281 34.281 34.281 12.101 0 22.729-6.276 28.83-15.745-.48.018-.96.037-1.443.037z" fill="#fd768d"></path><path d="m439.595 352.543c-21.806 0-39.484-17.678-39.484-39.484 0-4.107.628-8.067 1.792-11.791-13.897 4.375-23.976 17.36-23.976 32.702 0 18.933 15.348 34.281 34.281 34.281 12.101 0 22.729-6.276 28.83-15.745-.481.018-.96.037-1.443.037z" fill="#f5c372"></path></g><g><path d="m267.482 309.285c-2.885 3.31-7.049 5.209-11.427 5.209-4.377 0-8.542-1.899-11.427-5.209-2.723-3.123-7.46-3.448-10.583-.727-3.123 2.722-3.448 7.46-.727 10.583 5.735 6.581 14.022 10.354 22.736 10.354 8.715 0 17.002-3.774 22.736-10.355 2.721-3.123 2.396-7.861-.727-10.582-3.121-2.722-7.86-2.396-10.581.727z"></path><path d="m285.151 297.415 1.411 6.583c3.094 14.427 16.048 24.898 30.803 24.898h8.619c14.755 0 27.709-10.472 30.803-24.898l1.411-6.583c3.25-15.154-8.31-29.418-23.779-29.418h-25.489c-5.568 0-10.857 1.875-15.112 5.26-9.272-1.18-21.359-2.353-36.378-2.353s-27.106 1.173-36.378 2.353c-4.255-3.385-9.544-5.26-15.112-5.26h-25.489c-15.498 0-27.022 14.293-23.779 29.417l1.411 6.583c3.094 14.427 16.048 24.898 30.803 24.898h8.618c14.755 0 27.71-10.472 30.803-24.898l1.412-6.583c.723-3.374.712-6.792.03-10.065 7.673-.8 16.884-1.444 27.681-1.444 10.796 0 20.008.644 27.681 1.444-.682 3.275-.694 6.693.03 10.066zm-70.09-3.144-1.412 6.584c-1.62 7.557-8.405 13.042-16.135 13.042h-8.618c-7.729 0-14.514-5.485-16.135-13.042l-1.411-6.584c-1.246-5.806 3.183-11.271 9.111-11.271h25.489c5.933-.001 10.349 5.499 9.111 11.271zm119.358-11.272c5.938 0 10.354 5.476 9.111 11.272l-1.411 6.583c-1.62 7.557-8.406 13.042-16.135 13.042h-8.619c-7.729 0-14.514-5.485-16.135-13.042l-1.411-6.584c-1.24-5.776 3.18-11.271 9.111-11.271z"></path><path d="m346.777 97.038c15.26-14.875 6.826-40.803-14.253-43.866l-27.838-4.045c-5.701-.828-10.626-4.407-13.175-9.573l-12.449-25.225c-9.432-19.11-36.697-19.102-46.124 0l-12.449 25.225c-2.55 5.166-7.475 8.744-13.175 9.573l-27.838 4.045c-21.086 3.064-29.508 28.996-14.253 43.866l20.143 19.635c4.125 4.021 6.006 9.811 5.033 15.488l-4.755 27.725c-.92 5.364-.13 10.701 2.096 15.383-5.197 9.701-11.039 19.687-17.406 29.741-2.216 3.5-1.176 8.134 2.324 10.35 3.501 2.217 8.133 1.176 10.35-2.324 5.601-8.844 10.815-17.648 15.561-26.27 7.503 4.147 16.649 4.307 24.39.23l24.898-13.089c5.088-2.675 11.178-2.686 16.286 0l24.899 13.09c7.658 4.032 16.802 3.955 24.386-.229 9.945 18.091 21.64 36.433 35.575 55.811 2.415 3.358 7.102 4.132 10.469 1.71 3.363-2.418 4.129-7.106 1.71-10.469-14.681-20.415-26.788-39.609-36.923-58.548 2.228-4.683 3.019-10.02 2.098-15.386l-4.755-27.725c-.974-5.678.908-11.468 5.032-15.488zm-30.615 8.893c-7.661 7.467-11.155 18.221-9.346 28.766l4.755 27.725c1.492 8.702-7.631 15.45-15.549 11.297l-24.899-13.09c-9.47-4.979-20.776-4.979-30.247 0l-24.898 13.09c-7.899 4.149-17.044-2.577-15.549-11.297l4.755-27.725c1.808-10.545-1.686-21.298-9.347-28.766l-20.143-19.635c-6.368-6.207-2.875-16.998 5.939-18.279l27.838-4.045c10.587-1.538 19.735-8.185 24.47-17.779l12.449-25.225c3.943-7.989 15.284-7.972 19.22 0l12.449 25.225c4.735 9.594 13.883 16.24 24.47 17.779l27.838 4.045c8.799 1.278 12.318 12.061 5.939 18.279z"></path><path d="m49.961 498.634c18.973 17.821 48.698 17.822 67.671 0 13.214-12.412 33.917-12.412 47.131 0 18.974 17.821 48.699 17.821 67.672 0 13.214-12.412 33.917-12.412 47.131 0 18.973 17.82 48.698 17.82 67.672 0 13.214-12.412 33.917-12.412 47.131 0 18.974 17.821 48.699 17.821 67.672 0 18.629-17.497 20.182-46.387 3.535-65.77-1.886-2.196-3.963-4.57-6.39-7.305.973-.784 1.931-1.597 2.855-2.466 18.629-17.497 20.182-46.387 3.535-65.77-3.878-4.516-8.377-9.555-12.584-14.224.655-2.934 1.012-5.98 1.012-9.109 0-23.04-18.744-41.783-41.784-41.783-1.512 0-3.004.085-4.475.243-10.826-12.575-20.561-24.413-29.652-36.073-2.547-3.266-7.261-3.851-10.527-1.302-3.267 2.547-3.85 7.26-1.303 10.527 8.054 10.327 16.586 20.778 25.915 31.738-13.667 7.504-21.741 21.735-21.741 36.651 0 23.04 18.743 41.784 41.784 41.784 13.665 0 26.401-6.746 34.106-17.641 2.725 3.055 5.431 6.124 7.869 8.964 11.405 13.28 10.34 33.074-2.425 45.062-13.253 12.447-33.953 12.375-47.131 0-18.973-17.822-48.698-17.821-67.672 0-10.733 10.083-26.752 12.198-39.689 5.315.239-1.437.506-4.123.506-6.499 0-23.04-18.744-41.784-41.784-41.784-23.039 0-41.783 18.745-41.783 41.784 0 2.219.231 4.807.506 6.499-12.867 6.839-28.899 4.817-39.689-5.315-18.973-17.821-48.699-17.82-67.672 0-13.184 12.38-33.89 12.437-47.131 0-12.765-11.989-13.83-31.783-2.425-45.062 2.439-2.839 5.144-5.909 7.869-8.963 7.719 10.906 20.46 17.641 34.107 17.641 23.039 0 41.783-18.743 41.783-41.784 0-15.076-8.213-29.224-21.742-36.651 18.273-21.469 33.802-41.354 47.302-60.557 2.382-3.389 1.566-8.068-1.823-10.45-3.388-2.382-8.068-1.567-10.45 1.822-14.234 20.249-30.815 41.317-50.595 64.295-1.471-.158-2.963-.243-4.476-.243-23.04 0-41.784 18.744-41.784 41.783 0 3.129.357 6.175 1.012 9.11-4.207 4.668-8.705 9.707-12.584 14.223-16.646 19.383-15.093 48.273 3.535 65.77.925.869 1.882 1.682 2.855 2.466-2.427 2.735-4.504 5.108-6.391 7.306-16.646 19.381-15.093 48.271 3.536 65.768zm335.475-164.645c0-14.359 11.716-26.782 26.783-26.782 14.768 0 26.783 12.015 26.783 26.782 0 14.76-12.018 26.783-26.783 26.783-14.74 0-26.783-11.985-26.783-26.783zm-285.655-26.782c15.035 0 26.782 12.389 26.782 26.782 0 14.767-12.013 26.783-26.782 26.783-14.716 0-26.783-11.973-26.783-26.783.001-14.767 12.015-26.782 26.783-26.782zm156.219 130.549c-14.819 0-26.782-12.093-26.782-26.782 0-14.768 12.015-26.783 26.782-26.783 14.768 0 26.783 12.015 26.783 26.783 0 14.735-12.02 26.782-26.783 26.782zm-198.194 4.881c2.306-2.686 4.992-5.743 8.283-9.427 17.618 6.775 37.675 2.91 51.543-10.117 13.214-12.412 33.918-12.411 47.131 0 14.907 14.002 36.819 17.241 54.954 8.659 7.433 13.078 21.296 21.006 36.283 21.006 14.56 0 28.654-7.584 36.283-21.006 18.317 8.648 40.197 5.217 54.954-8.66 13.214-12.411 33.917-12.412 47.131 0 13.671 12.844 33.702 16.977 51.543 10.117 3.29 3.684 5.976 6.741 8.283 9.427 11.405 13.28 10.34 33.074-2.425 45.063-13.214 12.412-33.917 12.412-47.131 0-18.973-17.821-48.699-17.822-67.672.001-13.214 12.411-33.917 12.411-47.131-.001-18.974-17.821-48.699-17.821-67.672 0-13.214 12.412-33.917 12.412-47.131 0-18.974-17.821-48.699-17.821-67.672.001-13.214 12.411-33.917 12.412-47.131-.001-12.763-11.989-13.828-31.782-2.423-45.062z"></path></g></g></svg>