<!-- icon666.com - MILLIONS vector ICONS FREE --><svg version="1.1" id="Layer_1" xmlns="http://www.w3.org/2000/svg" xmlns:xlink="http://www.w3.org/1999/xlink" x="0px" y="0px" viewBox="0 0 511.985 511.985" style="enable-background:new 0 0 511.985 511.985;" xml:space="preserve"><g><rect x="14.003" y="375.493" style="fill:#DA4453;" width="113" height="122.5"></rect><rect x="385.993" y="375.493" style="fill:#DA4453;" width="115.5" height="122.5"></rect><rect x="461.983" y="324.993" style="fill:#DA4453;" width="39.498" height="40.999"></rect><rect x="385.993" y="327.493" style="fill:#DA4453;" width="35.499" height="38.499"></rect><rect x="87.493" y="324.993" style="fill:#DA4453;" width="36.499" height="40.999"></rect><rect x="14.003" y="327.493" style="fill:#DA4453;" width="36.499" height="38.499"></rect></g><polygon style="fill:#48CFAD;" points="271.993,85.358 242.665,79.358 235.994,109.357 223.994,180.011 288.664,180.011 "></polygon><g><rect x="210.743" y="185.243" style="fill:#ED5564;" width="87.25" height="122"></rect><rect x="170.993" y="399.243" style="fill:#ED5564;" width="163.25" height="32.998"></rect><rect x="238.663" y="365.993" style="fill:#ED5564;" width="29.999" height="25.327"></rect></g><rect x="173.013" y="313.643" style="fill:#DA4453;" width="169.65" height="79.998"></rect><rect x="173.013" y="440.663" style="fill:#434A54;" width="161.23" height="53.998"></rect><g><rect x="133.493" y="276.993" style="fill:#DA4453;" width="31.999" height="220.99"></rect><rect x="345.493" y="276.993" style="fill:#DA4453;" width="35.998" height="220.99"></rect></g><path style="fill:#434A54;" d="M282.337,227.338c0,13.437-10.891,24.328-24.344,24.328c-13.437,0-24.327-10.891-24.327-24.328 c0-13.453,10.89-24.343,24.327-24.343C271.446,202.995,282.337,213.885,282.337,227.338z"></path><polygon style="fill:#FFCE54;" points="286.493,43.25 254.368,20 245.243,43.25 222.744,45 233.666,63.249 231.744,85.748 247.493,79.358 279.993,89.248 273.993,69.999 "></polygon><path d="M159.996,245.322c0-5.891-4.781-10.671-10.671-10.671s-10.671,4.781-10.671,10.671s4.78,10.671,10.671,10.671 C155.215,255.993,159.996,251.212,159.996,245.322z"></path><path d="M373.317,245.322c0-5.891-4.781-10.671-10.671-10.671c-5.891,0-10.656,4.781-10.656,10.671s4.766,10.671,10.656,10.671 C368.536,255.993,373.317,251.212,373.317,245.322z"></path><path d="M505.391,299.461c-3.984-1.656-8.578-0.734-11.624,2.312l-13.781,13.796l-13.796-13.796 c-3.047-3.047-7.641-3.969-11.625-2.312s-6.578,5.53-6.578,9.858v53.327h-10.672v-53.327c0-4.328-2.609-8.202-6.594-9.858 c-3.983-1.656-8.562-0.734-11.624,2.312l-13.78,13.796l-10.672-10.672v-17.749c0-2.89-1.188-5.671-3.266-7.687l-21.344-20.5 c-2.062-1.984-4.718-2.969-7.39-2.969c-2.656,0-5.328,0.984-7.391,2.969l-21.327,20.5c-2.094,2.016-3.281,4.797-3.281,7.687v11.5 h-21.328V181.324c0-5.891-4.781-10.671-10.671-10.671v-10.656c0-0.718-0.062-1.406-0.203-2.093l-11.422-57.092 c3.469-1.766,5.859-5.359,5.859-9.515c0-0.828-0.094-1.609-0.266-2.375l-3.953-23.078l17.187-16.75 c2.906-2.828,3.953-7.062,2.688-10.937c-1.25-3.859-4.594-6.671-8.608-7.25l-23.733-3.453L265.571,5.938 C263.774,2.297,260.071,0,256.009,0s-7.765,2.297-9.562,5.938l-10.625,21.515l-23.734,3.453c-4.016,0.578-7.359,3.39-8.609,7.25 c-1.266,3.875-0.219,8.109,2.688,10.937l17.187,16.75l-4.062,23.656c-0.688,4,0.969,8.031,4.25,10.421 c0.453,0.328,0.922,0.609,1.406,0.859l-11.421,57.124c-0.141,0.688-0.203,1.375-0.203,2.093v10.656 c-5.891,0-10.671,4.781-10.671,10.671v117.325h-21.328v-11.5c0-2.89-1.188-5.671-3.281-7.687l-21.327-20.5 c-2.062-1.984-4.734-2.969-7.391-2.969c-2.672,0-5.328,0.984-7.39,2.969l-21.343,20.5c-2.094,2.016-3.266,4.797-3.266,7.687v17.749 l-10.671,10.672l-13.783-13.796c-3.062-3.047-7.641-3.969-11.625-2.312c-4,1.656-6.593,5.53-6.593,9.858v53.327H63.999v-53.327 c0-4.328-2.609-8.202-6.593-9.858s-8.578-0.734-11.625,2.312L32,315.569l-13.797-13.796c-3.046-3.047-7.64-3.969-11.625-2.312 S0,304.991,0,309.319v63.998v127.996c0,5.891,4.766,10.672,10.656,10.672h117.34h42.655h170.667h42.67h117.325 c5.891,0,10.672-4.781,10.672-10.672V373.317v-63.998C511.985,304.991,509.376,301.117,505.391,299.461z M469.315,335.069 l3.125,3.125c4.156,4.172,10.921,4.172,15.077,0l3.125-3.125v27.577h-21.327V335.069z M397.77,338.194 c4.172,4.172,10.922,4.172,15.094,0l3.124-3.125v27.577h-21.343v-27.577L397.77,338.194z M223.963,405.317h0.016c0,0,0,0,0.016,0 h63.982c0.016,0,0.016,0,0.016,0h0.016h42.64v21.327H181.324v-21.327H223.963z M255.993,369.755l10.656,14.234h-21.328 L255.993,369.755z M181.324,447.987h21.328v42.655h-21.328V447.987z M223.994,447.987h21.328v42.655h-21.328V447.987z M266.649,447.987h21.343v42.655h-21.343V447.987z M309.319,447.987h21.328v42.655h-21.328V447.987z M351.99,291.695l10.656-10.249 l10.671,10.249v17.624v63.998v117.325H351.99v-53.327v-42.67v-85.326V291.695z M255.993,191.995 c-13.578,0-25.468,7.266-31.999,18.125v-18.125H255.993h31.999v18.125C281.446,199.261,269.555,191.995,255.993,191.995z M271.993,229.322c0,8.828-7.188,16-16,16c-8.828,0-16-7.171-16-16c0-8.828,7.172-16,16-16 C264.805,213.323,271.993,220.494,271.993,229.322z M244.447,47.75c3.469-0.5,6.469-2.688,8.031-5.828l3.531-7.172l3.531,7.172 c1.562,3.141,4.562,5.328,8.031,5.828l7.906,1.156l-5.719,5.578c-2.516,2.453-3.656,5.984-3.062,9.437l1.344,7.875l-7.062-3.719 c-3.109-1.641-6.828-1.641-9.937,0l-7.062,3.719l1.344-7.875c0.594-3.453-0.547-6.984-3.062-9.437l-5.718-5.578L244.447,47.75z M234.65,161.043l13.468-67.326l7.89-4.156l7.844,4.125l13.469,67.357v9.609H234.65V161.043z M223.994,248.525 c6.531,10.843,18.421,18.125,31.999,18.125c13.562,0,25.453-7.281,31.999-18.125v50.124h-63.998L223.994,248.525L223.994,248.525z M213.323,319.991h85.326h31.999v63.998h-37.327l-28.671-38.232c-0.016-0.016-0.031-0.031-0.047-0.047l-0.078-0.125 c-0.062-0.078-0.125-0.141-0.172-0.203c-0.156-0.188-0.312-0.375-0.469-0.562c-0.109-0.125-0.234-0.25-0.359-0.359 c-0.125-0.125-0.25-0.25-0.375-0.375c-0.172-0.156-0.359-0.312-0.547-0.453c-0.078-0.062-0.141-0.125-0.219-0.172 c-0.016-0.031-0.031-0.031-0.047-0.047c-0.219-0.156-0.438-0.297-0.656-0.438c-0.078-0.047-0.156-0.109-0.25-0.156 c-0.188-0.109-0.391-0.219-0.594-0.328c-0.109-0.062-0.234-0.125-0.359-0.188c-0.141-0.062-0.281-0.109-0.438-0.172 c-0.172-0.078-0.359-0.156-0.547-0.219c-0.062-0.031-0.141-0.047-0.219-0.078c-0.25-0.078-0.516-0.156-0.781-0.219l0,0 c-0.672-0.156-1.344-0.25-2.016-0.281c-0.094-0.016-0.203,0-0.297,0c-0.234-0.016-0.469-0.016-0.703,0 c-0.234,0-0.484,0.031-0.718,0.062c-0.094,0-0.203,0.016-0.297,0.031c-0.266,0.031-0.516,0.094-0.781,0.156 c-0.078,0-0.156,0.016-0.219,0.031c-0.219,0.062-0.438,0.125-0.656,0.188c-0.109,0.047-0.234,0.062-0.344,0.109 c-0.156,0.062-0.312,0.125-0.484,0.203c-0.156,0.062-0.328,0.125-0.5,0.188c-0.109,0.062-0.219,0.125-0.328,0.188 c-0.203,0.094-0.406,0.203-0.625,0.328c-0.078,0.047-0.156,0.109-0.219,0.141c-0.234,0.156-0.453,0.297-0.672,0.453 c-0.016,0.016-0.031,0.016-0.047,0.047c-0.078,0.047-0.141,0.109-0.203,0.156c-0.203,0.156-0.391,0.312-0.562,0.469 c-0.125,0.125-0.25,0.25-0.375,0.359c-0.125,0.125-0.234,0.25-0.359,0.375c-0.156,0.188-0.312,0.375-0.469,0.562 c-0.047,0.062-0.109,0.125-0.172,0.203l-0.078,0.125c-0.016,0.016-0.031,0.031-0.047,0.047l-28.671,38.232h-37.327V319.99 L213.323,319.991L213.323,319.991z M138.653,291.695l10.671-10.249l10.671,10.249v17.624v85.326v42.67v53.327h-21.342V373.317 v-63.998V291.695z M95.998,335.069l3.109,3.125c4.172,4.172,10.922,4.172,15.093,0l3.125-3.125v27.577H95.998V335.069z M21.328,335.069l3.125,3.125c4.156,4.172,10.921,4.172,15.078,0l3.125-3.125v27.577H21.328V335.069z M21.328,383.989h31.999h31.999 h31.999v106.653H21.328V383.989z M490.642,490.642h-95.997V383.989h31.999h31.999h31.999L490.642,490.642L490.642,490.642z"></path></svg>