<!-- icon666.com - MILLIONS vector ICONS FREE --><svg id="Capa_1" enable-background="new 0 0 512 512" viewBox="0 0 512 512" xmlns="http://www.w3.org/2000/svg"><g><g><path d="m296.608 400.978h72.463s26.587 22.096 37.093 66.578c4.461 18.87-9.918 36.944-29.306 36.944h-37.939z" fill="#617080"></path><path d="m173.081 504.5h-37.939c-19.388 0-33.767-18.074-29.306-36.944 10.506-44.482 37.093-66.578 37.093-66.578h72.463z" fill="#4a5561"></path><path d="m343.042 477.982c0 9.251-1.444 18.153-4.122 26.518h-165.839c-2.679-8.365-4.122-17.267-4.122-26.518 0-33.399 18.82-62.416 46.433-77.004h81.216c27.613 14.588 46.434 43.606 46.434 77.004z" fill="#e4e3f5"></path><path d="m220.009 424.487c0-8.009.671-15.86 1.941-23.509h-6.559c-27.613 14.588-46.433 43.605-46.433 77.004 0 9.25 1.444 18.153 4.123 26.518h71.498c-15.505-22.811-24.57-50.353-24.57-80.013z" fill="#c9c9f5"></path><path d="m381.076 378.357-16.874-24.091h-216.404l-16.874 24.091c-13.354 19.065-6.228 45.474 14.812 55.43 33.544 15.872 71.127 24.279 110.265 24.279s76.721-8.407 110.265-24.279c21.039-9.955 28.164-36.365 14.81-55.43z" fill="#fd869c"></path><path d="m38.185 225.315c0-58.181 22.657-112.879 63.796-154.019s95.838-63.796 154.019-63.796 112.879 22.657 154.019 63.796c41.139 41.14 63.796 95.838 63.796 154.019z" fill="#71d1b0"></path><path d="m163.405 221.805c0-90.104 47.912-169.015 119.649-212.651-8.907-1.097-17.938-1.654-27.054-1.654-58.18 0-112.879 22.657-154.019 63.796-41.14 41.14-63.796 95.838-63.796 154.019h125.265c-.016-1.17-.045-2.337-.045-3.51z" fill="#32c291"></path><circle cx="86.978" cy="225.315" fill="#fd768d" r="78.58"></circle><circle cx="425.022" cy="225.315" fill="#fd869c" r="78.58"></circle><path d="m220.009 424.487c0-25.533 6.721-49.494 18.481-70.221h-90.692l-16.875 24.091c-13.354 19.065-6.228 45.475 14.812 55.431 24.146 11.425 50.391 18.958 77.795 22.296-2.3-10.164-3.521-20.737-3.521-31.597z" fill="#fd768d"></path><path d="m429.008 225.312c0 54.609-25.293 100.047-64.806 128.954-29.635 21.698-67.255 34.096-108.202 34.096s-78.567-12.398-108.202-34.096c-39.513-28.908-64.806-74.345-64.806-128.954 0-95.546 77.462-172.998 173.008-172.998s173.008 77.452 173.008 172.998z" fill="#617080"></path><path d="m163.405 221.805c0-64.385 24.464-123.056 64.604-167.225-82.234 13.379-145.017 84.717-145.017 170.732 0 54.609 25.293 100.047 64.806 128.955 22.051 16.145 48.525 27.136 77.499 31.706-38.52-43.804-61.892-101.253-61.892-164.168z" fill="#4a5561"></path><path d="m362.181 153.564c-16.983-25.047-49.41-34.45-77.268-22.631-18.478 7.839-39.346 7.839-57.824 0-27.859-11.819-60.286-2.416-77.269 22.631-13.891 20.487-22.014 45.188-22.014 71.751 0 33.4 12.521 62.58 36.209 84.385 23.716 21.829 56.383 33.852 91.985 33.852s68.27-12.022 91.986-33.852c23.688-21.805 36.209-50.984 36.209-84.385 0-26.564-8.123-51.264-22.014-71.751z" fill="#e4e3f5"></path><path d="m299.541 249.402c.129 1.341.193 2.703.193 4.075 0 24.162-19.583 33.009-43.734 33.009s-43.734-8.848-43.734-33.009c0-1.373.064-2.735.193-4.075z" fill="#f7b267"></path><path d="m299.541 249.402c-12.59 4.15-27.518 5.984-43.541 5.984s-30.95-1.834-43.541-5.984c2.048-22.242 20.762-39.658 43.541-39.658s41.492 17.416 43.541 39.658z" fill="#f5c372"></path><path d="m163.405 221.805c0-32.624 6.292-63.775 17.71-92.321-12.4 4.358-23.484 12.559-31.296 24.081-13.891 20.487-22.013 45.188-22.013 71.751 0 33.4 12.521 62.58 36.209 84.385 6.707 6.173 14.13 11.561 22.133 16.115-14.591-31.649-22.743-66.876-22.743-104.011z" fill="#c9c9f5"></path><g><g><g><ellipse cx="174.322" cy="239.726" fill="#fd869c" rx="30.138" ry="24"></ellipse></g><g><ellipse cx="337.678" cy="239.726" fill="#fd869c" rx="30.138" ry="24"></ellipse></g></g></g></g><g><path d="m368.389 149.354c-18.913-27.892-55.251-38.543-86.406-25.327-16.513 7.005-35.454 7.005-51.966 0-31.155-13.217-67.494-2.565-86.405 25.327-15.247 22.487-23.306 48.753-23.306 75.96 0 75.534 61.486 125.737 135.694 125.737 32.153 0 61.794-9.185 85.72-26.562 3.352-2.434 4.095-7.125 1.661-10.476s-7.125-4.095-10.476-1.661c-21.347 15.504-47.94 23.699-76.906 23.699-65.7 0-120.694-43.39-120.694-110.737 0-24.193 7.166-47.549 20.721-67.542 14.901-21.978 43.557-30.362 68.132-19.936 20.235 8.584 43.447 8.584 63.683 0 24.574-10.426 53.229-2.042 68.132 19.936 13.556 19.993 20.721 43.348 20.721 67.542 0 26.001-8.261 49.677-23.89 68.467-2.649 3.184-2.214 7.913.97 10.562 3.184 2.648 7.912 2.215 10.562-.97 17.897-21.518 27.358-48.51 27.358-78.059.001-27.207-8.058-53.473-23.305-75.96z"></path><path d="m184.386 204.303v12.32c0 4.142 3.358 7.5 7.5 7.5s7.5-3.358 7.5-7.5v-12.32c0-4.143-3.358-7.5-7.5-7.5s-7.5 3.357-7.5 7.5z"></path><path d="m312.615 204.303v12.32c0 4.142 3.358 7.5 7.5 7.5s7.5-3.358 7.5-7.5v-12.32c0-4.143-3.358-7.5-7.5-7.5s-7.5 3.357-7.5 7.5z"></path><path d="m98.206 310.636c10.153 17.292 23.344 32.445 39.332 45.205l-12.757 18.213c-7.605 10.858-10.021 24.433-6.628 37.245.477 1.802 1.073 3.556 1.758 5.265-7.352 10.921-16.233 27.501-21.374 49.267-5.57 23.559 12.35 46.169 36.605 46.169h241.717c24.3 0 42.164-22.655 36.605-46.169v.001c-5.141-21.768-14.023-38.348-21.375-49.269.685-1.708 1.281-3.462 1.758-5.265 3.393-12.812.977-26.386-6.628-37.244l-12.757-18.213c15.989-12.761 29.18-27.914 39.332-45.205 51.789 6.799 97.307-33.658 97.307-85.321 0-31.446-16.958-58.995-42.201-74.017-11.149-32.183-29.151-60.877-53.578-85.305-42.556-42.556-99.138-65.993-159.322-65.993-35.909 0-70.157 8.139-101.793 24.189-3.694 1.874-5.169 6.388-3.295 10.082 1.875 3.694 6.389 5.168 10.082 3.295 29.513-14.974 61.477-22.566 95.006-22.566 56.177 0 108.992 21.876 148.716 61.6 19.361 19.362 34.41 41.576 44.878 66.214-10.849-3.227-22.658-4.393-34.589-2.984-31.148-57.839-91.721-95.017-159.005-95.017-67.316 0-127.87 37.204-159.006 95.016-11.157-1.317-22.949-.471-34.588 2.983 10.469-24.638 25.518-46.852 44.879-66.213 8.688-8.688 18.152-16.649 28.127-23.66 3.389-2.382 4.206-7.06 1.824-10.449s-7.061-4.205-10.449-1.824c-10.681 7.507-20.811 16.028-30.109 25.326-24.427 24.428-42.428 53.122-53.578 85.306-25.243 15.021-42.202 42.57-42.202 74.017 0 51.603 45.459 92.128 97.308 85.321zm36.936 186.364c-14.551 0-25.356-13.555-22.007-27.72 3.824-16.19 9.924-29.175 15.646-38.726 8.936 9.583 23.174 14.671 36.855 19.556-4.665 15.131-5.402 31.5-2.258 46.89zm120.858-31.434c25.854 0 51.545-3.609 76.083-10.814 4.047 13.236 4.686 27.865 1.156 42.248h-154.478c-3.441-14.021-2.99-28.69 1.156-42.248 25.054 7.357 50.784 10.814 76.083 10.814zm142.866 3.715c3.341 14.131-7.422 27.719-22.007 27.719h-28.236c3.283-16.069 2.215-32.388-2.258-46.89 4.131-1.472 9.617-3.607 14.612-5.742 9.058-3.873 15.608-6.696 22.243-13.814 5.721 9.551 11.822 22.536 15.646 38.726-.001 0 0 .001 0 .001zm-19.519-61.823c-3.836 14.486-16.416 19.639-16.316 19.561-3.896 1.844-6.284 2.846-8.296 3.704-31.166 13.264-64.989 19.844-98.735 19.844-25.074 0-50.701-3.638-75.726-11.39-20.502-6.363-42.554-12.582-47.621-31.718-2.259-8.53-.65-17.568 4.414-24.798l12.575-17.953c30.568 20.413 67.251 31.155 106.358 31.155 37.582 0 74.596-9.948 106.358-31.155l12.575 17.953c5.065 7.229 6.674 16.267 4.414 24.797zm-19.575-59.244c-29.17 21.358-65.054 32.647-103.771 32.647-37.551 0-73.714-10.653-103.771-32.647 0 0 0 0-.001 0-1.187-1.386-61.736-39.885-61.736-122.902 0-91.957 75.002-165.498 165.508-165.498 91.209 0 165.508 74.185 165.508 165.498-.001 50.799-22.962 94.534-61.737 122.902zm136.33-122.9c0 40.84-34.412 73.134-74.814 70.981 9.966-21.544 15.22-45.721 15.22-70.984 0-24.746-4.877-48.583-14.512-71.007 40.391-1.772 74.106 30.739 74.106 71.01zm-406.098-71.009c-9.635 22.424-14.512 46.261-14.512 71.007 0 25.423 5.304 49.547 15.22 70.984-40.474 2.157-74.814-30.221-74.814-70.981 0-40.339 33.792-72.78 74.106-71.01z"></path><path d="m307.007 248.697c0-.004 0-.009-.001-.013 0-.005-.002-.01-.002-.015-2.461-26.47-24.379-46.425-51.004-46.425s-48.543 19.956-51.004 46.425c0 .005-.002.01-.002.015 0 .004 0 .009-.001.013 0 .006-.001.011-.002.017-.001.011-.001.022-.002.034-2.9 30.545 19.196 45.239 51.01 45.239 31.817 0 53.907-14.694 51.01-45.239-.001-.011-.001-.022-.002-.034.002-.006.001-.011 0-.017zm-51.007-31.454c16.758 0 30.88 11.173 35.01 26.821-11.034 2.821-23.61 3.821-35.01 3.821-11.409 0-24.04-1.016-35.01-3.821 4.13-15.647 18.252-26.821 35.01-26.821zm0 61.743c-21.096 0-33.067-6.607-35.685-19.662 11.423 2.567 23.791 3.557 35.637 3.561h.048s.032 0 .048 0c12.011-.004 24.053-.996 35.636-3.561-2.617 13.055-14.588 19.662-35.684 19.662z"></path></g></g></svg>