<!-- icon666.com - MILLIONS vector ICONS FREE --><svg id="Capa_1" enable-background="new 0 0 511.368 511.368" viewBox="0 0 511.368 511.368" xmlns="http://www.w3.org/2000/svg"><g><ellipse cx="104.855" cy="248.846" fill="#f6334c" rx="37.634" ry="37.634" transform="matrix(.906 -.424 .424 .906 -95.685 68.007)"></ellipse><ellipse cx="180.124" cy="248.846" fill="#e92740" rx="37.634" ry="37.634" transform="matrix(.541 -.841 .841 .541 -126.606 265.75)"></ellipse><ellipse cx="405.947" cy="248.846" fill="#f6334c" rx="37.634" ry="37.634" transform="matrix(.424 -.906 .906 .424 8.359 510.841)"></ellipse><ellipse cx="330.678" cy="248.846" fill="#e92740" rx="37.634" ry="37.634" transform="matrix(.841 -.541 .541 .841 -82.052 218.403)"></ellipse><ellipse cx="255.409" cy="248.846" fill="#f6334c" rx="37.634" ry="37.634" transform="matrix(.424 -.906 .906 .424 -78.301 374.528)"></ellipse><ellipse cx="67.294" cy="278.964" fill="#ff6e80" rx="37.634" ry="37.634" transform="matrix(.991 -.134 .134 .991 -36.635 11.479)"></ellipse><circle cx="142.562" cy="278.964" fill="#f9475e" r="37.634"></circle><circle cx="217.831" cy="278.964" fill="#ff6e80" r="37.634"></circle><ellipse cx="443.654" cy="278.964" fill="#f9475e" rx="37.634" ry="37.634" transform="matrix(.134 -.991 .991 .134 107.966 681.41)"></ellipse><circle cx="368.385" cy="278.964" fill="#ff6e80" r="37.634"></circle><circle cx="293.116" cy="278.964" fill="#f9475e" r="37.634"></circle><path d="m466.294 316.611v165.65h-240.19c-106.78-68.56-28.48-165.65-28.48-165.65z" fill="#93bce8"></path><g fill="#68a2df"><path d="m226.104 482.261h-181.45v-165.65h152.97c-9.8 45.83-13.71 113.73 28.48 165.65z"></path><path d="m488.884 474.731c0 6.24-2.53 11.89-6.61 15.98-4.09 4.08-9.74 6.61-15.98 6.61h-255.71c-43.99-22.07-1.62-45.18-1.62-45.18h257.33c12.48 0 22.59 10.12 22.59 22.59z"></path><path d="m488.884 309.091c0 6.24-2.53 11.88-6.61 15.97-4.09 4.08-9.74 6.61-15.98 6.61h-268.13c-39.85-20.19-1.77-45.17-1.77-45.17h269.9c12.48 0 22.59 10.11 22.59 22.59z"></path></g><ellipse cx="172.061" cy="398.162" fill="#fff" rx="23.515" ry="29.529" transform="matrix(.002 -1 1 .002 -226.477 569.351)"></ellipse><ellipse cx="332.117" cy="398.512" fill="#fff" rx="23.515" ry="29.529" transform="matrix(.002 -1 1 .002 -67.121 729.756)"></ellipse><ellipse cx="151.722" cy="51.692" fill="#f6334c" rx="37.634" ry="37.634" transform="matrix(.421 -.907 .907 .421 40.953 167.545)"></ellipse><ellipse cx="77.142" cy="61.965" fill="#f6334c" rx="37.634" ry="37.634" transform="matrix(.707 -.707 .707 .707 -21.222 72.697)"></ellipse><circle cx="46.294" cy="89.016" fill="#ff6e80" r="37.634"></circle><ellipse cx="120.858" cy="78.745" fill="#f9475e" rx="37.634" ry="37.634" transform="matrix(.61 -.793 .793 .61 -15.255 126.503)"></ellipse><ellipse cx="195.439" cy="68.471" fill="#ff6e80" rx="37.634" ry="37.634" transform="matrix(.145 -.989 .989 .145 99.322 251.901)"></ellipse><path d="m484.534 72.503-256.406 36.473-6.362-44.726 256.406-36.473c12.351-1.757 23.787 6.831 25.544 19.182 1.757 12.35-6.831 23.787-19.182 25.544z" fill="#eaaa83"></path><path d="m264.485 119.016-47.999 6.828-8.483-59.635 60.716-8.637 13.395 41.906c2.766 8.649-5.503 17.813-17.629 19.538z" fill="#df8a57"></path><path d="m236.364 89.211c0 40.15-29.21 75.28-69.85 81.75-111.03-26.64-39.11-93.29-39.11-93.29l91.15-12.97c8.21-1.16 15.8 4.54 16.97 12.74.56 3.96.84 7.88.84 11.77z" fill="#eaaa83"></path><path d="m166.514 170.961c-.46.07-.92.14-1.38.21l-63.83 9.08c-45.32 6.45-87.29-25.07-93.73-70.39-.1-.72-.15-1.43-.15-2.14 0-7.34 5.4-13.75 12.89-14.82l107.09-15.23c-4.46 25.67-2.38 64.76 39.11 93.29z" fill="#df8a57"></path><path d="m198.164 331.671h-153.51c-12.48 0-22.59-10.11-22.59-22.58 0-6.24 2.53-11.89 6.61-15.98 4.09-4.08 9.74-6.61 15.98-6.61h151.74c-3.95 11.63-7.4 29.82 1.77 45.17z" fill="#4f96d9"></path><path d="m210.584 497.321h-165.93c-12.48 0-22.59-10.11-22.59-22.59 0-6.24 2.53-11.88 6.61-15.97 4.09-4.09 9.74-6.62 15.98-6.62h164.31c-3.61 12.52-5.9 29.86 1.62 45.18z" fill="#4f96d9"></path></g><g><path d="m487.923 288.104c5.364-25.985-12.682-51.041-39.24-53.993-12.261-35.547-59.734-41.078-80.317-10.213-17.828-26.864-57.342-26.937-75.236.037-17.785-26.85-57.405-27.073-75.295-.002-17.887-26.956-57.429-26.936-75.269.001-20.704-31.207-68.156-25.074-80.3 10.194-26.521 3.053-44.428 28.076-39.083 53.974-16.253 16.695-8.07 44.422 14.05 50.114v107.361c-12.976 3.34-22.592 15.14-22.592 29.143 0 16.591 13.498 30.088 30.088 30.088h82.866c4.142 0 7.5-3.358 7.5-7.5s-3.358-7.5-7.5-7.5h-82.866c-8.319 0-15.088-6.769-15.088-15.088s6.768-15.088 15.088-15.088h421.647c8.32 0 15.089 6.769 15.089 15.088s-6.769 15.088-15.089 15.088h-308.852c-4.142 0-7.5 3.358-7.5 7.5s3.358 7.5 7.5 7.5h308.852c16.591 0 30.089-13.498 30.089-30.088 0-14.003-9.616-25.803-22.592-29.143v-107.359c22.119-5.693 30.304-33.42 14.05-50.114zm-14.054-8.172c-2.396-.616-4.907-.945-7.493-.945h-52.781c-.261-40.439 61.712-39.605 60.274.945zm-361.354-.945c.094-40.269 60.784-39.464 60.258 0zm75.27 0c.092-39.805 60.183-40.543 60.263 0zm75.272 0c.158-40.424 60.103-39.941 60.252 0zm75.272 0c0-40.206 60.08-40.092 60.249 0zm94.529-43.83c-10.807 2.688-20.354 9.294-26.75 18.883-6.099-9.269-15.55-16.153-26.965-18.926 10.995-21.45 42.368-22.203 53.715.043zm-75.27-.001c-10.722 2.667-20.325 9.225-26.789 18.951-6.076-9.191-15.476-16.186-26.877-18.977 11.16-21.833 42.485-21.895 53.666.026zm-75.263-.006c-10.674 2.651-20.269 9.164-26.772 18.958-6.559-9.879-16.236-16.376-26.9-18.992 10.996-21.597 42.387-22.068 53.672.034zm-75.268.006c-11.341 2.799-20.749 9.651-26.822 18.833-6.398-9.578-15.988-16.2-26.852-18.866 11.237-21.959 42.564-21.761 53.674.033zm-75.27 0c-11.341 2.799-20.748 9.651-26.821 18.834-6.396-9.578-15.989-16.202-26.853-18.868 11.23-21.958 42.564-21.76 53.674.034zm-34.284 43.831h-52.774c-2.586 0-5.096.328-7.492.945-1.452-40.962 60.794-40.672 60.266-.945zm-67.862 30.088c0-8.32 6.768-15.088 15.088-15.088h421.647c8.32 0 15.089 6.769 15.089 15.088 0 7.85-6.105 14.919-15.169 15.088h-74.983c-4.143 0-7.5 3.358-7.5 7.5s3.357 7.5 7.5 7.5h67.56v105.47h-406.64v-105.47h308.397c4.143 0 7.5-3.358 7.5-7.5s-3.357-7.5-7.5-7.5c-20.276 0-302.123-.004-315.897-.004-8.411.001-15.092-6.847-15.092-15.084z"></path><path d="m189.633 361.136c-4.142 0-7.5 3.358-7.5 7.5v12c0 4.142 3.358 7.5 7.5 7.5s7.5-3.358 7.5-7.5v-12c0-4.142-3.358-7.5-7.5-7.5z"></path><path d="m314.53 361.136c-4.143 0-7.5 3.358-7.5 7.5v12c0 4.142 3.357 7.5 7.5 7.5s7.5-3.358 7.5-7.5v-12c0-4.142-3.357-7.5-7.5-7.5z"></path><path d="m281.175 380.291c-4.143 0-7.5 3.358-7.5 7.5 0 3.835-3.12 6.956-6.955 6.956s-6.955-3.12-6.955-6.956c0-3.883-2.952-7.077-6.734-7.461-4.456-.449-8.267 3.042-8.267 7.461 0 3.835-3.12 6.956-6.956 6.956-3.835 0-6.956-3.12-6.956-6.956 0-4.142-3.358-7.5-7.5-7.5s-7.5 3.358-7.5 7.5c0 12.106 9.849 21.956 21.956 21.956 5.533 0 10.59-2.062 14.456-5.451 3.865 3.39 8.923 5.451 14.456 5.451 12.106 0 21.955-9.849 21.955-21.956 0-4.143-3.358-7.5-7.5-7.5z"></path><path d="m477.197 20.345-238.84 33.967c-7.117-21.535-28.998-34.237-50.874-30.27-20.431-26.471-61.774-22.183-76.36 8.109-22.169-25.295-63.31-18.174-75.815 13.109-23.688 5.996-37.903 29.709-33.123 52.839-1.838 3.857-2.605 8.274-1.959 12.812 6.408 45.046 45.174 77.661 89.421 77.661 8.597 0 7.125-.103 76.625-9.989 29.968-4.263 54.433-22.853 67.454-47.847 1.266.135-1.103.388 37.203-5.061 9.32-1.326 17.009-8.376 18.895-17.909l195.849-27.852c39.599-5.656 30.809-65.166-8.476-59.569zm-253.683 36.871c-5.323-.661-4.316.088-57.904 7.442 3.878-30.981 46.518-35.84 57.904-7.442zm-132.54 18.059c3.386-30.64 45.858-36.602 57.75-8.215zm81.432-45.592c-7.725 4.589-13.798 11.322-17.595 19.223-7.268-8.238-17-13.331-27.451-14.826 10.735-14.878 31.923-16.712 45.046-4.397zm-74.522 10.325c-7.705 4.63-13.771 11.364-17.581 19.225-7.197-8.172-16.973-13.388-27.503-14.904 10.691-14.781 31.87-16.789 45.084-4.321zm-23.589 37.64c-60.021 8.538-55.766 7.844-57.897 8.443 3.149-31.495 46.25-37.244 57.897-8.443zm89.864 86.085-63.836 9.081c-41.246 5.866-79.379-22.761-85.247-64.015-.584-4.104 2.265-7.897 6.369-8.481 403.822-57.444-62.936 8.953 198.247-28.2 4.085-.582 7.898 2.268 8.482 6.369 5.867 41.245-22.763 79.378-64.015 85.246zm104.657-52.908-28.661 4.077c3.824-12.766 6.009-35.314.536-45.771l24.571-3.494 9.732 35.792c1.169 4.299-1.645 8.751-6.178 9.396zm214.741-45.761-195.35 27.782-7.978-29.338 199.083-28.313c19.774-2.813 24.003 27.047 4.245 29.869z"></path></g></svg>