<!-- icon666.com - MILLIONS vector ICONS FREE --><svg version="1.1" id="Capa_1" xmlns="http://www.w3.org/2000/svg" xmlns:xlink="http://www.w3.org/1999/xlink" x="0px" y="0px" viewBox="0 0 464 464" style="enable-background:new 0 0 464 464;" xml:space="preserve"><g><path style="fill:#CCCCCC;" d="M125.976,269c7.98-7.59,17.21-14.91,29.34-19.91c9.07-3.73,16.84-4.74,23.4-4.12 c5.8,0.54,10.67,2.35,14.65,4.65c8.22,4.75,12.97,13.59,12.95,22.84c0,2.01-0.23,4.05-0.7,6.06 c-4.63,19.89-14.25,32.43-26.41,39.59c-30.59,18.01-77.33,2.04-101.69-16.42C98.206,301.69,109.426,284.75,125.976,269z"></path><path style="fill:#CCCCCC;" d="M286.656,269c16.55,15.75,27.77,32.69,48.47,32.69c-24.63,18.66-72.13,34.78-102.69,15.81 c-11.69-7.25-20.9-19.64-25.41-38.97c-0.47-2.02-0.7-4.05-0.7-6.07c0-9.55,5.14-18.61,13.79-23.32c3.83-2.08,8.41-3.67,13.8-4.17 c6.57-0.62,14.34,0.39,23.4,4.12C269.446,254.09,278.676,261.41,286.656,269z"></path><path style="fill:#F2F2F2;" d="M344.376,205.97l12.57,66.05c17.97,94.47-54.46,181.98-150.63,181.98 c-43.11,0-81.46-17.59-109.02-45.51c-33.92-34.35-51.52-84.35-41.6-136.47l19.87-104.43l0.18-0.14 c5.17,6.49,13.68,10.11,22.57,8.37v33.12c0,24.03,10.73,45.57,27.66,60.06c-16.55,15.75-27.77,32.69-48.46,32.69 c24.36,18.46,71.1,34.43,101.69,16.42l2.36,0.66c13.67,13.67,35.83,13.67,49.5,0l1.37-1.27c30.56,18.97,78.06,2.85,102.69-15.81 c-20.7,0-31.92-16.94-48.47-32.69c16.93-14.49,27.66-36.03,27.66-60.06v-33.12c8.89,1.74,17.41-1.88,22.58-8.38l0.18,0.15 L344.376,205.97z"></path><path style="fill:#66D7FF;" d="M311.756,71.9c3.21,0.56,6.43,1.15,9.64,1.76c10.5,2,18.22,10.94,18.82,21.61 c0.67,11.76,1.14,23.5,1.43,35.22c0.19,7.44,0.3,14.86,0.33,22.28c0.03,5.6-1.89,10.68-5.08,14.67 c-5.17,6.5-13.69,10.12-22.58,8.38c-0.15-0.02-0.29-0.05-0.44-0.08c-70.9-15.2-144.22-15.2-215.11,0c-0.15,0.03-0.3,0.06-0.45,0.08 c-8.89,1.74-17.4-1.88-22.57-8.37c-3.19-4-5.12-9.08-5.09-14.68c0.09-19.11,0.68-38.29,1.76-57.5 c0.61-10.67,8.33-19.61,18.82-21.61c3.21-0.61,6.42-1.2,9.64-1.75C170.646,59.76,241.986,59.76,311.756,71.9z"></path><path style="fill:#66D7FF;" d="M375.226,123.72c20.43,4.03,35.83,22.05,35.83,43.65c0,24.58-19.92,44.5-44.5,44.5 c-8.08,0-15.65-2.15-22.18-5.9l-7.3-38.38l-0.18-0.15c3.19-3.99,5.11-9.07,5.08-14.67c-0.03-7.42-0.14-14.84-0.33-22.28 c7.11-4.81,15.68-7.62,24.91-7.62c2.97,0,5.87,0.29,8.67,0.84V123.72z"></path><path style="fill:#F93E3E;" d="M207.026,278.53c4.51,19.33,13.72,31.72,25.41,38.97l-1.37,1.27c-13.67,13.67-35.83,13.67-49.5,0 l-2.36-0.66c12.16-7.16,21.78-19.7,26.41-39.59c0.47-2.01,0.7-4.05,0.7-6.06h0.01C206.326,274.48,206.556,276.51,207.026,278.53z"></path><path style="fill:#F93E3E;" d="M220.116,249.14c-8.65,4.71-13.79,13.77-13.79,23.32h-0.01c0.02-9.25-4.73-18.09-12.95-22.84 c-3.98-2.3-8.85-4.11-14.65-4.65l0.01-0.16c-0.92-2.82-1.41-5.82-1.41-8.94c0-16.01,12.98-29,29-29s29,12.99,29,29 c0,3.12-0.49,6.13-1.41,8.95l0.01,0.15C228.526,245.47,223.946,247.06,220.116,249.14z"></path><path style="fill:#F9BDE8;" d="M314.316,175.82v33.12c0,24.03-10.73,45.57-27.66,60.06c-7.98-7.59-17.21-14.91-29.34-19.91 c-9.06-3.73-16.83-4.74-23.4-4.12l-0.01-0.15c0.92-2.82,1.41-5.83,1.41-8.95c0-16.01-12.98-29-29-29s-29,12.99-29,29 c0,3.12,0.49,6.12,1.41,8.94l-0.01,0.16c-6.56-0.62-14.33,0.39-23.4,4.12c-12.13,5-21.36,12.32-29.34,19.91 c-16.93-14.49-27.66-36.03-27.66-60.06v-33.12c0.15-0.02,0.3-0.05,0.45-0.08c70.89-15.2,144.21-15.2,215.11,0 C314.026,175.77,314.166,175.8,314.316,175.82z"></path><path style="fill:#F93E3E;" d="M375.226,123.71c-2.8-0.55-5.7-0.84-8.67-0.84c-9.23,0-17.8,2.81-24.91,7.62 c-0.29-11.72-0.76-23.46-1.43-35.22c-0.6-10.67-8.32-19.61-18.82-21.61c-3.21-0.61-6.43-1.2-9.64-1.76 c-8.64-28.06-30.46-49.32-57.41-57.83C321.326,14.07,375.216,49.44,375.226,123.71z"></path><path style="fill:#F93E3E;" d="M254.346,14.07c26.95,8.51,48.77,29.77,57.41,57.83c-69.77-12.14-141.11-12.14-210.88,0.01 c11.32-36.8,45.32-61.91,83.82-61.91h43.24C237.076,10,245.956,11.42,254.346,14.07z"></path><path style="fill:none;stroke:#000000;stroke-width:20;stroke-linejoin:round;stroke-miterlimit:10;" d="M231.066,318.77 c-13.67,13.67-35.83,13.67-49.5,0"></path><line style="fill:none;stroke:#000000;stroke-width:20;stroke-linecap:round;stroke-linejoin:round;stroke-miterlimit:10;" x1="147.266" y1="197.49" x2="147.266" y2="214.45"></line><line style="fill:none;stroke:#000000;stroke-width:20;stroke-linecap:round;stroke-linejoin:round;stroke-miterlimit:10;" x1="265.366" y1="197.49" x2="265.366" y2="214.45"></line><path style="fill:none;stroke:#000000;stroke-width:20;stroke-linejoin:round;stroke-miterlimit:10;" d="M179.206,318.11 c12.16-7.16,21.78-19.7,26.41-39.59c0.47-2.01,0.7-4.05,0.7-6.06c0.02-9.25-4.73-18.09-12.95-22.84c-3.98-2.3-8.85-4.11-14.65-4.65 c-6.56-0.62-14.33,0.39-23.4,4.12c-12.13,5-21.36,12.32-29.34,19.91c-16.55,15.75-27.77,32.69-48.46,32.69 C101.876,320.15,148.616,336.12,179.206,318.11z"></path><path style="fill:none;stroke:#000000;stroke-width:20;stroke-linejoin:round;stroke-miterlimit:10;" d="M232.436,317.5 c-11.69-7.25-20.9-19.64-25.41-38.97c-0.47-2.02-0.7-4.05-0.7-6.07c0-9.55,5.14-18.61,13.79-23.32c3.83-2.08,8.41-3.67,13.8-4.17 c6.57-0.62,14.34,0.39,23.4,4.12c12.13,5,21.36,12.32,29.34,19.91c16.55,15.75,27.77,32.69,48.47,32.69 C310.496,320.35,262.996,336.47,232.436,317.5z"></path><path style="fill:none;stroke:#000000;stroke-width:20;stroke-linejoin:round;stroke-miterlimit:10;" d="M341.646,130.49 c-0.29-11.72-0.76-23.46-1.43-35.22c-0.6-10.67-8.32-19.61-18.82-21.61c-3.21-0.61-6.43-1.2-9.64-1.76 c-69.77-12.14-141.11-12.14-210.88,0.01c-3.22,0.55-6.43,1.14-9.64,1.75c-10.49,2-18.21,10.94-18.82,21.61 c-1.08,19.21-1.67,38.39-1.76,57.5c-0.03,5.6,1.9,10.68,5.09,14.68c5.17,6.49,13.68,10.11,22.57,8.37c0.15-0.02,0.3-0.05,0.45-0.08 c70.89-15.2,144.21-15.2,215.11,0c0.15,0.03,0.29,0.06,0.44,0.08c8.89,1.74,17.41-1.88,22.58-8.38c3.19-3.99,5.11-9.07,5.08-14.67 C341.946,145.35,341.836,137.93,341.646,130.49z"></path><path style="fill:none;stroke:#000000;stroke-width:20;stroke-linejoin:round;stroke-miterlimit:10;" d="M311.756,71.91V71.9 c-8.64-28.06-30.46-49.32-57.41-57.83c-8.39-2.65-17.27-4.07-26.41-4.07h-43.24c-38.5,0-72.5,25.11-83.82,61.91"></path><path style="fill:none;stroke:#000000;stroke-width:20;stroke-linejoin:round;stroke-miterlimit:10;" d="M375.226,123.71 c-0.01-74.27-53.9-109.64-120.88-109.64"></path><path style="fill:none;stroke:#000000;stroke-width:20;stroke-linejoin:round;stroke-miterlimit:10;" d="M98.316,175.82v33.12 c0,24.03,10.73,45.57,27.66,60.06c0.87,0.75,1.76,1.47,2.66,2.18"></path><path style="fill:none;stroke:#000000;stroke-width:20;stroke-linejoin:round;stroke-miterlimit:10;" d="M314.316,175.82v33.12 c0,24.03-10.73,45.57-27.66,60.06c-0.87,0.75-1.76,1.47-2.66,2.18"></path><path style="fill:none;stroke:#000000;stroke-width:20;stroke-linejoin:round;stroke-miterlimit:10;" d="M337.076,167.59l7.3,38.38 l12.57,66.05c17.97,94.47-54.46,181.98-150.63,181.98c-43.11,0-81.46-17.59-109.02-45.51c-33.92-34.35-51.52-84.35-41.6-136.47 l19.87-104.43"></path><path style="fill:none;stroke:#000000;stroke-width:20;stroke-linejoin:round;stroke-miterlimit:10;" d="M178.726,244.81 c-0.92-2.82-1.41-5.82-1.41-8.94c0-16.01,12.98-29,29-29s29,12.99,29,29c0,3.12-0.49,6.13-1.41,8.95"></path><path style="fill:none;stroke:#000000;stroke-width:20;stroke-linejoin:round;stroke-miterlimit:10;" d="M341.646,130.49 c7.11-4.81,15.68-7.62,24.91-7.62c2.97,0,5.87,0.29,8.67,0.84v0.01c20.43,4.03,35.83,22.05,35.83,43.65 c0,24.58-19.92,44.5-44.5,44.5c-8.08,0-15.65-2.15-22.18-5.9c0-0.01-0.01-0.01-0.01-0.01"></path><line style="fill:none;stroke:#FFFFFF;stroke-width:20;stroke-linecap:round;stroke-linejoin:round;stroke-miterlimit:10;" x1="314.866" y1="122.97" x2="316.366" y2="151"></line><line style="fill:none;stroke:#FFFFFF;stroke-width:20;stroke-linecap:round;stroke-linejoin:round;stroke-miterlimit:10;" x1="313.366" y1="95" x2="313.686" y2="100.93"></line></g></svg>