<!-- icon666.com - MILLIONS vector ICONS FREE --><svg id="Capa_1" enable-background="new 0 0 512 512" viewBox="0 0 512 512" xmlns="http://www.w3.org/2000/svg"><g><g><path d="m405.4 461.694c-17.017-44.562-55.713-67.491-55.713-67.491h-187.373s-38.696 22.929-55.713 67.491c-7.891 20.665 7.575 42.806 29.696 42.806h80.886l38.817-21.763 38.818 21.762h80.886c22.121.001 37.587-22.14 29.696-42.805z" fill="#5877cd"></path><path d="m250.723 485.696c-14.193-19.442-22.575-43.395-22.575-69.309 0-7.585.726-14.999 2.097-22.185h-67.931s-38.696 22.929-55.713 67.491c-7.891 20.665 7.575 42.806 29.696 42.806h80.886z" fill="#385ac0"></path><path d="m410.036 349.706c0 38.724-24.548 73.192-61.144 85.852l-6.6 2.283c-28.414 9.83-47.474 36.591-47.474 66.658h-77.636c0-30.067-19.059-56.828-47.474-66.658l-6.6-2.283c-36.596-12.661-61.144-47.128-61.144-85.852z" fill="#e4e3f5"></path><path d="m291.666 25.804c-8.469-11.327-21.523-18.304-35.666-18.304s-27.197 6.977-35.666 18.304c-20.392 27.273-88.376 33.034-136.59 78.339-83.881 78.819-26.633 219.955 88.469 219.955h167.575c115.102 0 172.35-141.136 88.469-219.955-48.238-45.327-116.178-51.038-136.591-78.339z" fill="#5877cd"></path><path d="m370.03 196.534c-68.971 0-124.883-55.912-124.883-124.883 0-23.239 6.355-44.992 17.412-63.627-2.152-.333-4.34-.524-6.559-.524-14.143 0-27.197 6.977-35.666 18.304-20.392 27.273-88.376 33.034-136.59 78.339-83.881 78.819-26.633 219.955 88.469 219.955h167.574z" fill="#385ac0"></path><path d="m267.832 504.5c-24.338-21.56-39.685-53.042-39.685-88.112 0-24.759 7.652-47.727 20.711-66.681h-146.894c0 38.724 24.548 73.192 61.144 85.852l6.6 2.283c28.414 9.83 47.474 36.591 47.474 66.658z" fill="#c9c9f5"></path><path d="m403.191 230.74c1.95 9.64 2.97 19.61 2.97 29.81 0 82.94-67.23 150.16-150.16 150.16s-150.17-67.22-150.17-150.16c0-10.21 1.02-20.18 2.96-29.81l147.21-77.413z" fill="#fbd7c8"></path><path d="m183.01 279.457c0-34.596 6.759-68.118 19.387-97.942l-93.606 49.225c-1.94 9.63-2.96 19.6-2.96 29.81 0 73.772 53.198 135.105 123.316 147.763-28.827-35.052-46.137-79.931-46.137-128.856z" fill="#fbc5b7"></path><path d="m403.191 230.74c-54.63 13.05-103.18-10.27-128.56-26.43-11.38-7.24-25.88-7.24-37.26 0-25.38 16.16-73.95 39.48-128.58 26.43 13.83-68.67 74.5-120.35 147.21-120.35 72.92 0 133.38 51.86 147.19 120.35z" fill="#f5c372"></path><g><g><g><ellipse cx="178.01" cy="311.56" fill="#fd869c" rx="28.777" ry="22.916"></ellipse></g><g><ellipse cx="333.99" cy="311.56" fill="#fd869c" rx="28.777" ry="22.916"></ellipse></g></g></g><path d="m142.992 354.097-10.613-47.425h-40.314l-10.613 47.425c-2.939 13.135 7.052 25.609 20.512 25.609h20.516c13.46 0 23.452-12.474 20.512-25.609z" fill="#989cdc"></path><path d="m369.008 354.097 10.613-47.425h40.315l10.613 47.425c2.939 13.135-7.052 25.609-20.512 25.609h-20.517c-13.46 0-23.451-12.474-20.512-25.609z" fill="#989cdc"></path><circle cx="112.222" cy="298.231" fill="#e4e3f5" r="28.033"></circle><circle cx="399.778" cy="298.231" fill="#e4e3f5" r="28.033"></circle><path d="m251.707 110.458c-70.794 1.989-129.36 52.969-142.916 120.282 29.067 6.944 56.418 3.59 79.474-3.503 9.462-46.19 31.417-87.57 63.442-116.779z" fill="#f7b267"></path></g><g><path d="m194.781 265.428c-11.688 0-21.197 9.509-21.197 21.197 0 4.142 3.358 7.5 7.5 7.5s7.5-3.358 7.5-7.5c0-3.417 2.78-6.197 6.197-6.197s6.197 2.78 6.197 6.197c0 4.142 3.358 7.5 7.5 7.5s7.5-3.358 7.5-7.5c-.001-11.688-9.509-21.197-21.197-21.197z"></path><path d="m330.914 294.125c4.142 0 7.5-3.358 7.5-7.5 0-11.688-9.509-21.197-21.197-21.197s-21.197 9.509-21.197 21.197c0 4.142 3.358 7.5 7.5 7.5s7.5-3.358 7.5-7.5c0-3.417 2.78-6.197 6.197-6.197s6.197 2.78 6.197 6.197c.001 4.142 3.358 7.5 7.5 7.5z"></path><path d="m275.455 296.98c-3.122-2.721-7.86-2.396-10.581.727-2.241 2.572-5.476 4.047-8.875 4.047s-6.634-1.475-8.875-4.047c-2.722-3.122-7.459-3.447-10.581-.727-3.123 2.722-3.448 7.459-.727 10.581 5.091 5.842 12.447 9.192 20.183 9.192s15.093-3.35 20.183-9.192c2.722-3.122 2.396-7.859-.727-10.581z"></path><path d="m429.929 316.999c3.405-5.45 5.38-11.881 5.38-18.767 0-1.828-.139-3.623-.407-5.377 25.905-25.774 40.717-61.131 40.773-97.701.056-36.623-15.011-71.949-44.796-98.784-25.181-22.682-53.967-35.074-84.241-47.44-21.877-8.935-40.77-16.652-48.967-27.615-21.234-28.398-62.076-28.445-83.345 0-8.197 10.963-27.091 18.681-48.968 27.617-22.593 9.229-48.201 19.689-71.674 37.161-3.323 2.473-4.012 7.171-1.538 10.494 2.473 3.323 7.172 4.012 10.494 1.538 21.949-16.337 46.621-26.415 68.39-35.307 23.944-9.781 44.622-18.227 55.31-32.521 15.263-20.414 44.086-20.372 59.318 0 10.688 14.294 31.366 22.74 55.309 32.519 29.814 12.177 58.225 24.283 82.151 46.794 24.268 22.804 37.606 53.175 37.557 85.52-.046 30.471-11.585 60.004-31.956 82.495-3.666-5.153-9.039-9.57-15.141-12.141.377-11.602-.55-23.927-3.037-36.224v-.001c0-.001 0 0-.001-.005v-.001c-14.665-72.717-78.85-126.36-154.54-126.36-74.812 0-139.814 53.146-154.561 126.368-2.388 11.854-3.415 24.136-3.026 36.228-6.063 2.558-11.431 6.943-15.124 12.125-18.039-20.01-29.409-46.121-31.577-73.074-2.588-32.181 7.96-63.187 29.7-87.306 2.773-3.077 2.527-7.819-.549-10.592-3.077-2.773-7.819-2.527-10.592.549-24.532 27.215-36.432 62.214-33.51 98.551 2.621 32.599 17.26 64.096 40.337 87.108-.268 1.755-.407 3.552-.407 5.382 0 6.886 1.975 13.317 5.38 18.767l-7.935 35.462c-3.983 17.799 9.53 34.708 27.773 34.745 4.992 12.136 12.237 22.963 21.261 32.009-10.27 12.344-18.188 25.703-23.573 39.804-9.751 25.526 9.319 52.981 36.699 52.981h239.406c27.439 0 46.432-27.504 36.702-52.981-5.384-14.1-13.303-27.459-23.574-39.804 9.024-9.046 16.269-19.873 21.261-32.009 18.239-.036 31.757-16.943 27.773-34.745zm-30.153 1.766c-11.263 0-20.533-9.177-20.533-20.533 0-11.322 9.211-20.533 20.533-20.533 11.378 0 20.533 9.297 20.533 20.533 0 11.261-9.171 20.533-20.533 20.533zm-143.776-200.872c66.135 0 122.205 45.137 138.165 107.051-39.913 7.164-81.303-5.172-115.509-26.959-13.762-8.757-31.548-8.757-45.314.001-34.219 21.79-75.267 34.182-115.532 26.958 16.039-62.464 72.997-107.051 138.19-107.051zm-143.778 200.872c-11.185 0-20.533-9.103-20.533-20.533 0-11.199 9.12-20.533 20.533-20.533 11.322 0 20.533 9.211 20.533 20.533 0 11.279-9.197 20.533-20.533 20.533zm-23.451 36.971 5.944-26.562c5.037 2.858 11.198 4.591 17.507 4.591 6.122 0 12.304-1.639 17.507-4.591l3.957 17.684 1.987 8.878c0 .001 0 .002.001.004 1.902 8.536-4.671 16.467-13.194 16.467-6.652 0-14.587 0-20.516 0-8.666.001-15.081-8.031-13.193-16.471zm24.836 108.634c4.769-12.487 11.8-24.364 20.943-35.389 15.293 11.208 28.804 14.358 32.706 15.949 23.413 8.099 39.196 28.832 41.978 52.069h-72.937c-16.894.001-28.714-16.855-22.69-32.629zm284.785 0c6.025 15.782-5.805 32.63-22.69 32.63h-72.937c2.854-23.837 19.143-44.171 41.978-52.069 3.622-1.574 17.074-4.494 32.706-15.949 9.142 11.025 16.174 22.902 20.943 35.388zm-24.912-51.435c-14.069 12.095-26.212 14.944-33.641 17.82-28.384 9.82-49.205 35.487-52.161 66.245h-63.356c-2.934-30.302-23.344-56.275-52.161-66.245-2.604-1.416-35.89-7.861-53.784-43.548h4.104c9.74 0 18.814-4.976 24.06-13.197 31.039 29.689 70.185 44.2 109.459 44.2 17.278 0 34.265-2.78 50.49-8.263 3.924-1.326 6.03-5.582 4.705-9.506-1.326-3.925-5.584-6.028-9.506-4.705-14.675 4.959-30.047 7.474-45.688 7.474-39.834 0-77.903-16.676-105.045-46.154-.086-1.396-.327-3.179-.644-4.595l-7.93-35.438c3.378-5.385 5.374-11.962 5.374-18.79 0-19.105-15.26-34.933-34.386-35.514-.127-7.787.34-15.263 1.479-23.042 44.13 7.997 89.159-5.23 126.547-29.036 8.872-5.644 20.336-5.644 29.205-.001 37.064 23.596 82.621 37.179 126.535 29.035 1.142 7.774 1.61 15.249 1.484 23.044-18.827.591-34.377 16.106-34.377 35.514 0 6.83 1.999 13.409 5.374 18.79l-7.93 35.438c-.314 1.405-.564 3.234-.64 4.56-9.7 10.561-20.831 19.623-33.692 27.071-3.584 2.076-4.808 6.664-2.732 10.248 2.053 3.546 6.643 4.821 10.248 2.732 10.917-6.32 21.137-14.006 30.586-23.061 5.141 8.047 14.116 13.196 24.06 13.196h4.104c-4.852 9.68-11.372 18.192-20.141 25.728zm36.554-40.727c-5.926 0-13.859 0-20.516 0-8.543 0-15.1-7.95-13.193-16.471l5.944-26.562c5.191 2.946 11.385 4.591 17.507 4.591 6.143 0 12.323-1.649 17.507-4.591l5.944 26.562c1.892 8.457-4.545 16.471-13.193 16.471z"></path></g></g></svg>