<!-- icon666.com - MILLIONS vector ICONS FREE --><svg id="Layer_1" enable-background="new 0 0 53 53" viewBox="0 0 53 53" xmlns="http://www.w3.org/2000/svg"><g id="_x31_33"><g><g><g><path d="m50.5 26.5037537c0 1.8600311-.2099762 3.667511-.6150055 5.4075165-.5999908 2.625-1.6349945 5.0849762-3.0224762 7.2974854-1.9350128 3.0899963-4.5525055 5.7149963-7.6500092 7.6500092-2.2125091 1.3874815-4.6724853 2.4224852-7.2974853 3.0225218-1.7400055.4049835-3.5550384.6149597-5.4150238.6149597s-3.667511-.2099762-5.4075165-.6149597c-2.625-.6000366-5.0849762-1.6350403-7.2974854-3.022522-3.0975037-1.9350128-5.7225037-4.5600128-7.6575165-7.6500092-1.3874816-2.2125091-2.4149779-4.6724853-3.0224761-7.2899779-.4049835-1.7400055-.6150055-3.5549927-.6150055-5.4150238 0-1.8674927.210022-3.6824799.6150055-5.4224854.6074982-2.6174927 1.6349945-5.0775146 3.0224762-7.2900238 1.9350128-3.0899963 4.5600128-5.7149963 7.6575165-7.6499634 2.2125092-1.3875275 4.6724854-2.4225311 7.2974854-3.022522 1.7400054-.4049835 3.547531-.6150054 5.4075164-.6150054s3.6750183.210022 5.4150238.6150055c2.625.5999908 5.0849762 1.6349945 7.2974854 3.0225219 3.0975037 1.934967 5.7149963 4.559967 7.6500092 7.6499634 1.3874817 2.2125092 2.4224854 4.6725311 3.0224762 7.2975311.4050292 1.7400055.6150054 3.5549927.6150054 5.4149781z" fill="#fc6559"></path></g></g><g><g><path d="m50.5 26.5037537c0 1.8600311-.2099762 3.667511-.6150055 5.4075165-.5999908 2.625-1.6349945 5.0849762-3.0224762 7.2974854-1.9350128 3.0899963-4.5525055 5.7149963-7.6500092 7.6500092-2.2125091 1.3874815-4.6724853 2.4224852-7.2974853 3.0225218-1.7400055.4049835-3.5550384.6149597-5.4150238.6149597s-3.667511-.2099762-5.4075165-.6149597c-2.625-.6000366-5.0849762-1.6350403-7.2974854-3.022522-2.894989-1.8074799-5.3774872-4.2225037-7.2750092-7.0500183.2025146.127533.4050293.2550201.6074982.3825073 2.2125092 1.3875275 4.6725311 2.4225311 7.2975311 3.022522 1.7400055.4049835 3.5474854.6150055 5.4074707.6150055 1.8600311 0 3.6750183-.210022 5.4150238-.6150055 10.5978241-2.4223213 18.5849762-11.959074 18.5849762-23.377533 0-1.8599854-.2099762-3.6749725-.6150055-5.414978-.7417488-3.2451944-1.8827171-5.4754725-3.4124908-7.9049835 2.835022 1.8974762 5.25 4.3799744 7.0575256 7.2749634 1.3874817 2.2125092 2.4224854 4.6725311 3.0224762 7.2975311.4050294 1.7400055.6150056 3.5549927.6150056 5.4149781z" fill="#f05543"></path></g></g><g><g><path d="m14.8300018 44.9312592-1.0350037 1.9275055c-2.5438442-1.589901-4.9931841-3.8104324-6.8849945-6.5024872-.1349945-.1725311-.2550201-.3600311-.3825073-.5400238-.1274872-.2024689-.2624817-.4049835-.3900146-.6074982l1.9350128-1.0350037c.7125092-.3825073 1.5975037-.2549744 2.1750183.3224945l4.2599945 4.252533c.164978.164978.292511.352478.3825073.5625.2249909.5099945.2099762 1.1099853-.0600128 1.6199799z" fill="#e4e3ff"></path></g></g><g><g><path d="m31.9150238 49.8812866c-1.7400055.4049835-3.5550384.6149597-5.4150238.6149597s-3.667511-.2099762-5.4075165-.6149597l.6300201-2.0925293c.2400055-.7799835.9599762-1.3125 1.769989-1.3125h6.0150146c.8174744 0 1.5374908.5325165 1.7774963 1.3125z" fill="#e4e3ff"></path></g></g><g><g><path d="m46.8625183 39.2087555c-1.9350128 3.0899963-4.5525055 5.7149963-7.6500092 7.6500092l-1.0350037-1.9275055c-.3825072-.7125092-.25502-1.605011.3224946-2.1824799l4.2524872-4.252533c.5775146-.5774689 1.4625092-.7050018 2.1825256-.3224945z" fill="#e4e3ff"></path></g></g><g><g><path d="m50.5 26.5037537c0 1.8600311-.2099762 3.667511-.6150055 5.4075165l-2.0924835-.6300202c-.7800293-.2400055-1.3125-.9599762-1.3125-1.769989v-6.0224762c0-.8100128.5324707-1.5300293 1.3125-1.7700348l2.0924835-.6299744c.4050293 1.7400055.6150055 3.5549927.6150055 5.4149781z" fill="#e4e3ff"></path></g></g><g><g><path d="m46.8625183 13.7912445-1.9275055 1.0350037c-.5099945.2700348-1.1025238.2850037-1.6125183.0600128-.2099762-.0899963-.4049835-.2174835-.5700073-.3825073l-4.2524872-4.2524872c-.5775146-.5775146-.7050018-1.4700165-.3224945-2.1824799l1.0350037-1.9275055c.1950073.1274872.3974762.247467.5924835.375v.0074615c.082489.0525055.1650238.1125183.2475128.1650238 2.3244896 1.5496588 4.5516586 3.8131037 6.1125183 6.0525055.2399597.3449708.4724579.6899873.6974945 1.0499726z" fill="#e4e3ff"></path></g></g><g><g><path d="m14.8900146 43.3112793c.2249908.5099945.2099762 1.1099854-.0600128 1.6199799l-1.0350037 1.9275055c-2.5438442-1.589901-4.9931841-3.8104324-6.8849945-6.5024872-.1349945-.1725311-.2550201-.3600311-.3825073-.5400238.2025146.1200256.397522.2475128.5999908.375 2.2125092 1.3875275 4.6725311 2.4225311 7.2975311 3.022522.1574708.0374908.30748.0674743.4649964.0975036z" fill="#d2d2f7"></path></g></g><g><g><path d="m31.2850037 47.7887573.6300201 2.0925293c-1.7400055.4049835-3.5550384.6149597-5.4150238.6149597s-3.667511-.2099762-5.4075165-.6149597l.6300201-2.0925293c.2400055-.7799835.9599762-1.3125 1.769989-1.3125h6.0150146c.8174745 0 1.537491.5325165 1.7774965 1.3125z" fill="#d2d2f7"></path></g></g><g><g><path d="m44.9350128 38.1737518 1.9275055 1.0350037c-1.9350128 3.0899963-4.5525055 5.7149963-7.6500092 7.6500092l-1.0350037-1.9275055c-.3825072-.7125092-.25502-1.605011.3224946-2.1824799l4.2524872-4.252533c.5775146-.5774688 1.4625091-.7050018 2.1825256-.3224945z" fill="#d2d2f7"></path></g></g><g><g><path d="m39.8049927 6.5237427v-.0074616c.082489.0525055.1650238.1124725.2475128.1724854 2.3244896 1.5496588 4.5516586 3.8131037 6.1125183 6.0525055.2399597.3449707.4724579.6899872.6974945 1.0499725l-1.9275055 1.0350037c-.5099945.2700348-1.1025238.2850037-1.6125183.0600128-.0374908-.1575165-.0674744-.3074799-.105011-.4649963-.7438087-3.2542124-1.8735847-5.4529534-3.4124908-7.897522z" fill="#d2d2f7"></path></g></g><g><g><path d="m50.5 26.5037537c0 1.8600311-.2099762 3.667511-.6150055 5.4075165l-2.0924835-.6300202c-.7800293-.2400055-1.3125-.9599762-1.3125-1.769989v-6.0224762c0-.8100128.5324707-1.5300293 1.3125-1.7700348l2.0924835-.6299744c.4050293 1.7400055.6150055 3.5549927.6150055 5.4149781z" fill="#d2d2f7"></path></g></g><g><g><path d="m26.5157928 42.6145973h-.0131836c-1.0495605 0-2.1020508-.1018066-3.126709-.3024902-.4064941-.079834-.6716309-.473877-.5917969-.8803711.0791016-.4064941.4680176-.6723633.8803711-.5917969.9301758.182373 1.8852539.2746582 2.8381348.2746582.4145508 0 .7565918.3354492.7565918.75s-.3288574.75-.7434082.75zm2.2609864-.8979492c-.0812988-.4064941.1831055-.8012695.5888672-.8818359.9367676-.1867676 1.8581543-.4665527 2.7392578-.8327637.3852539-.1567383.8217773.0227051.9807129.4050293s-.0227051.8217773-.4050293.9807129c-.9719238.4035645-1.9892578.7126465-3.0219727.9177246-.3966694.0816688-.7996254-.1761208-.8818359-.5888672zm-8.4250489-.3178711c-.9711914-.4013672-1.9086914-.9016113-2.7861328-1.486084-.3442383-.229248-.4379883-.6950684-.2080078-1.0400391.2285156-.3449707.6936035-.4379883 1.0400391-.2080078.7961426.5302734 1.645752.9836426 2.5268555 1.3483887.3830566.1582031.5646973.5969238.4064941.979248-.1585198.3841439-.5978317.5644265-.9792481.4064942zm14.072754-1.7087402c-.2307129-.3435059-.1391602-.8093262.2050781-1.0400391.7932129-.5324707 1.5380859-1.1447754 2.2126465-1.8193359.2929688-.2929688.7675781-.2929688 1.0605469 0s.2929688.7675781 0 1.0605469c-.7434082.7434082-1.5637207 1.4179688-2.4382324 2.0039063-.3449059.2325667-.8115769.1370315-1.0400391-.2050782zm-19.3022452-1.7790528c-.7470703-.744873-1.4230957-1.5644531-2.0083008-2.4360352-.2307129-.3442383-.1391602-.8100586.2043457-1.0407715.3435059-.2321777.8093262-.1391602 1.0407715.2043457.5310059.7902832 1.144043 1.5344238 1.8222647 2.2104492.2929688.2922363.2937012.7668457.0014648 1.0605469-.2899446.2913972-.7645359.2959939-1.0605459.0014649zm23.7443838-2.2543945c-.3442383-.2307129-.4365234-.6965332-.2058105-1.0407715.5317383-.7946777.9865723-1.6435547 1.3513184-2.5231934.1582031-.3830566.5976563-.5639648.9799805-.4057617.3830566.1589355.5646973.5976563.4057617.9799805-.4020996.970459-.9038086 1.9072266-1.4904785 2.7839355-.2298432.3441849-.6968575.4357415-1.0407716.2058106zm-27.24829-2.9626465c-.4050293-.9711914-.7155762-1.987793-.9213867-3.0219727-.0812988-.4057617.182373-.8012695.5888672-.8818359.4064941-.0834961.8005371.1831055.8818359.5888672.1867676.9360352.4680176 1.8574219.8349609 2.737793.159668.3823242-.0212402.8210449-.4035645.9807129-.3778829.158184-.8197154-.0177574-.9807128-.4035645zm29.8139639-2.4602051c-.4064941-.079834-.670166-.4746094-.5895996-.8811035.1838379-.9309082.2775879-1.8896484.2775879-2.8498535 0-.4145508.3354492-.7822266.75-.7822266s.75.3024902.75.717041v.0651855c0 1.0583496-.1032715 2.1152344-.3068848 3.1413574-.0813485.4135305-.486805.6719915-.8811035.5895997zm-30.2973624-2.967041c-.4145508 0-.75-.3215332-.75-.736084v-.027832c0-1.0458984.1010742-2.0932617.3010254-3.1142578.0791016-.4057617.4680176-.6716309.8803711-.5917969.4064941.079834.6716309.473877.5917969.8803711-.1816406.9257813-.2731934 1.8764648-.2731934 2.8256836 0 .4145508-.3354492.763916-.75.763916zm29.6953116-3.6752929c-.1896973-.9360352-.4724121-1.8566895-.8408203-2.7363281-.1604004-.3823242.0197754-.8217773.4013672-.9814453.3837891-.1625977.8210449.0197754.9814453.4013672.4072266.970459.7192383 1.9863281.9287109 3.019043.0820313.4057617-.1801758.8012695-.5866699.8840332-.3995781.0822676-.8005066-.1766378-.8840332-.58667zm-28.8273917-2.2470704c-.3830566-.1582031-.5654297-.5969238-.407959-.979248.4013672-.9726563.9008789-1.9108887 1.4853516-2.7875977.2285156-.3449707.6936035-.4372559 1.0400391-.2080078.3442383.229248.4379883.6950684.2080078 1.0400391-.529541.7946777-.9829102 1.6450195-1.3461914 2.5268555-.1582213.383419-.5963011.5647564-.9792481.4079589zm26.6257315-3.0080566c-.534668-.791748-1.1491699-1.5336914-1.8266602-2.2067871-.2944336-.2922354-.2958984-.7668447-.0043945-1.0605459.2922363-.2944336.7683105-.295166 1.0605469-.0043945.7470703.7419434 1.4245605 1.5600576 2.0141602 2.4323721.2314453.3427734.1413574.8093262-.2021484 1.0415039-.3463021.2321796-.8106538.1394653-1.041504-.2021485zm-23.5473623-2.142334c-.2937012-.2922354-.295166-.7668447-.0029297-1.0605459.7419434-.7456055 1.5607901-1.4216309 2.4345694-2.0097656.3442383-.2329102.8100586-.1420898 1.0407715.2028809.2314453.3435059.140625.8100586-.2028809 1.0407715-.7932129.5339355-1.5358887 1.1477051-2.2089844 1.8237295-.2916975.2931575-.7663069.2956981-1.0605459.0029296zm19.499999-1.8757314c-.7976074-.529541-1.6486816-.9814453-2.5290527-1.3432617-.3830566-.1574707-.5661621-.595459-.4086914-.9785156.1574707-.3837891.5969238-.5646973.9785156-.4086914.9711914.3991699 1.9094238.8972168 2.7883301 1.480957.3457031.229248.4394531.6943359.2102051 1.0393066-.2291222.3454304-.6955185.4393978-1.0393067.2102051zm-14.6909179-1.7124024c-.159668-.3823242.0205078-.8217773.402832-.9814453.9726563-.4064941 1.9892578-.7177734 3.0212402-.9243164.402832-.0834961.8012695.1809082.8825684.5881348.0812988.4057617-.1816406.8012695-.5881348.8825684-.9345703.1875-1.855957.46875-2.7370605.8378906-.3767853.1577243-.8191414-.0162554-.9814453-.4028321zm9.4196777-.4511719c-.918457-.1787109-1.8625488-.2695313-2.807373-.2695313-.4145508 0-.7727051-.3354492-.7727051-.75s.3120117-.75.7265625-.75h.0461426c1.0407715 0 2.081543.1003418 3.0944824.2973633.4064941.0791016.6716309.4731445.5925293.8796387-.079834.4109402-.478838.6714745-.8796387.5925293z" fill="#fff"></path></g></g><g><g><path d="m31.9150238 3.1187592-.6300201 2.0924835c-.2400055.7800293-.960022 1.3125-1.7774963 1.3125h-6.0150146c-.8100128 0-1.5299835-.5324707-1.769989-1.3125l-.6300201-2.0924835c1.7400053-.4049836 3.5475309-.6150055 5.4075163-.6150055s3.6750183.2100219 5.4150238.6150055z" fill="#e4e3ff"></path></g></g><g><g><path d="m14.5075073 10.2512665-4.2599945 4.2524872c-.5775146.5775146-1.4625092.7050018-2.1750183.3224945l-1.9350128-1.0350037c1.9350128-3.0899963 4.5600128-5.7149963 7.6575165-7.6499634l1.0350037 1.9275055c.3825073.7124634.2475127 1.6049652-.3224946 2.1824799z" fill="#e4e3ff"></path></g></g><g><g><path d="m6.5274963 23.4887848v6.0224762c0 .8100128-.5325165 1.5299835-1.3125 1.769989l-2.0999908.6375275c-.4049835-1.7400055-.6150055-3.5549927-.6150055-5.4150238 0-1.8674927.210022-3.6824799.6150055-5.4224854l2.0999908.6374817c.7799836.2400055 1.3125.960022 1.3125 1.7700348z" fill="#e4e3ff"></path></g></g><g><g><path d="m38.5588226 26.4960079c0 6.6596317-5.3994789 12.0590611-12.0590611 12.0590611-6.6516476 0-12.0510769-5.3994293-12.0510769-12.0590611 0-6.6515999 5.3994293-12.0510769 12.0510769-12.0510769 6.6595822 0 12.0590611 5.399477 12.0590611 12.0510769z" fill="#fff"></path></g></g></g><g><g><g><g><path d="m25.7344952 30.386179c0 .5561752-.4489803 1.0051136-1.0051136 1.0051136h-4.3152847c-.5561733 0-1.0051136-.4489384-1.0051136-1.0051136 0-.5561333.4489403-1.0051117 1.0051136-1.0051117h1.2463303v-4.3420753l-.5360527.5293446c-.3886547.3953629-1.0252342.3953629-1.4205551 0-.3886566-.3886127-.3886566-1.0251923 0-1.4205551l2.2447357-2.2447357c.288126-.2881279.7236919-.3752403 1.0989323-.2144279.3752403.1541042.6231651.5159702.6231651.9247055v6.7677441h1.0587292c.5561331-.0000002 1.0051135.4489782 1.0051135 1.0051115z" fill="#474646"></path></g></g></g><g><g><path d="m30.6767635 31.7009277c-1.9379883 0-3.5148926-1.5769043-3.5148926-3.5148926v-3.3720703c0-1.9379883 1.5769043-3.5148926 3.5148926-3.5148926 1.9387226 0 3.5156269 1.5769043 3.5156269 3.5148926v3.3720703c0 1.9379883-1.5769043 3.5148926-3.5156269 3.5148926zm0-8.3774414c-.8217773 0-1.4904785.6687012-1.4904785 1.4904785v3.3720703c0 .8217773.6687012 1.4904785 1.4904785 1.4904785s1.4912128-.6687012 1.4912128-1.4904785v-3.3720703c.0000001-.8217773-.6694354-1.4904785-1.4912128-1.4904785z" fill="#474646"></path></g></g></g></g></svg>