<!-- icon666.com - MILLIONS vector ICONS FREE --><svg id="Layer_1" enable-background="new 0 0 53 53" viewBox="0 0 53 53" xmlns="http://www.w3.org/2000/svg"><g id="_x36_9"><g><g><path d="m50.5 26.5037537c0 1.8600311-.2099762 3.667511-.6150055 5.4075165-.5999908 2.625-1.6349945 5.0849762-3.0224762 7.2974854-1.9350128 3.0899963-4.5525055 5.7149963-7.6500092 7.6500092-2.2125091 1.3874815-4.6724853 2.4224852-7.2974853 3.0225218-1.7400055.4049835-3.5550384.6149597-5.4150238.6149597s-3.667511-.2099762-5.4075165-.6149597c-2.625-.6000366-5.0849762-1.6350403-7.2974854-3.022522-3.0975037-1.9350128-5.7225037-4.5600128-7.6575165-7.6500092-1.3874816-2.2125091-2.4149779-4.6724853-3.0224761-7.2899779-.4049835-1.7400055-.6150055-3.5549927-.6150055-5.4150238 0-1.8674927.210022-3.6824799.6150055-5.4224854.6074982-2.6174927 1.6349945-5.0775146 3.0224762-7.2900238 1.9350128-3.0899963 4.5600128-5.7149963 7.6575165-7.6499634 2.2125092-1.3875275 4.6724854-2.4225311 7.2974854-3.022522 1.7400054-.4049835 3.547531-.6150054 5.4075164-.6150054s3.6750183.210022 5.4150238.6150055c2.625.5999908 5.0849762 1.6349945 7.2974854 3.0225219 3.0975037 1.934967 5.7149963 4.559967 7.6500092 7.6499634 1.3874817 2.2125092 2.4224854 4.6725311 3.0224762 7.2975311.4050292 1.7400055.6150054 3.5549927.6150054 5.4149781z" fill="#5bc658"></path></g><g><path d="m50.5 26.5037537c0 1.8600311-.2099762 3.667511-.6150055 5.4075165-.5999908 2.625-1.6349945 5.0849762-3.0224762 7.2974854-1.9350128 3.0899963-4.5525055 5.7149963-7.6500092 7.6500092-2.2125091 1.3874815-4.6724853 2.4224852-7.2974853 3.0225218-1.7400055.4049835-3.5550384.6149597-5.4150238.6149597s-3.667511-.2099762-5.4075165-.6149597c-2.625-.6000366-5.0849762-1.6350403-7.2974854-3.022522-2.894989-1.8074799-5.3774872-4.2225037-7.2750092-7.0500183.2025146.127533.4050293.2550201.6074982.3825073 2.2125092 1.3875275 4.6725311 2.4225311 7.2975311 3.022522 1.7400055.4049835 3.5474854.6150055 5.4074707.6150055 11.4385338 0 20.965332-7.9988403 23.3849945-18.585022.824482-3.5419674.8160629-7.3166904 0-10.8224945-.5999908-2.625-1.6349945-5.085022-3.0224762-7.2974854-.1274872-.2025146-.2625275-.4050293-.3900146-.6074982 2.835022 1.8974762 5.25 4.3799744 7.0575256 7.2749634 1.3874817 2.2125092 2.4224854 4.6725311 3.0224762 7.2975311.4050294 1.7400056.6150056 3.5549928.6150056 5.4149782z" fill="#49a247"></path></g><g><path d="m14.8300018 44.9312592-1.0350037 1.9275055c-.3599854-.2249908-.7050018-.457489-1.0500183-.6974945-.0299835-.0150146-.059967-.0374908-.0899963-.0600128-2.5040903-1.8052902-4.2601185-3.6320152-5.7449799-5.7449799-.1349945-.1725311-.2550201-.3600311-.3825073-.5400238-.1274872-.2024689-.2624817-.4049835-.3900146-.6074982l1.9350128-1.0350037c.7125092-.3825073 1.5975037-.2549744 2.1750183.3224945l4.2599945 4.252533c.164978.164978.292511.352478.3825073.5625.2249909.5099945.2099762 1.1099853-.0600128 1.6199799z" fill="#e4e3ff"></path></g><g><path d="m31.9150238 49.8812866c-1.7400055.4049835-3.5550384.6149597-5.4150238.6149597s-3.667511-.2099762-5.4075165-.6149597l.6300201-2.0925293c.2400055-.7799835.9599762-1.3125 1.769989-1.3125h6.0150146c.8174744 0 1.5374908.5325165 1.7774963 1.3125z" fill="#e4e3ff"></path></g><g><path d="m46.8625183 39.2087555c-1.9350128 3.0899963-4.5525055 5.7149963-7.6500092 7.6500092l-1.0350037-1.9275055c-.3825072-.7125092-.25502-1.605011.3224946-2.1824799l4.2524872-4.252533c.5775146-.5774689 1.4625092-.7050018 2.1825256-.3224945z" fill="#e4e3ff"></path></g><g><path d="m50.5 26.5037537c0 1.8600311-.2099762 3.667511-.6150055 5.4075165l-2.0924835-.6300202c-.7800293-.2400055-1.3125-.9599762-1.3125-1.769989v-6.0224762c0-.8100128.5324707-1.5300293 1.3125-1.7700348l2.0924835-.6299744c.4050293 1.7400055.6150055 3.5549927.6150055 5.4149781z" fill="#e4e3ff"></path></g><g><path d="m46.8625183 13.7912445-1.9275055 1.0350037c-.5099945.2700348-1.1025238.2850037-1.6125183.0600128-.2099762-.0899963-.4049835-.2174835-.5700073-.3825073l-4.2524872-4.2524872c-.5775146-.5775146-.7050018-1.4700165-.3224945-2.1824799l1.0350037-1.9275055c.1950073.1274872.3974762.247467.5924835.375v.0074615c.082489.0525055.1650238.1125183.2475128.1650238.1349945.0899963.2624817.1875.3974762.2850037 1.1353989.7860727 2.5976181 2.0796127 3.4125366 2.9625092.8399963.8774872 1.6124725 1.8149872 2.3025055 2.8049927.2399597.3449707.4724579.6899872.6974945 1.0499725z" fill="#e4e3ff"></path></g><g><path d="m14.8900146 43.3112793c.2249908.5099945.2099762 1.1099854-.0600128 1.6199799l-1.0350037 1.9275055c-.3599854-.2249908-.7050018-.457489-1.0500183-.6974945-.0299835-.0150146-.059967-.0374908-.0899963-.0600128-2.5040903-1.8052902-4.2601185-3.6320152-5.7449799-5.7449799-.1349945-.1725311-.2550201-.3600311-.3825073-.5400238.2025146.1200256.397522.2475128.5999908.375 2.2125092 1.3875275 4.6725311 2.4225311 7.2975311 3.022522.1574708.0374908.30748.0674743.4649964.0975036z" fill="#d2d2f7"></path></g><g><path d="m31.2850037 47.7887573.6300201 2.0925293c-1.7400055.4049835-3.5550384.6149597-5.4150238.6149597s-3.667511-.2099762-5.4075165-.6149597l.6300201-2.0925293c.2400055-.7799835.9599762-1.3125 1.769989-1.3125h6.0150146c.8174745 0 1.537491.5325165 1.7774965 1.3125z" fill="#d2d2f7"></path></g><g><path d="m44.9350128 38.1737518 1.9275055 1.0350037c-1.9350128 3.0899963-4.5525055 5.7149963-7.6500092 7.6500092l-1.0350037-1.9275055c-.3825072-.7125092-.25502-1.605011.3224946-2.1824799l4.2524872-4.252533c.5775146-.5774688 1.4625091-.7050018 2.1825256-.3224945z" fill="#d2d2f7"></path></g><g><path d="m40.1950073 7.1237793c-.1274872-.2025146-.2625275-.397522-.3900146-.6000366v-.0074616c.082489.0525055.1650238.1124725.2475128.1724854.1349945.0899963.2624817.1875.3974762.2850037 1.1353989.7860727 2.5976181 2.0796127 3.4125366 2.9625092.8399963.8774872 1.6124725 1.8149872 2.3025055 2.8049927.2399597.3449707.4724579.6899872.6974945 1.0499725l-1.9275055 1.0350037c-.5099945.2700348-1.1025238.2850037-1.6125183.0600128-.0374908-.1575165-.0674744-.3074799-.105011-.4649963-.5999908-2.6250002-1.6349945-5.0850221-3.0224762-7.2974855z" fill="#d2d2f7"></path></g><g><path d="m50.5 26.5037537c0 1.8600311-.2099762 3.667511-.6150055 5.4075165l-2.0924835-.6300202c-.7800293-.2400055-1.3125-.9599762-1.3125-1.769989v-6.0224762c0-.8100128.5324707-1.5300293 1.3125-1.7700348l2.0924835-.6299744c.4050293 1.7400055.6150055 3.5549927.6150055 5.4149781z" fill="#d2d2f7"></path></g><g><path d="m31.9150238 3.1187592-.6300201 2.0924835c-.2400055.7800293-.960022 1.3125-1.7774963 1.3125h-6.0150146c-.8100128 0-1.5299835-.5324707-1.769989-1.3125l-.6300201-2.0924835c1.7400053-.4049836 3.5475309-.6150055 5.4075163-.6150055s3.6750183.2100219 5.4150238.6150055z" fill="#e4e3ff"></path></g><g><path d="m14.5075073 10.2512665-4.2599945 4.2524872c-.5775146.5775146-1.4625092.7050018-2.1750183.3224945l-1.9350128-1.0350037c1.9350128-3.0899963 4.5600128-5.7149963 7.6575165-7.6499634l1.0350037 1.9275055c.3825073.7124634.2475127 1.6049652-.3224946 2.1824799z" fill="#e4e3ff"></path></g><g><path d="m6.5274963 23.4887848v6.0224762c0 .8100128-.5325165 1.5299835-1.3125 1.769989l-2.0999908.6375275c-.4049835-1.7400055-.6150055-3.5549927-.6150055-5.4150238 0-1.8674927.210022-3.6824799.6150055-5.4224854l2.0999908.6374817c.7799836.2400055 1.3125.960022 1.3125 1.7700348z" fill="#e4e3ff"></path></g><g><path d="m39.193161 26.4957981c0 7.0100613-5.6835976 12.6936092-12.6936092 12.6936092-7.0016594 0-12.6852074-5.683548-12.6852074-12.6936092 0-7.0016079 5.683548-12.6852074 12.6852074-12.6852074 7.0100116 0 12.6936092 5.6835995 12.6936092 12.6852074z" fill="#fff"></path></g><g><path d="m39.1950264 26.4956226c0 7.0125751-5.684967 12.6901264-12.6974945 12.6901264-4.9275055 0-9.2024689-2.8125-11.2949972-6.9225769 2.2949972 2.2875366 5.460021 3.7050476 8.9625082 3.7050476 7.0050201 0 12.6899872-5.6775532 12.6899872-12.6900349 0-2.0700073-.4949799-4.0274963-1.3799744-5.752533 2.2949982 2.2950441 3.7199707 5.4675294 3.7199707 8.9699708z" fill="#e4e3ff"></path></g><g><path d="m25.0132484 42.8414192c-.2753906-.0253906-.4775391-.2685547-.453125-.5429688.0253906-.2753906.2802734-.4755859.5429688-.453125.9326172.0849609 1.9013672.0830078 2.8417969-.0048828.2910156-.0195313.5185547.1767578.5449219.4511719.0253906.2753906-.1767578.5185547-.4511719.5449219-.9988747.0922012-2.0143814.0960541-3.0253907.0048828zm-2.9765625-.5488281c-.96875-.2734375-1.9189453-.640625-2.8242188-1.0917969-.2470703-.1230469-.3476563-.4228516-.2246094-.6699219.1230469-.2480469.4228516-.3496094.6699219-.2246094.8496094.4228516 1.7412109.7666016 2.6503906 1.0234375.265625.0751953.4208984.3515625.3457031.6171875-.0763472.2695962-.3558787.4195519-.6171874.3457032zm8.3574219-.3554688c-.0761719-.265625.0771484-.5419922.3427734-.6181641.9111328-.2607422 1.8017578-.6083984 2.6484375-1.03125.2480469-.1230469.546875-.0234375.6708984.2236328.1230469.2470703.0234375.546875-.2236328.6708984-.9013672.4501953-1.8505859.8203125-2.8203125 1.0976563-.25605.0762673-.5409431-.071289-.618164-.3427734zm-13.7548828-2.3261718c-.8037119-.6064453-1.5566416-1.2910156-2.2392588-2.0351563-.1865234-.2041016-.171875-.5205078.03125-.7070313.203125-.1845703.5205078-.1728516.7070313.03125.6396484.6992188 1.3476572 1.3427734 2.10254 1.9121094.2207031.1669922.2646484.4804688.0986328.7001953-.1669941.2215539-.4796867.2640153-.7001953.0986329zm19.0634766-.125c-.1669922-.2197266-.1240234-.5332031.0966797-.7001953.7539063-.5712891 1.4599609-1.2167969 2.0976563-1.9169922.1884766-.2041016.5039063-.2197266.7070313-.0322266.2041016.1855469.21875.5019531.0332031.7060547-.6796875.7451172-1.4316406 1.4316406-2.234375 2.0400391-.2177202.1656532-.531643.1252746-.7001954-.0966797zm-23.1328135-4.3212891c-.5332031-.8564453-.9892578-1.7675781-1.3564453-2.7060547-.1005859-.2568359.0263672-.546875.2841797-.6474609.2558594-.1005859.5478516.0263672.6474609.2841797.34375.8808594.7724609 1.7363281 1.2744141 2.5400391.1455078.234375.0742188.5429688-.1601563.6894531-.2394437.1464843-.5456152.0711708-.6894531-.1601563zm27.2011728.1259766c-.234375-.1455078-.3066406-.453125-.1611328-.6884766.4990234-.8066406.9257813-1.6621094 1.2675781-2.5439453.0996094-.2587891.3886719-.3867188.6464844-.2851563.2578125.0996094.3857422.3886719.2851563.6464844-.3632813.9384766-.8173828 1.8505859-1.3496094 2.7099609-.146244.2351952-.453968.306305-.6884766.1611329zm-29.3896493-5.7402344c-.1865234-.9873047-.2822266-2.0009766-.2841797-3.0126953-.0009766-.2763672.2226563-.5.4990234-.5009766h.0009766c.2753906 0 .4990234.2236328.5.4990234.0019531.9501953.0917969 1.9013672.2666016 2.8291016.0517578.2714844-.1269531.5332031-.3984375.5839844-.2741643.0514049-.5336066-.1290264-.5839844-.3984375zm31.6708993.3564453c-.2714844-.0498047-.4501953-.3105469-.3994141-.5830078.171875-.9257813.2587891-1.8769531.2587891-2.8291016 0-.2763672.2236328-.5322266.5-.5322266s.5.1904297.5.4667969v.0654297c0 1.0126953-.0927734 2.0263672-.2763672 3.0126953-.0491409.2686291-.3089942.4507905-.5830078.3994141zm-31.1943368-5.7910156c-.3175535 0-.5487118-.287056-.4931641-.5898438.1826172-.9941406.4580078-1.9746094.8203125-2.9140625.0996094-.2578125.3876953-.3857422.6464844-.2871094.2578125.0996094.3857422.3886719.2871094.6464844-.3398438.8818359-.5986328 1.8017578-.7695313 2.734375-.0449219.241211-.2548828.4101563-.4912109.4101563zm30.7822275-.5136719c-.1767578-.9296875-.4423828-1.8486328-.7890625-2.7294922-.1005859-.2568359.0263672-.546875.2832031-.6484375.2548828-.1015625.546875.0253906.6484375.2832031.3681641.9384766.6513672 1.9169922.8398438 2.9072266.0517578.2714844-.1259766.5332031-.3974609.5849609-.2834702.0515385-.534649-.135189-.584961-.3974609zm-28.9482432-5.0146484c-.234375-.1455078-.3076172-.453125-.1630859-.6884766.5292969-.8583984 1.1416016-1.671875 1.8193359-2.4189463.1865234-.203125.5029297-.21875.7060547-.0341797.2041016.1855469.2197266.5019531.0341797.7060556-.6357422.7021484-1.2109375 1.4658203-1.7080078 2.2724609-.14394.2329751-.449172.3083764-.6884766.1630861zm26.8808604-.2519532c-.4990234-.7988281-1.0791016-1.5585938-1.7236328-2.2587891-.1865234-.203126-.1738281-.5195322.0292969-.7070322.2050781-.1855469.5205078-.171875.7070313.0292969.6855469.7460947 1.3037109 1.555665 1.8349609 2.4072275.1464844.2333984.0751953.5419922-.1591797.6884766-.230629.1455155-.5413819.077385-.6884766-.1591797zm-23.0898438-4.2001962c-.1679688-.2197266-.125-.5332031.0947266-.7001953.8027344-.6113281 1.6660156-1.1503906 2.5664063-1.6035156.2451172-.1240234.546875-.0263672.6708984.2216797.1240234.2460938.0253906.546875-.2216797.6708984-.8447266.4257813-1.65625.9326172-2.4101563 1.5058594-.2211838.1688594-.5348549.1235246-.7001953-.0947266zm19.2587891.0341797c-.7597656-.5693359-1.5742188-1.0703125-2.4208984-1.4892578-.2470703-.1220703-.3486328-.421875-.2265625-.6699219.1230469-.2480469.4257813-.3476563.6699219-.2265625.9023438.4462891 1.7695313.9794922 2.5771484 1.5849609.2207031.1660156.265625.4794922.1005859.7001953-.1677933.2226143-.481514.2645979-.7001953.100586zm-14.1210938-2.8222657c-.0761719-.265625.0771484-.5429688.3417969-.6191406.9658203-.2783203 1.9667969-.4677734 2.9736328-.5634766.2597656-.0117188.5185547.1757813.5449219.4511719.0253906.2744141-.1757813.5185547-.4511719.5449219-.9453125.0888672-1.8837891.2675781-2.7900391.5283203-.2607173.0760422-.5412101-.0732326-.6191406-.3417969zm9.046875.3154297c-.9111328-.2548828-1.8515625-.4257813-2.7949219-.5097656-.2753906-.0244141-.4785156-.2675781-.4541016-.5419922.0244141-.2773438.2792969-.4833984.5419922-.4541016 1.0048828.0888672 2.0058594.2714844 2.9765625.5429688.265625.0742188.4208984.3496094.3466797.6162109-.0746574.2678147-.3537349.4208575-.6162109.3466797z" fill="#fff"></path></g></g><g><g><path d="m21.1600475 29.2409363c.2959614-.2373753.7444515-.5585899 1.3323364-.9535446.6717243-.436367 1.1969814-.8060684 1.6050663-1.1303139.4191971-.331316.7838459-.7222309 1.083849-1.1616287.3101044-.4535389.4676819-.9525337.4676819-1.4838524 0-.5373802-.1404057-1.0212231-.4151554-1.4373894-.2737408-.4131355-.6505127-.737381-1.1202145-.9656658-.46768-.225256-.9899082-.3404083-1.5525398-.3404083-1.0394039 0-2.015173.225256-2.9040699.6697044-.2363663.1272736-.3616199.3373775-.3616199.6070766 0 .1858616.0626259.3434372.1848507.4676819.1939411.1939411.4899044.2454567.7596035.1070709.6646538-.2949524 1.3767815-.4444485 2.1171932-.4444485.662632 0 1.144455.1303043 1.4333477.3888931.285862.255558.4252567.5949554.4252567 1.037384 0 .2696991-.0919209.5292988-.2747498.7727356-.1959629.2606087-.4424286.5030346-.7333412.72122-.3050537.2282848-.7171783.5090942-1.2272854.8353615-.5949554.3848515-1.0899105.7282906-1.4707222 1.0202122-.3808117.2949524-.7101078.6394005-.9757671 1.023243-.2767696.3989944-.4171753.8404121-.4171753 1.3121338 0 .2383862.0808086.4363689.2383862.5888958.1565666.151516.3565693.2292938.5929356.2292938h4.9202518c.1939411 0 .3616199-.0666656.4969749-.19697.1373749-.1333351.2070713-.2989941.2070713-.4939461 0-.1939411-.0696964-.3606091-.2050514-.4979839v-.0010109c-.135355-.135355-.3030338-.2040424-.4989948-.2040424h-4.165699c.1121215-.1575775.2656593-.315155.4575805-.4697017z" fill="#474646"></path></g><g><path d="m33.5207787 26.6308098c-.2424278-.4575806-.6040459-.8222313-1.0757675-1.0818291-.4676819-.2585888-1.0353661-.389904-1.6878967-.389904-.7030373 0-1.3596096.1373749-1.9565868.4080849l.3434391-2.2777996h3.5636711c.193943 0 .3616219-.0666676.4959641-.1959629.1373749-.1313133.2080841-.2979813.2080841-.4949532 0-.1939411-.0696983-.3616199-.2050514-.4979858-.136364-.135355-.3040428-.2050514-.4989967-.2050514h-4.091959c-.2181854 0-.406065.0727272-.5575829.2141418-.1494961.1383858-.240406.3262672-.27071.5525322l-.5737419 3.3919525c-.0181828.1070728-.0282841.2191944-.0282841.3313179 0 .2686882.1010113.4888935.2979832.6535416.1878815.1595974.4232368.2414169.6989975.2414169.1464653 0 .2727299-.030304.3798008-.0919209.0676785-.0404053.1131325-.0656567.1454563-.0838394.5777836-.3484879 1.2111244-.5252571 1.8838577-.5252571.5717239 0 1.0242538.1414146 1.3454685.4202061.3202057.2777805.4747505.6484909.4747505 1.1323338 0 .6040478-.1848488 1.0161724-.5656605 1.2596092-.3969746.2535381-.9909191.3818226-1.7646637.3818226-.6596031 0-1.3212261-.1737385-1.968708-.5171776-.2828312-.1424255-.6252594-.0949497-.8252602.1313152-.1181831.136364-.1787891.3020229-.1787891.4909134 0 .1545467.030302.2727299.09091.3596001.0555553.0828285.1333332.1595974.2363644.2292957.7949581.5070744 1.7363815.7646542 2.7990189.7646542 1.1899109 0 2.1040611-.2818222 2.7172012-.8363724.618187-.5596027.9313202-1.2990036.9313202-2.2000237-.0000002-.5828323-.1222231-1.1091003-.3626291-1.564661z" fill="#474646"></path></g></g></g></svg>