<!-- icon666.com - MILLIONS vector ICONS FREE --><svg id="Layer_1" enable-background="new 0 0 53 53" viewBox="0 0 53 53" xmlns="http://www.w3.org/2000/svg"><g id="_x31_18"><g><g><path d="m50.5 26.5037537c0 1.8600311-.2099762 3.667511-.6150055 5.4075165-.5999908 2.625-1.6349945 5.0849762-3.0224762 7.2974854-1.9350128 3.0899963-4.5525055 5.7149963-7.6500092 7.6500092-2.2125091 1.3874815-4.6724853 2.4224852-7.2974853 3.0225218-1.7400055.4049835-3.5550384.6149597-5.4150238.6149597s-3.667511-.2099762-5.4075165-.6149597c-2.625-.6000366-5.0849762-1.6350403-7.2974854-3.022522-3.0975037-1.9350128-5.7225037-4.5600128-7.6575165-7.6500092-1.3874816-2.2125091-2.4149779-4.6724853-3.0224761-7.2899779-.4049835-1.7400055-.6150055-3.5549927-.6150055-5.4150238 0-1.8674927.210022-3.6824799.6150055-5.4224854.6074982-2.6174927 1.6349945-5.0775146 3.0224762-7.2900238 1.9350128-3.0899963 4.5600128-5.7149963 7.6575165-7.6499634 2.2125092-1.3875275 4.6724854-2.4225311 7.2974854-3.022522 1.7400054-.4049835 3.547531-.6150054 5.4075164-.6150054s3.6750183.210022 5.4150238.6150055c2.625.5999908 5.0849762 1.6349945 7.2974854 3.0225219 3.0975037 1.934967 5.7149963 4.559967 7.6500092 7.6499634 1.3874817 2.2125092 2.4224854 4.6725311 3.0224762 7.2975311.4050292 1.7400055.6150054 3.5549927.6150054 5.4149781z" fill="#fc6559"></path></g></g><g><g><path d="m50.5 26.5037537c0 1.8600311-.2099762 3.667511-.6150055 5.4075165-.5999908 2.625-1.6349945 5.0849762-3.0224762 7.2974854-1.9350128 3.0899963-4.5525055 5.7149963-7.6500092 7.6500092-2.2125091 1.3874815-4.6724853 2.4224852-7.2974853 3.0225218-1.7400055.4049835-3.5550384.6149597-5.4150238.6149597s-3.667511-.2099762-5.4075165-.6149597c-2.625-.6000366-5.0849762-1.6350403-7.2974854-3.022522-2.894989-1.8074799-5.3774872-4.2225037-7.2750092-7.0500183.2025146.127533.4050293.2550201.6074982.3825073 2.2125092 1.3875275 4.6725311 2.4225311 7.2975311 3.022522 1.7400055.4049835 3.5474854.6150055 5.4074707.6150055 8.4267559 0 16.0260468-4.3625793 20.3625183-11.2875366 4.8498383-7.7334995 4.8517075-17.6809845 0-25.4174652-.1274872-.2025146-.2625275-.4050293-.3900146-.6074982 2.835022 1.8974762 5.25 4.3799744 7.0575256 7.2749634 1.3874817 2.2125092 2.4224854 4.6725311 3.0224762 7.2975311.4050294 1.7400055.6150056 3.5549927.6150056 5.4149781z" fill="#f05543"></path></g></g><g><g><path d="m14.8300018 44.9312592-1.0350037 1.9275055c-2.6581507-1.6613426-5.0422935-3.8803139-6.8849945-6.5024872-.1349945-.1725311-.2550201-.3600311-.3825073-.5400238-.1274872-.2024689-.2624817-.4049835-.3900146-.6074982l1.9350128-1.0350037c.7125092-.3825073 1.5975037-.2549744 2.1750183.3224945l4.2599945 4.252533c.164978.164978.292511.352478.3825073.5625.2249909.5099945.2099762 1.1099853-.0600128 1.6199799z" fill="#fff"></path></g></g><g><g><path d="m31.9150238 49.8812866c-1.7400055.4049835-3.5550384.6149597-5.4150238.6149597s-3.667511-.2099762-5.4075165-.6149597l.6300201-2.0925293c.2400055-.7799835.9599762-1.3125 1.769989-1.3125h6.0150146c.8174744 0 1.5374908.5325165 1.7774963 1.3125z" fill="#fff"></path></g></g><g><g><path d="m46.8625183 39.2087555c-1.9350128 3.0899963-4.5525055 5.7149963-7.6500092 7.6500092l-1.0350037-1.9275055c-.3825072-.7125092-.25502-1.605011.3224946-2.1824799l4.2524872-4.252533c.5775146-.5774689 1.4625092-.7050018 2.1825256-.3224945z" fill="#fff"></path></g></g><g><g><path d="m50.5 26.5037537c0 1.8600311-.2099762 3.667511-.6150055 5.4075165l-2.0924835-.6300202c-.7800293-.2400055-1.3125-.9599762-1.3125-1.769989v-6.0224762c0-.8100128.5324707-1.5300293 1.3125-1.7700348l2.0924835-.6299744c.4050293 1.7400055.6150055 3.5549927.6150055 5.4149781z" fill="#fff"></path></g></g><g><g><path d="m46.8625183 13.7912445-1.9275055 1.0350037c-.5099945.2700348-1.1025238.2850037-1.6125183.0600128-.2099762-.0899963-.4049835-.2174835-.5700073-.3825073l-4.2524872-4.2524872c-.5775146-.5775146-.7050018-1.4700165-.3224945-2.1824799l1.0350037-1.9275055c.1950073.1274872.3974762.247467.5924835.375v.0074615c.082489.0525055.1650238.1125183.2475128.1650238 2.3480263 1.5653515 4.5622902 3.8283577 6.1125183 6.0525055.2399597.3449708.4724579.6899873.6974945 1.0499726z" fill="#fff"></path></g></g><g><g><path d="m26.5155354 42.6143913h-.0131836c-1.0517578 0-2.104248-.1018066-3.1281738-.3032227-.4064941-.079834-.6708984-.4746094-.5910645-.8811035.0791016-.4057617.4680176-.6723633.8811035-.5910645.9279785.1831055 1.8830566.2753906 2.8381348.2753906.4145508 0 .7565918.3354492.7565918.75s-.3288575.7500001-.7434082.7500001zm2.2602539-.8979492c-.0805664-.4064941.1831055-.8012695.5895996-.8811035.9353027-.1853027 1.8566895-.4650879 2.7385235-.8320313.3852539-.1567383.8217773.0227051.9807129.4050293s-.0227051.8217773-.4050293.9807129c-.9733868.4042969-1.9899883.7126465-3.0227032.9169922-.3949185.0825195-.7998295-.1764564-.8811035-.5895996zm-8.4250489-.3178711c-.9711914-.4013672-1.9086914-.9016113-2.7861328-1.486084-.3442383-.229248-.4379883-.6950684-.2080078-1.0400391.2285156-.3449707.6936035-.4372559 1.0400391-.2080078.7961426.5302734 1.645752.9836426 2.5268555 1.3483887.3830566.1582031.5646973.5969238.4064941.979248-.1585198.3841439-.5978337.5644227-.9792481.4064942zm14.0712872-1.7080078c-.2299805-.3442383-.1384277-.8100586.2058105-1.0407715.7932129-.5317383 1.5380859-1.1433105 2.2133789-1.8186035.2929688-.2929688.7675781-.2929688 1.0605469 0s.2929688.7675781 0 1.0605469c-.7441406.7441406-1.5644531 1.4187012-2.4389648 2.0046387-.3449402.2306175-.8103562.1374855-1.0407715-.2058106zm-19.3007803-1.7797852c-.7470703-.744873-1.4230957-1.5644531-2.0083008-2.4360352-.2307129-.3442383-.1391602-.8100586.2043457-1.0407715.3435059-.2321777.8085938-.1391602 1.0407715.2043457.5310059.7902832 1.144043 1.5344238 1.8222666 2.2104492.2929688.2922363.2937012.7668457.0014648 1.0605469-.2899465.2913972-.7645378.2959939-1.0605478.0014649zm23.7451162-2.2529296c-.3442383-.2299805-.4372559-.6958008-.206543-1.0400391.5324707-.7961426.9865723-1.645752 1.3513184-2.5246582.1582031-.3830566.5976563-.5632324.9799805-.4057617.3830566.1589355.5646973.5976563.4057617.9799805-.4020996.9697266-.9038086 1.9064941-1.4904785 2.7839355-.228138.341629-.6929703.4385834-1.0400391.206543zm-27.24829-2.9641114c-.4050293-.9711914-.7148438-1.987793-.9213867-3.0205078-.0812988-.4064941.182373-.8012695.5881348-.8825684.4108887-.0856934.802002.182373.8825684.5881348.1867676.9367676.4680176 1.8574219.8349609 2.737793.159668.3823242-.0212402.8210449-.4035645.9807129-.377883.158184-.8197155-.0177612-.9807129-.4035645zm29.8139639-2.4594726c-.4064941-.079834-.670166-.4746094-.5895996-.8811035.1838379-.9309082.2775879-1.8896484.2775879-2.8498535 0-.4145508.3354492-.7822266.75-.7822266s.75.3039551.75.7185059v.0637207c0 1.0583496-.1032715 2.1152344-.3068848 3.1413574-.0813485.4135303-.486805.6719894-.8811035.5895996zm-30.2973624-2.9677735c-.4138184 0-.7492676-.3222656-.7492676-.7368164 0-.1001606 0-.1030903 0-.0029297-.0007324-1.0693359.1003418-2.1174316.300293-3.1384277.079834-.4064941.4680176-.6730957.8803711-.5917969.4064941.079834.6716309.473877.5917969.8803711-.1816406.9257813-.2731934 1.8764648-.2731934 2.826416 0 .4145508-.3354492.7631836-.75.7631836zm29.6953116-3.6730957c-.1882324-.9353027-.4716797-1.855957-.8400879-2.7363281-.1604004-.3823242.0197754-.8217773.4013672-.9814453.3837891-.1625977.8210449.0197754.9814453.4013672.4072266.9719238.7192383 1.987793.9279785 3.019043.0820313.4064941-.1809082.802002-.5866699.8840332-.3982659.0808086-.8008919-.1743679-.8840332-.58667zm-28.8266592-2.2492675c-.3830566-.1582031-.5654297-.5969238-.407959-.979248.4006348-.9719238.9001465-1.9094238 1.4846191-2.7868652.229248-.3464355.6950684-.4401855 1.0393066-.2087402.3449707.229248.4387207.6950684.2087402 1.0393066-.529541.7961426-.9821777 1.6472168-1.345459 2.5275879-.1582202.3834189-.596301.5647563-.9792479.4079589zm26.624999-3.0065918c-.5332031-.7910156-1.1477051-1.5336914-1.8259277-2.2067871-.2944336-.2922363-.2958984-.7668457-.0043945-1.0605469.2922363-.2944336.7683105-.295166 1.0605469-.0043945.7478027.7426758 1.425293 1.560791 2.0134277 2.432373.2314453.3435059.140625.8100586-.2021484 1.0415039-.3463021.2321796-.8106538.1394634-1.041504-.2021484zm-23.5466299-2.1437989c-.2937012-.2922363-.295166-.7668457-.0029297-1.0605469.7419434-.7456055 1.560792-1.4216309 2.4345713-2.0097656.3442383-.2329102.8100586-.1413574 1.0407715.2028809.2314453.3435059.140625.8100586-.2028809 1.0407715-.7932129.5339355-1.5358887 1.1477051-2.2089844 1.8237305-.2916994.2931575-.7663087.2956981-1.0605478.0029296zm19.4999991-1.8735351c-.7961426-.529541-1.6472168-.9814453-2.5283203-1.3439941-.3830547-.1574707-.5661602-.595459-.4086895-.9785156s.5961895-.567627.9785137-.4086914c.9726563.3991699 1.9108887.8979492 2.7890625 1.4816895.3449707.229248.4387207.6950684.2094727 1.0400391-.2298165.3464783-.6981698.4373835-1.0400391.2094725zm-14.6901837-1.7153321c-.159668-.3815918.0212402-.8210449.4035645-.9807129.9697266-.4050293 1.9863281-.7155762 3.0197754-.923584.4057617-.0864258.8012695.1816406.8833008.5874023.0812988.4064941-.1816406.8012695-.5874023.8833008-.9375.1882324-1.8588867.4702148-2.7385254.8371582-.3742352.1578809-.8190289-.0161113-.980713-.4035644zm9.4196778-.449707c-.918457-.1787109-1.8632813-.2695313-2.8088379-.2695313-.4145508 0-.7727051-.3354492-.7727051-.75s.3134766-.75.7280273-.75h.0446777c1.0415039 0 2.0830078.1003418 3.0959473.2973633.4064941.0791016.6716309.4731445.5925293.8796387-.0798359.4109411-.4788379.6714754-.8796386.5925293z" fill="#fff"></path></g></g><g><g><path d="m31.9150238 3.1187592-.6300201 2.0924835c-.2400055.7800293-.960022 1.3125-1.7774963 1.3125h-6.0150146c-.8100128 0-1.5299835-.5324707-1.769989-1.3125l-.6300201-2.0924835c1.7400053-.4049836 3.5475309-.6150055 5.4075163-.6150055s3.6750183.2100219 5.4150238.6150055z" fill="#fff"></path></g></g><g><g><path d="m14.5075073 10.2512665-4.2599945 4.2524872c-.5775146.5775146-1.4625092.7050018-2.1750183.3224945l-1.9350128-1.0350037c1.9350128-3.0899963 4.5600128-5.7149963 7.6575165-7.6499634l1.0350037 1.9275055c.3825073.7124634.2475127 1.6049652-.3224946 2.1824799z" fill="#fff"></path></g></g><g><g><path d="m6.5274963 23.4887848v6.0224762c0 .8100128-.5325165 1.5299835-1.3125 1.769989l-2.0999908.6375275c-.4049835-1.7400055-.6150055-3.5549927-.6150055-5.4150238 0-1.8674927.210022-3.6824799.6150055-5.4224854l2.0999908.6374817c.7799836.2400055 1.3125.960022 1.3125 1.7700348z" fill="#fff"></path></g></g><g><g><path d="m39.056591 26.4958439c0 6.9346142-5.6224289 12.5569935-12.5569935 12.5569935-6.9263039 0-12.5486822-5.6223793-12.5486822-12.5569935 0-6.9262524 5.6223783-12.5486822 12.5486822-12.5486822 6.9345646 0 12.5569935 5.6224298 12.5569935 12.5486822z" fill="#fff"></path></g></g><g><g><g><g><path d="m18.1862202 29.6111546c-.3185902-.3169994-.3201809-.8322563-.0031815-1.1513767.3170013-.3191185.8322582-.320179 1.1513767-.0031796.3875046.3837929 1.0151424.3832626 1.4005241-.0026512.3827324-.3832607.3827324-1.0066586 0-1.3899212-.3827324-.3806114-1.0103703-.3816719-1.3962822.002121-.2332439.231123-.5831108.2995052-.8863277.173872-.3037472-.1261635-.5014744-.4230194-.5014744-.7516804v-3.0454235c0-.4495239.3647099-.8142338.8142338-.8142338h2.9038868c.4495239 0 .8142319.3647099.8142319.8142338s-.3647079.8142338-.8142319.8142338h-2.089653v.9350948c.8121128-.1415367 1.6793556.0964794 2.3048725.7182846 1.0199127 1.0199127 1.0199127 2.6764736.0026512 3.6947956-1.018444 1.0173893-2.6767616 1.0233097-3.7006263.0058308z" fill="#474646"></path></g></g></g><g><g><g><path d="m26.4507999 30.3726635c-1.4430466 0-2.6172256-1.1741791-2.6172256-2.6172256v-2.5108757c0-1.4430466 1.1741791-2.6172256 2.6172256-2.6172256 1.4435902 0 2.6177692 1.1741791 2.6177692 2.6172256v2.5108757c.0000001 1.4430465-1.174179 2.6172256-2.6177692 2.6172256zm0-6.2379284c-.6119041 0-1.109827.4979229-1.109827 1.109827v2.5108757c0 .6119041.4979229 1.109827 1.109827 1.109827.6119022 0 1.1103706-.4979229 1.1103706-1.109827v-2.5108757c.0000001-.6119041-.4984683-1.109827-1.1103706-1.109827z" fill="#474646"></path></g></g></g><g><g><g><path d="m32.9970589 30.3726635c-1.4430447 0-2.6172218-1.1741791-2.6172218-2.6172256v-2.5108757c0-1.4430466 1.1741772-2.6172256 2.6172218-2.6172256 1.4435921 0 2.6177711 1.1741791 2.6177711 2.6172256v2.5108757c0 1.4430465-1.1741791 2.6172256-2.6177711 2.6172256zm0-6.2379284c-.6119003 0-1.1098232.4979229-1.1098232 1.109827v2.5108757c0 .6119041.4979229 1.109827 1.1098232 1.109827.6119041 0 1.1103706-.4979229 1.1103706-1.109827v-2.5108757c0-.6119041-.4984665-1.109827-1.1103706-1.109827z" fill="#474646"></path></g></g></g></g><g><g><path d="m14.8900146 43.3112793c.2249908.5099945.2099762 1.1099854-.0600128 1.6199799l-1.0350037 1.9275055c-2.6581507-1.6613426-5.0422935-3.8803139-6.8849945-6.5024872-.1349945-.1725311-.2550201-.3600311-.3825073-.5400238.2025146.1200256.397522.2475128.5999908.375 2.2125092 1.3875275 4.6725311 2.4225311 7.2975311 3.022522.1574708.0374908.30748.0674743.4649964.0975036z" fill="#e4e3ff"></path></g></g><g><g><path d="m31.2850037 47.7887573.6300201 2.0925293c-1.7400055.4049835-3.5550384.6149597-5.4150238.6149597s-3.667511-.2099762-5.4075165-.6149597l.6300201-2.0925293c.2400055-.7799835.9599762-1.3125 1.769989-1.3125h6.0150146c.8174745 0 1.537491.5325165 1.7774965 1.3125z" fill="#e4e3ff"></path></g></g><g><g><path d="m44.9350128 38.1737518 1.9275055 1.0350037c-1.9350128 3.0899963-4.5525055 5.7149963-7.6500092 7.6500092l-1.0350037-1.9275055c-.3825072-.7125092-.25502-1.605011.3224946-2.1824799l4.2524872-4.252533c.5775146-.5774688 1.4625091-.7050018 2.1825256-.3224945z" fill="#e4e3ff"></path></g></g><g><g><path d="m40.1950073 7.1237793c-.1274872-.2025146-.2625275-.397522-.3900146-.6000366v-.0074616c.082489.0525055.1650238.1124725.2475128.1724854 2.3480263 1.5653515 4.5622902 3.8283577 6.1125183 6.0525055.2399597.3449707.4724579.6899872.6974945 1.0499725l-1.9275055 1.0350037c-.5099945.2700348-1.1025238.2850037-1.6125183.0600128-.0374908-.1575165-.0674744-.3074799-.105011-.4649963-.5999908-2.6250001-1.6349945-5.085022-3.0224762-7.2974854z" fill="#e4e3ff"></path></g></g><g><g><path d="m50.5 26.5037537c0 1.8600311-.2099762 3.667511-.6150055 5.4075165l-2.0924835-.6300202c-.7800293-.2400055-1.3125-.9599762-1.3125-1.769989v-6.0224762c0-.8100128.5324707-1.5300293 1.3125-1.7700348l2.0924835-.6299744c.4050293 1.7400055.6150055 3.5549927.6150055 5.4149781z" fill="#e4e3ff"></path></g></g></g></svg>