<!-- icon666.com - MILLIONS vector ICONS FREE --><svg id="Layer_1" enable-background="new 0 0 53 53" viewBox="0 0 53 53" xmlns="http://www.w3.org/2000/svg"><g id="_x31_41"><g><g><path d="m50.5 26.5037537c0 1.8600311-.2099762 3.667511-.6150055 5.4075165-.5999908 2.625-1.6349945 5.0849762-3.0224762 7.2974854-1.9350128 3.0899963-4.5525055 5.7149963-7.6500092 7.6500092-2.2125091 1.3874815-4.6724853 2.4224852-7.2974853 3.0225218-1.7400055.4049835-3.5550384.6149597-5.4150238.6149597s-3.667511-.2099762-5.4075165-.6149597c-2.625-.6000366-5.0849762-1.6350403-7.2974854-3.022522-3.0975037-1.9350128-5.7225037-4.5600128-7.6575165-7.6500092-1.3874816-2.2125091-2.4149779-4.6724853-3.0224761-7.2899779-.4049835-1.7400055-.6150055-3.5549927-.6150055-5.4150238 0-1.8674927.210022-3.6824799.6150055-5.4224854.6074982-2.6174927 1.6349945-5.0775146 3.0224762-7.2900238 1.9350128-3.0899963 4.5600128-5.7149963 7.6575165-7.6499634 2.2125092-1.3875275 4.6724854-2.4225311 7.2974854-3.022522 1.7400054-.4049835 3.547531-.6150054 5.4075164-.6150054s3.6750183.210022 5.4150238.6150055c2.625.5999908 5.0849762 1.6349945 7.2974854 3.0225219 3.0975037 1.934967 5.7149963 4.559967 7.6500092 7.6499634 1.3874817 2.2125092 2.4224854 4.6725311 3.0224762 7.2975311.4050292 1.7400055.6150054 3.5549927.6150054 5.4149781z" fill="#00d67f"></path></g></g><g><g><path d="m50.5 26.5037537c0 1.8600311-.2099762 3.667511-.6150055 5.4075165-.5999908 2.625-1.6349945 5.0849762-3.0224762 7.2974854-1.9350128 3.0899963-4.5525055 5.7149963-7.6500092 7.6500092-2.2125091 1.3874815-4.6724853 2.4224852-7.2974853 3.0225218-1.7400055.4049835-3.5550384.6149597-5.4150238.6149597s-3.667511-.2099762-5.4075165-.6149597c-2.625-.6000366-5.0849762-1.6350403-7.2974854-3.022522-2.894989-1.8074799-5.3774872-4.2225037-7.2750092-7.0500183.2025146.127533.4050293.2550201.6074982.3825073 2.2125092 1.3875275 4.6725311 2.4225311 7.2975311 3.022522 1.7400055.4049835 3.5474854.6150055 5.4074707.6150055 11.4715977 0 20.9719162-8.0276337 23.3849945-18.585022.824482-3.5419674.8160629-7.3166904 0-10.8224945-.7417488-3.2451944-1.8827171-5.4754725-3.4124908-7.9049835 2.835022 1.8974762 5.25 4.3799744 7.0575256 7.2749634 1.3874817 2.2125092 2.4224854 4.6725311 3.0224762 7.2975311.4050294 1.7400055.6150056 3.5549927.6150056 5.4149781z" fill="#00c179"></path></g></g><g><g><path d="m14.8300018 44.9312592-1.0350037 1.9275055c-2.5727386-1.6079636-4.9992571-3.8190727-6.8849945-6.5024872-.1349945-.1725311-.2550201-.3600311-.3825073-.5400238-.1274872-.2024689-.2624817-.4049835-.3900146-.6074982l1.9350128-1.0350037c.7125092-.3825073 1.5975037-.2549744 2.1750183.3224945l4.2599945 4.252533c.164978.164978.292511.352478.3825073.5625.2249909.5099945.2099762 1.1099853-.0600128 1.6199799z" fill="#e4e3ff"></path></g></g><g><g><path d="m31.9150238 49.8812866c-1.7400055.4049835-3.5550384.6149597-5.4150238.6149597s-3.667511-.2099762-5.4075165-.6149597l.6300201-2.0925293c.2400055-.7799835.9599762-1.3125 1.769989-1.3125h6.0150146c.8174744 0 1.5374908.5325165 1.7774963 1.3125z" fill="#e4e3ff"></path></g></g><g><g><path d="m46.8625183 39.2087555c-1.9350128 3.0899963-4.5525055 5.7149963-7.6500092 7.6500092l-1.0350037-1.9275055c-.3825072-.7125092-.25502-1.605011.3224946-2.1824799l4.2524872-4.252533c.5775146-.5774689 1.4625092-.7050018 2.1825256-.3224945z" fill="#e4e3ff"></path></g></g><g><g><path d="m50.5 26.5037537c0 1.8600311-.2099762 3.667511-.6150055 5.4075165l-2.0924835-.6300202c-.7800293-.2400055-1.3125-.9599762-1.3125-1.769989v-6.0224762c0-.8100128.5324707-1.5300293 1.3125-1.7700348l2.0924835-.6299744c.4050293 1.7400055.6150055 3.5549927.6150055 5.4149781z" fill="#e4e3ff"></path></g></g><g><g><path d="m46.8625183 13.7912445-1.9275055 1.0350037c-.5099945.2700348-1.1025238.2850037-1.6125183.0600128-.2099762-.0899963-.4049835-.2174835-.5700073-.3825073l-4.2524872-4.2524872c-.5775146-.5775146-.7050018-1.4700165-.3224945-2.1824799l1.0350037-1.9275055c.1950073.1274872.3974762.247467.5924835.375v.0074615c2.1515923 1.3695216 4.6113358 3.7086391 6.3600311 6.2175293.2399597.3449708.4724579.6899873.6974945 1.0499726z" fill="#e4e3ff"></path></g></g><g><g><path d="m14.8900146 43.3112793c.2249908.5099945.2099762 1.1099854-.0600128 1.6199799l-1.0350037 1.9275055c-2.5727386-1.6079636-4.9992571-3.8190727-6.8849945-6.5024872-.1349945-.1725311-.2550201-.3600311-.3825073-.5400238.2025146.1200256.397522.2475128.5999908.375 2.2125092 1.3875275 4.6725311 2.4225311 7.2975311 3.022522.1574708.0374908.30748.0674743.4649964.0975036z" fill="#d2d2f7"></path></g></g><g><g><path d="m31.2850037 47.7887573.6300201 2.0925293c-1.7400055.4049835-3.5550384.6149597-5.4150238.6149597s-3.667511-.2099762-5.4075165-.6149597l.6300201-2.0925293c.2400055-.7799835.9599762-1.3125 1.769989-1.3125h6.0150146c.8174745 0 1.537491.5325165 1.7774965 1.3125z" fill="#d2d2f7"></path></g></g><g><g><path d="m44.9350128 38.1737518 1.9275055 1.0350037c-1.9350128 3.0899963-4.5525055 5.7149963-7.6500092 7.6500092l-1.0350037-1.9275055c-.3825072-.7125092-.25502-1.605011.3224946-2.1824799l4.2524872-4.252533c.5775146-.5774688 1.4625091-.7050018 2.1825256-.3224945z" fill="#d2d2f7"></path></g></g><g><g><path d="m39.8049927 6.5237427v-.0074616c2.0990715 1.3360896 4.5918503 3.6881447 6.3600311 6.2249908.2399597.3449707.4724579.6899872.6974945 1.0499725l-1.9275055 1.0350037c-.5099945.2700348-1.1025238.2850037-1.6125183.0600128-.0374908-.1575165-.0674744-.3074799-.105011-.4649963-.7438087-3.2542123-1.8735847-5.4529533-3.4124908-7.8975219z" fill="#d2d2f7"></path></g></g><g><g><path d="m50.5 26.5037537c0 1.8600311-.2099762 3.667511-.6150055 5.4075165l-2.0924835-.6300202c-.7800293-.2400055-1.3125-.9599762-1.3125-1.769989v-6.0224762c0-.8100128.5324707-1.5300293 1.3125-1.7700348l2.0924835-.6299744c.4050293 1.7400055.6150055 3.5549927.6150055 5.4149781z" fill="#d2d2f7"></path></g></g><g><g><path d="m26.5160103 42.4270973h-.0131836c-1.0378418 0-2.0778809-.1003418-3.0908203-.2988281-.3046875-.0600586-.5031738-.3552246-.4438477-.6606445.060791-.3046875.3581543-.4980469.6606445-.4438477.9418945.1845703 1.9086914.2783203 2.8740234.2783203.3105469 0 .5690918.2519531.5690918.5625s-.2453612.5625-.5559081.5625zm2.4448242-.7470703c-.060791-.3046875.1369629-.6013184.4416504-.661377.9484863-.1889648 1.8823242-.4724121 2.7744141-.8430176.2900391-.1186523.6174316.0168457.7353516.3032227.1193848.2871094-.0168457.6159668-.3032227.7353516-.9609375.3991699-1.9658203.7045898-2.9868164.9074707-.3125611.0612869-.602583-.1435967-.661377-.4416504zm-8.5371094-.4541016c-.9602051-.3969727-1.8867188-.8913574-2.7539063-1.4692383-.2585449-.1721191-.328125-.5214844-.1560059-.7800293.1713867-.2578125.520752-.328125.7800293-.1560059.8056641.5368652 1.6669922.9968262 2.559082 1.3652344.2871094.1186523.4240723.4475098.3054199.7346191-.1168974.281315-.4396284.4252588-.734619.30542zm14.15625-1.6398925c-.1728516-.2578125-.1040039-.6079102.1538086-.7807617.8041992-.5390625 1.5578613-1.1586914 2.2412109-1.842041.2197266-.2197266.5756836-.2197266.7954102 0s.2197266.5756836 0 .7954102c-.7346191.7346191-1.5454102 1.401123-2.409668 1.9812012-.2606239.1737517-.6092414.10231-.7807617-.1538087zm-19.3249511-1.8076172c-.7390137-.736084-1.4069824-1.546875-1.9855957-2.4082031-.1728516-.2578125-.1040039-.6071777.1538086-.7807617s.6071777-.1040039.7807617.1538086c.5375977.8005371 1.1586914 1.5534668 1.8449707 2.2382813.220459.2197266.220459.5756836.0014648.7954102-.2184152.2198714-.574358.2210425-.7954101.0014647zm23.7165527-2.2778321c-.2585449-.1728516-.3273926-.5222168-.154541-.7800293.5383301-.8049316.9990234-1.6647949 1.3688965-2.5561523.1179199-.2878418.4489746-.4226074.7346191-.3039551.2871094.1186523.4233398.4475098.3039551.7346191-.3969727.9594727-.8928223 1.8845215-1.4729004 2.7509766-.1727715.2579918-.5222435.3277092-.7800293.154541zm-27.1801758-2.8784179c-.3999023-.9602051-.7067871-1.9650879-.9104004-2.9868164-.060791-.3046875.1369629-.6005859.4416504-.661377.2958984-.0615234.5998535.1362305.661377.4416504.1896973.9484863.473877 1.8815918.8459473 2.7729492.1193848.2871094-.0161133.6166992-.3024902.736084-.2925645.1206474-.6183005-.0209579-.7360841-.3024902zm29.6777344-2.5722656c-.3046875-.0600586-.5031738-.355957-.4423828-.6606445.1867676-.942627.28125-1.9138184.28125-2.8864746 0-.3105469.2519531-.5947266.5625-.5947266s.5625.2189941.5625.529541v.0651855c0 1.0458984-.1018066 2.090332-.3032227 3.1047363-.0599212.3046093-.3560982.5032921-.6606445.4423829zm-30.3339844-2.9707032c-.3105469 0-.5625-.2380371-.5625-.548584v-.027832c0-1.0334473.1003418-2.0690918.2973633-3.0783691.0600586-.3039551.3574219-.4987793.6606445-.4438477.3046875.0600586.5031738.3552246.4438477.6606445-.1838379.9375-.2768555 1.9006348-.2768555 2.8615723 0 .3105469-.2519531.576416-.5625.576416zm29.8791504-3.524414c-.1918945-.9484863-.4790039-1.8815918-.8518066-2.7722168-.1201172-.286377.0146484-.6159668.3010254-.736084.2878418-.121582.6166992.0146484.736084.3010254.4020996.9594727.7104492 1.9628906.9177246 2.9831543.0615234.3046875-.135498.6013184-.4394531.6635742-.3164674.0608597-.6033479-.1432133-.6635743-.4394531zm-28.9401855-2.3840332c-.2871094-.1186523-.4240723-.4475098-.3054199-.7346191.3962402-.9609375.8898926-1.8881836 1.4677734-2.7546387.1721191-.2578125.520752-.328125.7800293-.1560059.2585449.1721191.328125.5214844.1560059.7800293-.5368652.8049316-.9953613 1.6662598-1.3637695 2.5598145-.1158906.2811794-.4393455.4253749-.7346192.3054199zm26.7106933-2.939209c-.5419922-.802002-1.1645508-1.5534668-1.8508301-2.2353506-.220459-.2189941-.2219238-.5749512-.0029297-.7954102s.5749512-.2219238.7954102-.0029297c.7382813.7331543 1.4077148 1.5417471 1.9899902 2.4038076.1743164.2578125.1062012.6071777-.1508789.7807617-.2595939.1750298-.6085395.1051274-.7807617-.1508788zm-23.5715332-2.1708985c-.2197266-.2189932-.2211914-.5749502-.0014648-.7954092.7331543-.7368164 1.5424805-1.4047852 2.4060059-1.9863281.2600098-.1743164.6086426-.1047363.7807617.1523438.173584.2578125.1054688.6071777-.1523438.7807617-.8027344.5405273-1.5556641 1.1616211-2.2375488 1.847167-.2206278.2206287-.5765839.2202911-.7954102.0014648zm19.4714356-1.8984365c-.8078613-.5361328-1.6691895-.9938965-2.5612793-1.3608398-.2871094-.1179199-.4248047-.4460449-.3061523-.7338867.1193848-.2878418.4475098-.4255371.7338867-.3061523.9594727.394043 1.8867188.8862305 2.7561035 1.4633789.2585449.1721191.3288574.520752.1574707.7800293-.1717606.2576426-.520794.3296355-.7800293.1574706zm-14.6213379-1.6289063c-.1193848-.286377.0153809-.6159668.3024902-.736084.9609375-.4013672 1.9658203-.7089844 2.9853516-.9133301.3054199-.0622559.6005859.135498.6621094.440918.060791.3046875-.1362305.6013184-.440918.6621094-.9470215.1896973-1.880127.4753418-2.7729492.848877-.282795.1178312-.6141224-.0123406-.736084-.3024903zm9.2827148-.5625c-.9301758-.1816406-1.8867188-.2731934-2.8432617-.2731934-.3105469 0-.5852051-.2519531-.5852051-.5625s.2285156-.5625.5390625-.5625h.0461426c1.0283203 0 2.057373.098877 3.0585938.2937012.3046875.0593262.5039063.3552246.4445801.6599121-.0571271.2911931-.3356725.5029431-.6599122.4445801z" fill="#fff"></path></g></g><g><g><path d="m31.9150238 3.1187592-.6300201 2.0924835c-.2400055.7800293-.960022 1.3125-1.7774963 1.3125h-6.0150146c-.8100128 0-1.5299835-.5324707-1.769989-1.3125l-.6300201-2.0924835c1.7400053-.4049836 3.5475309-.6150055 5.4075163-.6150055s3.6750183.2100219 5.4150238.6150055z" fill="#e4e3ff"></path></g></g><g><g><path d="m14.5075073 10.2512665-4.2599945 4.2524872c-.5775146.5775146-1.4625092.7050018-2.1750183.3224945l-1.9350128-1.0350037c1.9350128-3.0899963 4.5600128-5.7149963 7.6575165-7.6499634l1.0350037 1.9275055c.3825073.7124634.2475127 1.6049652-.3224946 2.1824799z" fill="#e4e3ff"></path></g></g><g><g><path d="m6.5274963 23.4887848v6.0224762c0 .8100128-.5325165 1.5299835-1.3125 1.769989l-2.0999908.6375275c-.4049835-1.7400055-.6150055-3.5549927-.6150055-5.4150238 0-1.8674927.210022-3.6824799.6150055-5.4224854l2.0999908.6374817c.7799836.2400055 1.3125.960022 1.3125 1.7700348z" fill="#e4e3ff"></path></g></g><g><g><path d="m38.5588226 26.4960079c0 6.6596317-5.3994789 12.0590611-12.0590611 12.0590611-6.6516476 0-12.0510769-5.3994293-12.0510769-12.0590611 0-6.6515999 5.3994293-12.0510769 12.0510769-12.0510769 6.6595822 0 12.0590611 5.399477 12.0590611 12.0510769z" fill="#fff"></path></g></g><g><g><path d="m38.5622559 26.4933815c0 6.6600037-5.3999634 12.0600128-12.0599651 12.0600128-4.0800018 0-7.6950073-2.0325165-9.8700256-5.1450348 1.9500275 1.3650055 4.3200073 2.1600037 6.877533 2.1600037 6.6599579 0 12.0599651-5.3999634 12.0599651-12.059967 0-2.565033-.8025055-4.9425201-2.1749725-6.9000092 3.127487 2.1749725 5.1674651 5.789978 5.1674651 9.8849945z" fill="#e4e3ff"></path></g></g><g><g><g><path d="m26.1331959 31.8472481c-.923584 0-1.847168-.3500977-2.5517578-1.050293-.4401855-.4379883-.4423828-1.1499023-.0043945-1.5908203s1.1499023-.4423828 1.5908203-.0043945c.5354004.5302734 1.4025879.529541 1.9350586-.0036621.5288086-.529541.5288086-1.3908691 0-1.9204102-.5288086-.5258789-1.3959961-.5273438-1.9291992.0029297-.3222656.3193359-.8056641.4138184-1.2246094.2402344-.4196777-.1743164-.6928711-.5844727-.6928711-1.0385742v-4.2077637c0-.6210938.5039063-1.125 1.125-1.125h4.012207c.6210938 0 1.125.5039063 1.125 1.125s-.5039063 1.125-1.125 1.125h-2.887207v1.2919922c1.1220703-.1955566 2.3203125.1333008 3.1845703.9924316 1.4091797 1.4091797 1.4091797 3.697998.0036621 5.1049805-.7060547.7053222-1.6333008 1.0583496-2.5612793 1.0583496z" fill="#474646"></path></g></g></g></g></svg>