<!-- icon666.com - MILLIONS vector ICONS FREE --><svg id="Capa_1" enable-background="new 0 0 512 512" viewBox="0 0 512 512" xmlns="http://www.w3.org/2000/svg"><g><path d="m384 256-128 256c-34.71 0-67.8-6.92-97.99-19.44l-83.03-55.54c-23.58-23.58-42.57-51.75-55.54-83.03l-19.44-97.99c0-34.71 6.92-67.8 19.44-97.99l55.54-83.03c23.58-23.58 51.75-42.57 83.03-55.54l97.99-19.44z" fill="#ff3d58"></path><path d="m512 256c0 34.71-6.92 67.8-19.44 97.99l-55.54 83.03c-23.58 23.58-51.75 42.57-83.03 55.54l-97.99 19.44v-512c34.71 0 67.8 6.92 97.99 19.44l83.03 55.54c23.58 23.58 42.57 51.75 55.54 83.03z" fill="#c50045"></path><path d="m423.02 325.18 69.54 28.81c-12.97 31.28-31.96 59.45-55.54 83.03l-53.21-53.21c-16.65 16.65-36.53 30.05-58.63 39.21l28.81 69.54c-30.19 12.52-63.28 19.44-97.99 19.44v-75.25c-24.51 0-47.87-4.89-69.18-13.73l-28.81 69.54c-31.28-12.97-59.45-31.96-83.03-55.54l53.21-53.21c-16.65-16.65-30.05-36.53-39.21-58.63l-69.54 28.81c-12.52-30.19-19.44-63.28-19.44-97.99h75.25c0-24.51 4.89-47.87 13.73-69.18l-69.54-28.81c12.97-31.28 31.96-59.45 55.54-83.03l53.21 53.21c16.65-16.65 36.53-30.05 58.63-39.21l-28.81-69.54c30.19-12.52 63.28-19.44 97.99-19.44v75.25c24.51 0 47.87 4.89 69.18 13.73l28.81-69.54c31.28 12.97 59.45 31.96 83.03 55.54l-53.21 53.21c16.65 16.65 30.05 36.53 39.21 58.63l69.54-28.81c12.52 30.19 19.44 63.28 19.44 97.99h-75.25c0 24.51-4.89 47.87-13.73 69.18z" fill="#5f3463"></path><path d="m423.02 325.18 69.54 28.81c-12.97 31.28-31.96 59.45-55.54 83.03l-53.21-53.21c-16.65 16.65-36.53 30.05-58.63 39.21l28.81 69.54c-30.19 12.52-63.28 19.44-97.99 19.44v-436.75c24.51 0 47.87 4.89 69.18 13.73l28.81-69.54c31.28 12.97 59.45 31.96 83.03 55.54l-53.21 53.21c16.65 16.65 30.05 36.53 39.21 58.63l69.54-28.81c12.52 30.19 19.44 63.28 19.44 97.99h-75.25c0 24.51-4.89 47.87-13.73 69.18z" fill="#462347"></path><circle cx="256" cy="256" fill="#f4f2ff" r="180.75"></circle><path d="m436.75 256c0 99.83-80.92 180.75-180.75 180.75v-361.5c99.83 0 180.75 80.92 180.75 180.75z" fill="#e2dff5"></path><path d="m210.875 203.369-15.125 24.507-15.125-24.507v-22.619h-30v31.131l27.498 44.556-27.498 44.556v30.256h30v-21.744l15.125-24.507 15.125 24.507v21.744h30v-30.256l-27.498-44.556 27.498-44.556v-31.131h-30z" fill="#5f3463"></path><path d="m316.25 180.749c-24.882 0-45.125 20.243-45.125 45.125h30c0-8.34 6.785-15.125 15.125-15.125s15.125 6.785 15.125 15.125-6.785 15.125-15.125 15.125h-16v30h16c8.34 0 15.125 6.785 15.125 15.125s-6.785 15.125-15.125 15.125-15.125-6.785-15.125-15.125h-30c0 24.882 20.243 45.125 45.125 45.125s45.125-20.243 45.125-45.125c0-11.568-4.38-22.13-11.563-30.125 7.183-7.995 11.563-18.557 11.563-30.125 0-24.882-20.243-45.125-45.125-45.125z" fill="#462347"></path><path d="m90.25 256c0-91.4 74.35-165.75 165.75-165.75l11.479-15-11.479-15c-107.94 0-195.75 87.81-195.75 195.75s87.81 195.75 195.75 195.75l11.479-15-11.479-15c-91.4 0-165.75-74.35-165.75-165.75z" fill="#ff8f52"></path><path d="m256 60.25v30c91.4 0 165.75 74.35 165.75 165.75s-74.35 165.75-165.75 165.75v30c107.94 0 195.75-87.81 195.75-195.75s-87.81-195.75-195.75-195.75z" fill="#ff3d58"></path></g></svg>