<!-- icon666.com - MILLIONS vector ICONS FREE --><svg viewBox="0 0 64 64" xmlns="http://www.w3.org/2000/svg"><g id="Layer_20" data-name="Layer 20"><path d="m61 32c0 13.78-8.86 26.884-22.281 30.823a29.97 29.97 0 0 1 -31.753-10.47 33.46 33.46 0 0 1 -2.972-36.19 31.33 31.33 0 0 1 13.878-13.3c5.777-2.763 13.928-4.57 19.634-.763 2.4 1.6 4.3 3.835 6.329 5.859a12.112 12.112 0 0 0 3.129 2.631 20.457 20.457 0 0 0 3.825 1.141 18.029 18.029 0 0 1 3.865 1.216c1.352.681 1.742 1.783 2.311 3.086.708 1.622 1.542 3.159 2.135 4.835a33.037 33.037 0 0 1 1.411 5.393 33.832 33.832 0 0 1 .489 5.739z" fill="#ed1c24"></path><path d="m61 32a32.925 32.925 0 0 1 -8.323 21.956 30.149 30.149 0 0 1 -20.75 10.011c-13.64.674-25.88-8.53-30.186-21.286a33.571 33.571 0 0 1 1.819-25.691 63.09 63.09 0 0 0 2.674 21.72c2.658 8.074 7.989 15.111 16.317 17.809 6.2 2.009 12.953 1.553 19.239.2a65.51 65.51 0 0 1 -2.754-18.171 17.919 17.919 0 0 1 1.227-8 31.037 31.037 0 0 1 4.76-7.389 65.678 65.678 0 0 1 7.017-7.129c-1.518-1.528-4.478-1.615-6.461-1.9-2.393-.344-4.814-.885-6.3-2.974-1.563-2.2-.992-5.118-2.56-7.312-1.644-2.303-4.745-3.183-7.359-3.824a13.569 13.569 0 0 1 9.284 2.92c2.586 2.06 4.629 4.702 7.128 6.86 2.179 1.881 5.545 1.829 8.146 2.833a3.889 3.889 0 0 1 2.162 1.937 30.859 30.859 0 0 1 2 3.759 33.235 33.235 0 0 1 2.92 13.671z" opacity=".2"></path><path d="m56.4 14.719c-5.83 4.181-11.538 10.059-14.107 16.846-2.775 7.334-.827 16.028 1.171 23.322a50.621 50.621 0 0 0 2.265 7.113 65.74 65.74 0 0 0 13.514-13.681c2.407-3.347 4.463-7.1 4.723-11.289a29.286 29.286 0 0 0 -2.419-12.312 55.813 55.813 0 0 0 -5.147-9.999z" fill="#349a46"></path><path d="m56.613 15.05a75.571 75.571 0 0 1 -1.045 20.55 82.237 82.237 0 0 1 -5.706 17.466c-1.3 3-2.676 5.957-4.087 8.9a23.738 23.738 0 0 1 1.888-1.544q1.833-1.548 3.578-3.194a63.391 63.391 0 0 0 7.9-8.761c2.377-3.276 4.459-6.968 4.8-11.074a28.256 28.256 0 0 0 -2.2-12.19 52.39 52.39 0 0 0 -5.128-10.153z" fill="#39b54a"></path><path d="m56.96 20.3a79.875 79.875 0 0 1 -3.66 24.174c-.986 3.026-2.3 5.971-3.57 8.889q-1.033 2.385-2.118 4.746a21.939 21.939 0 0 1 -1.882 3.891c-.179-.4.4-1.237.571-1.63q.525-1.181 1.04-2.365 1.075-2.465 2.118-4.944c1.132-2.694 2.307-5.4 3.2-8.191a61.849 61.849 0 0 0 2.488-13.222 75.414 75.414 0 0 0 .134-13.606c-.234-2.5-.569-4.994-.926-7.481-.184-1.282-.366-2.564-.565-3.843a6.285 6.285 0 0 1 -.265-1.7c.081-.453-.023-.334.49-.427.438-.078.879-.146 1.32-.207.633 5.26 1.625 10.601 1.625 15.916z" fill="#068c38"></path><path d="m61 5.747v1.666a1.693 1.693 0 0 1 -1.67 1.717c-2.91-.01-9.45-.375-13.33 1.87-1.11-.259-1.88-1.71-2-2 2.58-2.721 6.16-4.618 15.26-4.97a1.7 1.7 0 0 1 1.74 1.717z" fill="#534741"></path><g fill="#fff"><path d="m52.04 16.03c-.95.84-1.99 1.79-3.04 2.84-5.45-.49-9.45-2.32-12-4.87-3-3-1-5-4-9-2.21-2.95-9.31-3.18-12.89-3.1a29.353 29.353 0 0 1 9.25-1.88c2.57.63 5.25 1.59 6.64 2.98 3 3 1 6 4 9s8.61 1.45 12 4c.01.01.03.02.04.03z" opacity=".4"></path><path d="m17 19c-4.635 8.613-2.989 16.207-4.133 16.167-1.391-.049-5.26-10.181-.867-18.167 4.184-7.606 14.374-10.433 15.191-9.325.668.906-5.826 3.213-10.191 11.325z" opacity=".4"></path></g></g></svg>