<!-- icon666.com - MILLIONS vector ICONS FREE --><svg viewBox="0 0 64 64" xmlns="http://www.w3.org/2000/svg"><g id="Layer_25" data-name="Layer 25"><rect fill="#ffd447" height="42" rx="4" width="64" y="12"></rect><path d="m0 30h64a0 0 0 0 1 0 0v20a4 4 0 0 1 -4 4h-56a4 4 0 0 1 -4-4v-20a0 0 0 0 1 0 0z" fill="#fc0"></path><g fill="#da0037"><path d="m18.1364 30.8721a8.3559 8.3559 0 0 1 2.9454 6.2509 9.0256 9.0256 0 0 1 -2.3174 6.1182 8.54 8.54 0 0 1 -2.7559 1.9951 8.4505 8.4505 0 0 1 -3.6094.76h-9.3857c-.1279 0-.1973-.0313-.21-.0952a.2434.2434 0 0 1 .0957-.209q.8351-.7215.836-3.1538v-19.0383q0-2.4309-.836-3.1538a.1831.1831 0 0 1 -.0957-.19c.0127-.0762.0821-.1143.21-.1143h9.3857a6.5781 6.5781 0 0 1 3.6856 1.0449 7.0339 7.0339 0 0 1 2.4326 2.6411 7.3086 7.3086 0 0 1 .8164 3.5152 6.4059 6.4059 0 0 1 -1.1973 3.629zm-9.1953-2.2041h3.4834a1.71 1.71 0 1 0 0-3.42h-3.4834zm3.458 12.122a3.3711 3.3711 0 0 0 2.4512-.9878 3.2748 3.2748 0 0 0 1.0068-2.4322 3.553 3.553 0 0 0 -.2666-1.3681 3.398 3.398 0 0 0 -.74-1.1211 3.4281 3.4281 0 0 0 -2.4512-1.0069h-3.4582v6.9161z" fill="#da0037" style="fill: rgb(224, 27, 36);"></path><path d="m41.7341 45.6919c.0762.0762.1016.1465.0762.209s-.0889.0952-.1895.0952h-6.7008c-.1015 0-.165-.0313-.19-.0952s0-.1328.0762-.209q.8481-.6834.8486-3.1538v-3.4581h-6.9158v3.458q0 2.4705.873 3.1538.3048.3047-.1133.3042h-6.7265c-.1016 0-.1651-.0313-.19-.0952s0-.1328.0762-.209q.873-.6834.874-3.1538v-8.246a15.1028 15.1028 0 0 1 1.2627-6.1558l1.99-4.5981q.4936-2.4316-.2286-3.1919c-.0771-.0762-.1025-.1455-.0771-.209s.0889-.0952.1914-.0952h11.07q.3793 0 .1514.3042-.7223.684-.2666 3.1919l1.9785 4.5981a15.1785 15.1785 0 0 1 1.2559 6.1558v8.2461q0 2.4705.8741 3.1538zm-6.0801-11.8179a11.67 11.67 0 0 0 -.831-3.7094l-2.6075-6.0946-2.6074 6.0943a9.4739 9.4739 0 0 0 -.832 3.7094z" fill="#da0037" style="fill: rgb(224, 27, 36);"></path><path d="m61.114 45.6919a.1556.1556 0 0 1 .0762.19.1762.1762 0 0 1 -.1902.1142h-6.6878a.1762.1762 0 0 1 -.19-.1138.1545.1545 0 0 1 .0762-.19q.873-.7215.874-3.1538v-2.6225a5.1405 5.1405 0 0 0 -.3994-2.0141 4.9689 4.9689 0 0 0 -1.1211-1.6529 5.3507 5.3507 0 0 0 -1.6719-1.102 5.144 5.144 0 0 0 -2.0137-.399h-.8363v7.79q0 2.4324.8359 3.1538a.1829.1829 0 0 1 .0948.19c-.0127.0757-.0821.1138-.209.1138h-6.6875a.1762.1762 0 0 1 -.1905-.1138c-.0253-.0761.0127-.1391.1143-.19q.8349-.76.8359-3.1538v-19.038q0-2.4309-.8359-3.1538c-.1016-.0762-.14-.1519-.1143-.228a.176.176 0 0 1 .1905-.1143h9.8037a7.0959 7.0959 0 0 1 2.8691.5894 7.5386 7.5386 0 0 1 3.9522 3.9516 7.0976 7.0976 0 0 1 .5888 2.8692 7.3525 7.3525 0 0 1 -.6845 3.1162 6.9651 6.9651 0 0 1 -1.9375 2.5078 11.2326 11.2326 0 0 1 1.9951 3.2109 10.074 10.074 0 0 1 .6269 3.667v2.6221q0 2.4324.836 3.1538zm-8.2461-16.0737a2.1545 2.1545 0 0 0 1.5576-.627 2.2136 2.2136 0 0 0 -1.5576-3.7812h-3.8379v4.4082z" fill="#da0037" style="fill: rgb(224, 27, 36);"></path></g><path d="m64 16v34a3.9989 3.9989 0 0 1 -4 4h-56a3.9989 3.9989 0 0 1 -4-4v-7a30.1446 30.1446 0 0 0 7 4 28.1239 28.1239 0 0 0 7 2 40.5123 40.5123 0 0 0 18 0 37.2637 37.2637 0 0 0 7-2c3.3257-1.3017 7.5547-1.9147 11.32-5.68a26.15 26.15 0 0 0 7.68-18.54 15.6771 15.6771 0 0 0 -4.26-10.78h6.26a3.9989 3.9989 0 0 1 4 4z" opacity=".1" fill="#000000"></path><path d="m42.28 12c-16.01 7.86-33.82 12.24-42.28 14.03v-10.03a3.9989 3.9989 0 0 1 4-4z" fill="#fff" opacity=".4"></path></g></svg>