<!-- icon666.com - MILLIONS vector ICONS FREE --><svg id="Layer_16" viewBox="0 0 64 64" xmlns="http://www.w3.org/2000/svg" data-name="Layer 16"><ellipse cx="19" cy="45" fill="#c6053c" rx="19" ry="17"></ellipse><path d="m38 45c0 9.39-8.51 17-19 17s-19-7.61-19-17a15.634 15.634 0 0 1 2.83-8.93c-.05 6.26 1.52 19.93 16.17 19.93 13.26 0 16.78-10.72 17.69-17.2a15.248 15.248 0 0 1 1.31 6.2z" opacity=".2"></path><ellipse cx="45" cy="47" fill="#c6053c" rx="19" ry="17"></ellipse><path d="m64 47c0 9.39-8.51 17-19 17s-19-7.61-19-17a15.634 15.634 0 0 1 2.83-8.93c-.05 6.26 1.52 19.93 16.17 19.93 13.26 0 16.78-10.72 17.69-17.2a15.248 15.248 0 0 1 1.31 6.2z" opacity=".2"></path><path d="m42.47 5.12c-2.578 3.731-6.154 7.421-10.379 9.209-4.662 1.973-10.248.717-14.922-.6a36.557 36.557 0 0 1 -4.679-1.549c2.8-3.624 6-7.41 10.012-9.724 1.976-1.139 3.641-2.237 5.99-2.35a16.955 16.955 0 0 1 7.645 1.729 64.9 64.9 0 0 1 6.333 3.285z" fill="#349a46"></path><path d="m42.26 4.98a47.39 47.39 0 0 0 -24.073 4.5c-1.9.873-3.808 1.735-5.677 2.669.453-.451.822-1.037 1.23-1.529.944-1.141 1.921-2.256 2.943-3.329a43.65 43.65 0 0 1 4.253-3.868 16.048 16.048 0 0 1 5.25-2.917 13.512 13.512 0 0 1 7.989.494 31.416 31.416 0 0 1 8.085 3.98z" fill="#39b54a"></path><path d="m51.75 6.2a3.469 3.469 0 0 1 -.17.92c-.26.485-.7.286-1.234.2q-2.328-.405-4.667-.755a58.951 58.951 0 0 0 -9.068-.845 42.929 42.929 0 0 0 -16.761 3.261c-1.3.554-2.6 1.127-3.894 1.709q-.928.418-1.853.843c-.422.194-1.178.734-1.613.647a30.263 30.263 0 0 1 4.135-2.034c1.443-.67 2.895-1.321 4.361-1.937a42 42 0 0 1 9.981-2.841 43.716 43.716 0 0 1 10.649-.452c3.392.321 6.756.851 10.134 1.284z" fill="#068c38"></path><path d="m56.45 5.71q-2.46.72-4.91 1.63c-.11.04-.21.08-.32.13-1.83.68-3.63 1.44-5.39 2.26a64.435 64.435 0 0 0 -10.68 6.25 49.85 49.85 0 0 0 -4.76 3.95 41.873 41.873 0 0 0 -4.12 4.6 34.9 34.9 0 0 0 -3.23 5.25c-.46.97-1.14 2.24-1.76 3.51a.967.967 0 0 1 -.93-.46c.57-1.28 1.19-2.55 1.62-3.54a35.392 35.392 0 0 1 3.13-5.61 45.072 45.072 0 0 1 4.09-4.96 55.3 55.3 0 0 1 4.76-4.3 67.885 67.885 0 0 1 10.78-6.92c.55-.28 1.11-.56 1.67-.83.65-.32 1.31-.64 1.98-.93a67.748 67.748 0 0 1 7.22-2.86.992.992 0 0 1 1.28.69l.25.93a.978.978 0 0 1 -.68 1.21z" fill="#068c38"></path><path d="m56.45 5.71a72.133 72.133 0 0 0 -7.35 2.59 8.187 8.187 0 0 1 -.663-2.285c.005-.066-.1-.2-.077-.265.046-.131.885-.4 1.026-.465q1.263-.561 2.548-1.072t2.605-.973c.653-.228 1.546-.73 2.122-.081s.789 2.263-.211 2.551z" fill="#534741"></path><path d="m45.87 34.87a.98.98 0 0 1 -1.11.38c-.34-1.18-.62-2.37-.88-3.56-.5-2.38-.84-4.79-1.11-7.19s-.45-4.83-.57-7.25-.21-4.83-.2-7.28l2 .06c-.08 2.36-.09 4.77-.05 7.16s.15 4.78.34 7.16.44 4.76.85 7.1c.21 1.15.44 2.3.73 3.42z" fill="#068c38"></path><path d="m38.931 38.739a2 2 0 0 1 -1.109-3.272c1.434-1.639 3.468-3.177 5.178-1.467 3 3 3 0 4-1s2.823-.784 4 0c3 2-1.546 7.765-12.069 5.739z" opacity=".2"></path><path d="m27.306 36.739a2 2 0 0 0 1.109-3.272c-1.434-1.639-3.468-3.177-5.178-1.467-3 3-3 0-4-1s-2.823-.784-4 0c-3 2 1.546 7.765 12.069 5.739z" opacity=".2"></path><g fill="#fff"><path d="m6.374 41.77c.626 2.68 1.402 5.981 4.626 8.23 1.081.754 2.721 1.17 6 2 .669.17 1.147.274 1.351.032.596-.707-1.877-3.732-3.351-6.032-1.894-2.951-2.785-4.682-8.557-6.47-.585-.181-.324 1.15-.069 2.24z" opacity=".4"></path><path d="m32.374 43.77c.626 2.68 1.402 5.981 4.626 8.23 1.081.754 2.721 1.17 6 2 .669.17 1.147.274 1.351.032.596-.707-1.877-3.732-3.351-6.032-1.894-2.951-2.785-4.682-8.557-6.47-.585-.181-.324 1.15-.069 2.24z" opacity=".4"></path><circle cx="47" cy="54" opacity=".4" r="1"></circle><circle cx="21" cy="53" opacity=".4" r="1"></circle></g></svg>