<!-- icon666.com - MILLIONS vector ICONS FREE --><svg viewBox="0 0 64 64" xmlns="http://www.w3.org/2000/svg"><g id="Layer_37" data-name="Layer 37"><path d="m59 32c0 2.05 4.81 4.06 4.44 6a31.953 31.953 0 0 1 -10.53 18.22c-1.17 1.015-5.6-2.056-6.91-1.22-2.069 1.321-1.112 6.409-3.47 7.23a32.207 32.207 0 0 1 -21.06 0c-2.287-.8-1.454-5.962-3.47-7.23-1.377-.866-5.684 2.284-6.91 1.22a31.953 31.953 0 0 1 -10.53-18.22c-.37-1.94 4.44-3.95 4.44-6s-4.81-4.06-4.44-6a31.953 31.953 0 0 1 10.53-18.22c1.519-1.318 3.91 3.22 7.91 1.22 3.225-1.613.556-6.564 2.47-7.23a32.207 32.207 0 0 1 21.06 0c1.914.666 1.743 6.23 3.47 7.23 1.748 1.012 5.391-2.538 6.91-1.22a31.953 31.953 0 0 1 10.53 18.22c.37 1.94-4.44 3.95-4.44 6z" fill="#333"></path><path d="m51 36h4.66a23.777 23.777 0 0 1 -4.1 9.9l-3.3-3.29-5.65 5.65 3.29 3.3a23.777 23.777 0 0 1 -9.9 4.1v-4.66h-8v4.66a23.777 23.777 0 0 1 -9.9-4.1l3.29-3.3-5.65-5.65-3.3 3.29a23.777 23.777 0 0 1 -4.1-9.9h4.66v-8h-4.66a23.777 23.777 0 0 1 4.1-9.9l3.3 3.29 5.65-5.65-3.29-3.3a23.777 23.777 0 0 1 9.9-4.1v4.66h8v-4.66a23.777 23.777 0 0 1 9.9 4.1l-3.29 3.3 5.65 5.65 3.3-3.29a23.777 23.777 0 0 1 4.1 9.9h-4.66z" fill="#f4eee9"></path><path d="m64 32a32.038 32.038 0 0 1 -.56 6h-3.44a2.006 2.006 0 0 1 -2-2v-8a2.006 2.006 0 0 1 2-2h3.44a32.038 32.038 0 0 1 .56 6z" fill="#f4eee9"></path><path d="m36 8.34v4.66h-8v-4.66c.03-.01 1.58-.22 1.75-.23.27-.03 1.77-.11 2.25-.11s2.59.14 2.76.16c.19.02 1.21.17 1.24.18z"></path><path d="m21.39 15.74-5.65 5.65-3.3-3.29c.04-.06 1.49-1.9 1.71-2.14.28-.32.58-.63.88-.93s.61-.6.93-.88c.24-.22 2.08-1.67 2.14-1.71z"></path><path d="m13 28v8h-4.66c-.01-.03-.28-2.3-.3-2.58-.03-.47-.04-.94-.04-1.42s.01-.95.04-1.42c.02-.28.29-2.55.3-2.58z"></path><path d="m21.39 48.26-3.29 3.3c-.06-.04-1.9-1.49-2.14-1.71-.32-.28-.63-.58-.93-.88s-.6-.61-.88-.93c-.22-.24-1.67-2.08-1.71-2.14l3.3-3.29z"></path><path d="m36 51v4.66c-.03.01-2.3.28-2.58.3-.47.03-.94.04-1.42.04s-.95-.01-1.42-.04c-.28-.02-2.55-.29-2.58-.3v-4.66z"></path><path d="m51.56 45.9c-.04.06-1.49 1.9-1.71 2.14-.28.32-.58.63-.88.93s-.61.6-.93.88c-.24.22-2.08 1.67-2.14 1.71l-3.29-3.3 5.65-5.65z"></path><path d="m56 32c0 .48-.01.95-.04 1.42-.02.28-.29 2.55-.3 2.58h-4.66v-8h4.66c.01.03.16 1.05.18 1.24.02.17.16 2.28.16 2.76z"></path><path d="m51.56 18.1-3.3 3.29-5.65-5.65 3.29-3.3c.06.04 1.9 1.49 2.14 1.71.32.28.63.58.93.88s.6.61.88.93c.22.24 1.67 2.08 1.71 2.14z"></path><circle cx="32" cy="32" r="21"></circle><g fill="#f4eee9"><path d="m52.91 7.78-1.71 2.97a2 2 0 0 1 -2.74.73l-6.92-4a2 2 0 0 1 -.74-2.73l1.73-2.98a31.759 31.759 0 0 1 10.38 6.01z"></path><path d="m22.46 7.48-6.92 4a2 2 0 0 1 -2.74-.73l-1.71-2.97a31.759 31.759 0 0 1 10.38-6.01l1.73 2.98a2 2 0 0 1 -.74 2.73z"></path><circle cx="32" cy="32" r="20"></circle><path d="m6 28v8a2.006 2.006 0 0 1 -2 2h-3.44a32.423 32.423 0 0 1 0-12h3.44a2.006 2.006 0 0 1 2 2z"></path><path d="m23.2 59.25-1.73 2.98a31.759 31.759 0 0 1 -10.38-6.01l1.71-2.97a2 2 0 0 1 2.74-.73l6.92 4a2 2 0 0 1 .74 2.73z"></path><path d="m52.91 56.22a31.759 31.759 0 0 1 -10.38 6.01l-1.73-2.98a2 2 0 0 1 .74-2.73l6.92-4a2 2 0 0 1 2.74.73z"></path></g><path d="m64 32a32.005 32.005 0 0 1 -51.22 25.59 32.01 32.01 0 0 0 31.44-55.18 32.034 32.034 0 0 1 19.78 29.59z" opacity=".2"></path><path d="m38.344 40.846c.59-.175 1.075 2.163 1.25 2.657h-2.188z" fill="#171717"></path><path d="m40.844 37.253-.187.009a2.5 2.5 0 1 0 -4.314 0 2.545 2.545 0 0 0 -2.578 3.573 2.75 2.75 0 0 0 4.735.094 2.757 2.757 0 0 0 4.679.015 2.535 2.535 0 0 0 -2.335-3.691z" fill="#171717"></path><path d="m29.789 29.087a2.288 2.288 0 0 1 -3 .388 8.1 8.1 0 0 1 -1.289-1.336c-1 1.117-2.239 2.407-3.825 1.35-1.852-1.233-1.189-3.413.027-4.765l3.798-4.224 2.979 3.31c1.313 1.461 3.049 3.343 1.31 5.277z" fill="#171717"></path><path d="m25.344 27.846c.59-.175 1.075 2.163 1.25 2.657h-2.188z" fill="#171717"></path><path d="m43.5 23.383c0 1.6-1.293 2.726-2.254 3.865l-2.746 3.252-3.862-4.577c-1.153-1.368-1.727-3.4-.214-4.8 1.606-1.494 3.033 0 4.076 1.235.612-.725 1.2-1.639 2.2-1.821 1.652-.3 2.8 1.355 2.8 2.846z" fill="#ed1c24"></path><path d="m22.023 35.003h7v7h-7z" fill="#ed1c24" transform="matrix(.707 -.707 .707 .707 -19.75 29.324)"></path></g></svg>