<!-- icon666.com - MILLIONS vector ICONS FREE --><svg viewBox="0 0 64 64" xmlns="http://www.w3.org/2000/svg"><g id="Layer_24" data-name="Layer 24"><path d="m53 0h-20.85-21.15l-11 25 32 39 32-39z" fill="#0ccbfd"></path><path d="m17 25h-17l11-25z" fill="#0ccbfd"></path><path d="m64 25h-17l6-25z" fill="#0ccbfd"></path><path d="m32 64-32-39h17z" fill="#b7fdfe"></path><path d="m64 25-32 39 15-39z" fill="#0086e9"></path><path d="m64 25-32 39 15-39z" opacity=".2"></path><path d="m32.15 0-15.15 25-6-25z" fill="#0086e9"></path><path d="m53 0-6 25-14.85-25z" fill="#0086e9"></path><path d="m47 25-15 39-15-39z" fill="#0ccbfd"></path><path d="m47 25h-30l15.15-25z" fill="#b7fdfe"></path><g fill="#fff"><circle cx="17" cy="25" r="2"></circle><path d="m17 23 23 2-23 2z"></path><path d="m15.285 23.971 7.715-8.971-4.285 11.029z"></path><path d="m15.054 25.463-3.054-21.463 6.946 20.537z"></path><path d="m17 27-12-2 12-2z"></path><path d="m17 25 7 18"></path><path d="m18.864 24.275 5.136 18.725-8.864-17.275z"></path></g></g></svg>