<!-- icon666.com - MILLIONS vector ICONS FREE --><svg viewBox="0 0 64 64" xmlns="http://www.w3.org/2000/svg"><g id="Layer_22" data-name="Layer 22"><path d="m56.55 41.55c-.581.581-.97 1.317-1.56 1.89a8.815 8.815 0 0 1 -2.04 1.45 9.623 9.623 0 0 1 -4.98 1.08c.4 7.38-8.208 12.392-14.49 8.59-2.069 6.27-10.542 8.347-15.38 3.95-2.6 5.885-11.08 7.2-15.447 2.567a9.737 9.737 0 0 1 2.257-14.887 9.7 9.7 0 0 1 2.31-13.59 9.735 9.735 0 0 1 -1.91-8.5 10.458 10.458 0 0 1 2.49-4.328.948.948 0 0 0 .227-1.18 13.154 13.154 0 0 1 -.871-2.4c-1.171-6.444 5.044-12.402 11.409-10.952a9.014 9.014 0 0 1 4.2 2.12c.2.192.807 1.176 1.105 1.15s.546-.834.661-1.036a9.377 9.377 0 0 1 7.384-4.434 9.6 9.6 0 0 1 8.385 4.07 7.346 7.346 0 0 1 .988 1.872c.134.4.207 1.231.657 1.438.253.117.725-.143.968-.2a7.5 7.5 0 0 1 1.2-.154 12.014 12.014 0 0 1 3.087.193 10.926 10.926 0 0 1 8.1 6.58 10.379 10.379 0 0 1 -2.59 11.15 9.755 9.755 0 0 1 3.84 13.561z" fill="#854883"></path><path d="m11.02 14.06a9.152 9.152 0 0 0 .36 3.074c.168.548.927 1.542.824 2.134-.085.5-1.065 1.2-1.383 1.635a9.369 9.369 0 0 0 -1.221 2.311 9.648 9.648 0 0 0 1.62 9.386 9.66 9.66 0 0 0 -2.31 13.59 9.495 9.495 0 0 0 2.35 17.54 9.5 9.5 0 0 1 -10.811-6.33 9.719 9.719 0 0 1 4.461-11.21 9.654 9.654 0 0 1 2.31-13.59 9.7 9.7 0 0 1 -1.826-8.807 8.423 8.423 0 0 1 2.338-3.9c.434-.384.684-.47.4-1.04a9.748 9.748 0 0 1 -.9-2.309c-1.373-6.186 4.768-13.172 11.248-11.324a9.557 9.557 0 0 0 -7.46 8.84z" fill="#fff" opacity=".4"></path><path d="m2.47 60.9c.11.12.22.23.34.34-.01 0-.02-.01-.03-.02-.1-.1-.2-.21-.31-.32z" fill="#fff" opacity=".4"></path><path d="m56.55 41.55c-.6.6-1.024 1.338-1.66 1.911a9.935 9.935 0 0 1 -2.132 1.454 9.448 9.448 0 0 1 -4.788 1.055c.4 7.333-8.263 12.359-14.49 8.59-2.059 6.24-10.565 8.326-15.38 3.95-1.163 2.637-4.677 5.85-7.79 4.945a9.389 9.389 0 0 1 -6.11-7.025 9.7 9.7 0 0 0 11.9-4.92c4.815 4.4 13.3 2.246 15.38-3.95a9.746 9.746 0 0 0 8.957.582 7.643 7.643 0 0 0 3.324-2.449c.915-1.362.522-2.972.154-4.449-.3-1.21-.287-2.48-.616-3.674-.49-1.778-1.97-1.294-3.43-1.13-1.238.139-2.6.1-3.094-1.235a14.423 14.423 0 0 1 -.406-4.756 23.874 23.874 0 0 1 1.808-9.762c.347-.779 1.377-2.061 1.191-2.973-.281-1.381-2.454-.309-3.208-.081-6.1 1.842-12.934-1.334-17.59-5.129a14.337 14.337 0 0 1 -3.06-2.712c-.935-1.414.831-2.766 1.743-3.725 1.29-1.36 3.054-.513 4.348.393a14.343 14.343 0 0 1 1.757 1.54c.193.188.454.67.631.356.086-.006.129.049.131.165a9.94 9.94 0 0 1 17.592-.374c.4.734.716 1.456.038 2.114-.548.532-1.533.743-1.66 1.62-.109.752.688 1.606 1.34 1.89.894.39 1.753-.329 2.519-.7.912-.445 1.9-.754 2.851-1.105 1.075-.4 2.242-.958 3.41-.643 1.809.488 3.324 2.312 4.25 3.845a10.388 10.388 0 0 1 -1.75 12.822c4.85 2.425 6.858 8.958 3.84 13.56z" opacity=".2"></path><path d="m53.82 28.94c-4.63 5.19-14.11 5.33-15.3 5.33h-.12s-.03-.18-.06-.51c-.2-2.16-.7-10.62 3.58-15.43 4.94-5.54 15.39-5.29 15.39-5.29v.01c.01.1.1.75.15 1.76.17 3.2.04 10-3.64 14.13z" fill="#349a46"></path><path d="m57.723 12.745c-4.745 3.337-9.417 8.012-11.589 13.463-2.351 5.9-.788 12.921.839 18.812a44.731 44.731 0 0 0 1.934 5.98 54.671 54.671 0 0 0 11.285-11.239c1.864-2.58 3.489-5.46 3.76-8.69a22.878 22.878 0 0 0 -1.974-10.225 45.793 45.793 0 0 0 -4.255-8.101z" fill="#349a46"></path><path d="m57.9 13.013a59.539 59.539 0 0 1 -1.909 21.081c-1.624 5.863-4.38 11.432-7.044 16.88a17.817 17.817 0 0 1 1.445-1.154q1.574-1.3 3.071-2.68a51.162 51.162 0 0 0 6.628-7.234c1.876-2.559 3.533-5.441 3.846-8.656a22.124 22.124 0 0 0 -1.764-9.916 41.935 41.935 0 0 0 -4.273-8.321z" fill="#39b54a"></path><path d="m58.184 17.26a63.183 63.183 0 0 1 -3.063 19.677c-.8 2.381-1.858 4.7-2.873 6.993a51.68 51.68 0 0 1 -3.341 7.07c-.161-.336.406-1.173.56-1.513q.435-.962.862-1.924.871-1.959 1.717-3.931a70.183 70.183 0 0 0 2.638-6.668 56.431 56.431 0 0 0 2.07-21.928c-.207-2.062-.5-4.116-.8-6.166-.144-.972-.286-1.943-.441-2.912-.035-.223-.332-1.129-.21-1.325.1-.162 1.384-.231 1.537-.251.524 4.255 1.344 8.578 1.344 12.878z" fill="#068c38"></path><path d="m61 5.747v1.666a1.693 1.693 0 0 1 -1.67 1.717c-2.91-.01-14.45 3.625-18.33 5.87-1.11-.259-1.88-1.71-2-2a26.251 26.251 0 0 1 20-9 1.988 1.988 0 0 1 2 1.747z" fill="#534741"></path><path d="m57.46 14.81q-2.145 1.8-4.21 3.71c-1.59 1.44-3.14 2.93-4.68 4.43-1.51 1.53-3.02 3.06-4.45 4.66-1.95 2.15-3.85 4.35-5.6 6.66h-.12s-.03-.18-.06-.51c.4-.52.8-1.04 1.19-1.56 1.38-1.66 2.74-3.34 4.17-4.96q4.26-4.86 8.83-9.48c1.59-1.58 3.17-3.15 4.78-4.71.01.1.1.75.15 1.76z" fill="#068c38"></path><path d="m46.07 7.22s-.03.04-.09.11a29.773 29.773 0 0 1 -2.62 2.81 29 29 0 0 1 -3.08 2.55c-.34.25-.69.49-1.06.72a15.17 15.17 0 0 1 -7.18 2.59c-7.58.43-14.99-7.11-14.99-7.11a29.694 29.694 0 0 1 3.02-3.19.524.524 0 0 1 .11-.1c2.61-2.39 6.6-5.24 10.95-5.49 7.58-.44 14.94 7.11 14.94 7.11z" fill="#349a46"></path><circle cx="16" cy="40" opacity=".2" r="6"></circle><circle cx="19" cy="26" opacity=".2" r="6"></circle><circle cx="30" cy="37" opacity=".2" r="6"></circle></g></svg>