<!-- icon666.com - MILLIONS vector ICONS FREE --><svg viewBox="0 0 64 64" xmlns="http://www.w3.org/2000/svg"><g id="Layer_17" data-name="Layer 17"><path d="m40.292.28c8.6 1.778 14.582 12.311 14.582 12.311s-9.694 7.294-18.3 5.515-14.635-12.323-14.635-12.323 9.75-7.283 18.353-5.503z" fill="#349a46"></path><ellipse cx="5.675" cy="58.348" fill="#fc0" rx="6.513" ry="4.661" transform="matrix(.712 -.703 .703 .712 -39.359 20.817)"></ellipse><ellipse cx="51.87" cy="12.341" fill="#349a46" rx="4.739" ry="2.831" transform="matrix(.868 -.497 .497 .868 .722 27.398)"></ellipse><path d="m44.381 52.8c-7.969 7.936-20.618 13.916-31.935 10.045a18.042 18.042 0 0 1 -10.612-9.545 23.793 23.793 0 0 1 -1.2-14.779c2.54-11.876 11.74-22.264 22.787-27.129 10.135-4.463 23.861-4.085 29.77 6.743 5.477 10.034 1.1 22.654-5.524 30.991a42.441 42.441 0 0 1 -3.286 3.674z" fill="#fc0"></path><path d="m52.956 17.71c-1.557 2.157-4.761 4.041-7.474 3.021-3.133-1.178-2.55-5.06-1.073-7.287 1.56-2.351 4.92-4.614 7.85-3.475 3.341 1.299 2.393 5.531.697 7.741z" fill="#fc0"></path><path d="m53.468 10.75a3.4 3.4 0 0 0 -.633-.5c-1.064.79-2.309 1.77-3.614 2.94a41.117 41.117 0 0 0 -5.543 6 27.582 27.582 0 0 0 -5.522 12.81 39.1 39.1 0 0 0 1.133 14.983 2.2 2.2 0 0 1 -.488 2.059 29.379 29.379 0 0 1 -27.676 9.048c-.492-.09-.954-.19-1.365-.29a4.926 4.926 0 0 0 -4.137.89 4.549 4.549 0 0 0 -.613.55c-1.335 1.42-2.64 2.69-3.845 3.79 1.837 1.71 5.3 1.11 7.812-1.39a3.129 3.129 0 0 0 .241-.26c8.955 5.113 22.317 2.595 32.841-6.446v.006c.593-.5 1.175-1.03 1.748-1.58-.107-.324-1.787-6.1-2.169-7.78l-.005.006c-1.2-5.263 1.6-22.3 3.629-24.946a45.286 45.286 0 0 1 5.5-5.95c1.295-1.19 2.49-2.16 3.424-2.88a3.33 3.33 0 0 0 -.718-1.06z" opacity=".2"></path><path d="m32.713 17.651a1 1 0 0 0 -.386-1.934 25.091 25.091 0 0 0 -18.944 8.864 33.739 33.739 0 0 0 -7.568 18.108 1 1 0 0 0 1.888.554c2.2-4.328 5.021-10.159 9.488-15.4 4.909-5.772 11.409-8.572 15.522-10.192z" fill="#fff" opacity=".4"></path><path d="m63.579 34.85c-1.433 5.531-5.411 10.193-9.355 14.184a67.647 67.647 0 0 1 -9.124 7.966 41.926 41.926 0 0 1 -2.041-6.006 71.419 71.419 0 0 1 -2.459-11.094c-.508-3.852-.675-7.922.516-11.67a29.177 29.177 0 0 1 6.853-10.777 50.62 50.62 0 0 1 8.165-7.084 54.452 54.452 0 0 1 5.446 10.183c1.777 4.427 3.145 9.539 1.999 14.298z" fill="#349a46"></path><path d="m56.35 10.7a71.151 71.151 0 0 1 -1.079 20.264 79.118 79.118 0 0 1 -5.956 17.36c-1.322 2.914-2.727 5.784-4.162 8.645a22.792 22.792 0 0 1 1.866-1.455q1.935-1.556 3.781-3.214a64.4 64.4 0 0 0 8.157-8.64c2.518-3.3 4.714-7.062 4.988-11.28a27.43 27.43 0 0 0 -2.368-11.822 50.852 50.852 0 0 0 -5.227-9.858z" fill="#39b54a"></path><path d="m56.711 15.88a75.133 75.133 0 0 1 -3.834 23.982c-1.031 2.985-2.391 5.892-3.7 8.765q-1.089 2.394-2.236 4.761c-.35.723-.711 1.441-1.068 2.16a6.254 6.254 0 0 1 -.773 1.452c-.19-.308.355-1.1.5-1.41q.429-.924.855-1.849.939-2.044 1.855-4.1c1.146-2.573 2.283-5.155 3.3-7.781 2.608-6.714 3.453-14.181 3.572-21.334a59.228 59.228 0 0 0 -.134-5.974c-.039-.462-.085-.923-.133-1.384a6.393 6.393 0 0 1 -.177-1.584c.1-.476.93-.9 1.384-1.215.525.564.4 2.124.457 2.878.075.876.132 1.753.132 2.633z" fill="#068c38"></path></g></svg>