<!-- icon666.com - MILLIONS vector ICONS FREE --><svg viewBox="0 0 64 64" xmlns="http://www.w3.org/2000/svg"><g id="Layer_15" data-name="Layer 15"><path d="m63.97 1.04a37.7788 37.7788 0 0 1 -.64 5.78c-.54 2.86-1.53 5.83-3.33 7.18a21.86 21.86 0 0 0 -3.45 4c-.4.54-.81 1.13-1.24 1.76-6.65 9.74-16.81 29.29-14.53 43.1a.9918.9918 0 0 1 -.99 1.14h-23.72a1.0013 1.0013 0 0 1 -1-1.07 89.7854 89.7854 0 0 1 4-20.83 32.7783 32.7783 0 0 1 3.93-8.1c5.59-7.99 15.02-13.43 18.58-15.29.01 0 .01-.01.02-.01.49-.26.86-.44 1.1-.56a25.1006 25.1006 0 0 1 -9.7 1.86c-6 0-8-2-11-2-1.52 0-3.8 1.79-5.69 3.56a1.0139 1.0139 0 0 0 -.31.73v6.71a1.0029 1.0029 0 0 1 -1 1h-14a1.0029 1.0029 0 0 1 -1-1v-28a1.0029 1.0029 0 0 1 1-1h14a1.0029 1.0029 0 0 1 1 1v1.14a.995.995 0 0 0 1.52.85 19.3734 19.3734 0 0 1 10.48-2.99c10 0 19 5 21 5a.9118.9118 0 0 0 .79-.41 1.13 1.13 0 0 0 .19-.32 7.1359 7.1359 0 0 0 .18-3.17 1.0038 1.0038 0 0 1 1-1.1h11.81a.9936.9936 0 0 1 1 1.04z" fill="#da0037"></path><path d="m62.97 0h-4.45c-1.6453 6.9223-11.7648 15.1238-14.7141 17.3925a9.9976 9.9976 0 0 1 -1.62 1.0166c-.3146.1578-.6013.3009-.6058.3009-3.5601 1.86-12.9901 7.3-18.5801 15.29a32.7783 32.7783 0 0 0 -3.93 8.1 89.7854 89.7854 0 0 0 -4 20.83 1.0013 1.0013 0 0 0 1 1.07h23.72a.9918.9918 0 0 0 .99-1.14c-2.43-14.7 9.24-35.9 15.77-44.86a21.86 21.86 0 0 1 3.45-4c1.8-1.35 2.79-4.32 3.33-7.18a37.7788 37.7788 0 0 0 .64-5.78.9936.9936 0 0 0 -1-1.04z" opacity=".2"></path></g></svg>