<!-- icon666.com - MILLIONS vector ICONS FREE --><svg viewBox="0 0 64 64" xmlns="http://www.w3.org/2000/svg"><g id="Layer_21" data-name="Layer 21"><path d="m52.46 52.46c-13.56 13.56-34.32 15.21-48.58 4.63a34.6344 34.6344 0 0 1 -3.86-3.33l2.12-2.12 2.12-2.12 9.78-9.78 1.98-1.98 21.74-21.74 1.98-1.98 9.78-9.78 2.12-2.12 2.12-2.12a34.2391 34.2391 0 0 1 5.59 7.33c7.99 13.99 5.6 32.62-6.89 45.11z" fill="#068c38"></path><path d="m50.34 50.34c-12.23 12.23-30.8 13.98-43.86 4.93a31.5216 31.5216 0 0 1 -4.34-3.63l2.12-2.12 9.78-9.78 1.98-1.98 21.74-21.74 1.98-1.98 9.78-9.78 2.12-2.12a31.1209 31.1209 0 0 1 5.44 7.3c6.93 12.77 4.59 29.55-6.74 40.9z" fill="#39b54a"></path><path d="m48.21 48.21c-10.96 10.96-27.44 12.76-39.29 5.09a28.1568 28.1568 0 0 1 -4.66-3.78l9.78-9.78 1.98-1.98 21.74-21.74 1.98-1.98 9.78-9.78a28.51 28.51 0 0 1 5.08 6.9c6.11 11.61 3.89 26.77-6.39 37.05z" fill="#ed1c24"></path><g fill="#171717"><path d="m42.6653 39.8524a2 2 0 0 1 -2.8284 2.8285c-.781-.7811-.9428-3.7713-.9428-3.7713s2.9902.1618 3.7712.9428z"></path><path d="m47.0314 30.22a2 2 0 1 1 -1.0353 3.8637c-1.0669-.2859-2.7021-2.7946-2.7021-2.7946s2.6705-1.3554 3.7374-1.0691z"></path><path d="m45.9962 19.6943a2 2 0 0 1 1.0352 3.8637c-1.0669.2859-3.7374-1.0691-3.7374-1.0691s1.6352-2.5089 2.7022-2.7946z"></path><path d="m23.5425 47.0469a2 2 0 1 1 -3.8637-1.0353c.2859-1.0669 2.7946-2.7021 2.7946-2.7021s1.355 2.6705 1.0691 3.7374z"></path><path d="m34.0678 46.0117a2 2 0 0 1 -3.8637 1.0352c-.2859-1.0669 1.0691-3.7369 1.0691-3.7369s2.5087 1.6347 2.7946 2.7017z"></path></g><path d="m53.7616.0183a34.5793 34.5793 0 0 1 5.5932 7.3326c7.9832 13.9937 5.5932 32.6191-6.8943 45.1064-13.5623 13.5627-34.323 15.2169-48.5853 4.6315a34.1291 34.1291 0 0 1 -3.8537-3.3305l6.4417-6.4417c4.0022-.1556 9.2348.6223 15.924 3.2951 11.1794 4.476 19.2263.191 24.1619-4.4477 4.6386-4.9356 8.9236-12.9825 4.4476-24.1618-2.6728-6.6893-3.4506-11.9219-3.295-15.9241z" opacity=".2"></path><path d="m42 23a19.0044 19.0044 0 0 1 -19 19 18.7034 18.7034 0 0 1 -8.96-2.26l1.98-1.98 21.74-21.74 1.98-1.98a18.7034 18.7034 0 0 1 2.26 8.96z" fill="#fff" opacity=".4"></path><path d="m38 19a19.0044 19.0044 0 0 1 -19 19 18.3421 18.3421 0 0 1 -2.98-.24l21.74-21.74a18.3421 18.3421 0 0 1 .24 2.98z" fill="#fff" opacity=".2"></path></g></svg>